#N canvas 547 183 870 562 10;
#X obj 52 60 clip 0 27;
#X obj 52 154 list split 1;
#X obj 99 294 outlet;
#X obj 52 84 text get modes;
#X obj 190 161 f;
#X obj 282 88 r \$0-lower;
#X obj 282 112 t b f;
#X obj 294 232 f;
#X obj 186 196 t f b;
#X obj 186 220 * 7;
#X obj 176 290 +;
#X obj 35 333 s \$0-upper-set;
#X obj 321 281 outlet;
#X obj 474 38 inlet;
#X obj 465 143 t f f;
#X obj 455 188 div 7;
#X obj 505 175 mod 7;
#X floatatom 176 315 5 0 0 0 - - -;
#X obj 474 63 clip 0 27;
#X obj 180 85 r \$0-upper;
#X obj 463 258 s \$0-upper-set;
#X obj 544 245 s \$0-lower-set;
#X msg 52 178 symbol \$1;
#X msg 52 201 label \$1;
#X obj 405 510 array define -k -yrange 0 12 \$1-MODE 7;
#A 0 0 2 4 5 7 9 11;
#X obj 100 421 list prepend 0;
#X obj 605 33 r \$1-GET_MODE;
#X obj 182 12 hradio 24 1 0 7 \$0-lower \$0-lower-set empty 0 -8 0
10 -245500 -162280 -1 1;
#X obj 182 38 hradio 42 1 0 4 \$0-upper \$0-upper-set ionian 43 32
1 18 -245500 -261619 -99865 0;
#X obj 100 444 s \$1-MODE;
#X obj 222 377 s \$1-GET_MODE0;
#X obj 232 398 s \$1-GET_MODE1;
#X obj 242 418 s \$1-GET_MODE2;
#X obj 252 438 s \$1-GET_MODE3;
#X connect 0 0 3 0;
#X connect 1 0 22 0;
#X connect 1 1 25 0;
#X connect 1 1 2 0;
#X connect 3 0 1 0;
#X connect 4 0 8 0;
#X connect 5 0 6 0;
#X connect 6 0 4 0;
#X connect 6 1 7 1;
#X connect 7 0 10 1;
#X connect 7 0 12 0;
#X connect 8 0 9 0;
#X connect 8 1 7 0;
#X connect 9 0 10 0;
#X connect 10 0 17 0;
#X connect 10 0 0 0;
#X connect 10 0 30 0;
#X connect 10 0 31 0;
#X connect 10 0 32 0;
#X connect 10 0 33 0;
#X connect 13 0 18 0;
#X connect 14 0 15 0;
#X connect 14 1 16 0;
#X connect 15 0 20 0;
#X connect 16 0 21 0;
#X connect 18 0 14 0;
#X connect 19 0 4 0;
#X connect 22 0 23 0;
#X connect 23 0 11 0;
#X connect 25 0 29 0;
#X connect 26 0 18 0;
#X coords 0 -1 1 1 172 72 2 180 10;
