#N canvas 0 59 1721 1002 12;
#X obj 241 163 r \$0-bpm;
#X obj 201 270 metro 0.125 120 permin;
#X msg 219 239 tempo \$1 permin;
#X obj 201 371 f;
#X obj 201 396 + 1;
#X obj 201 446 sel 0;
#X obj 202 508 bng 32 250 50 0 empty empty empty 17 7 0 10 -262144
-1 -1;
#X obj 251 371 f;
#X obj 251 396 + 1;
#X obj 251 446 sel 0;
#X obj 252 508 bng 32 250 50 0 empty empty empty 17 7 0 10 -262144
-1 -1;
#X obj 251 421 % 3;
#X obj 301 371 f;
#X obj 301 396 + 1;
#X obj 301 446 sel 0;
#X obj 302 508 bng 32 250 50 0 empty empty empty 17 7 0 10 -262144
-1 -1;
#X obj 361 371 f;
#X obj 361 396 + 1;
#X obj 361 446 sel 0;
#X obj 362 508 bng 32 250 50 0 empty empty empty 17 7 0 10 -262144
-1 -1;
#X obj 301 421 % 4;
#X obj 361 421 % 5;
#X obj 411 371 f;
#X obj 411 396 + 1;
#X obj 411 446 sel 0;
#X obj 412 508 bng 32 250 50 0 empty empty empty 17 7 0 10 -262144
-1 -1;
#X obj 461 371 f;
#X obj 461 396 + 1;
#X obj 461 446 sel 0;
#X obj 462 508 bng 32 250 50 0 empty empty empty 17 7 0 10 -262144
-1 -1;
#X obj 521 371 f;
#X obj 521 396 + 1;
#X obj 521 446 sel 0;
#X obj 522 508 bng 32 250 50 0 empty empty empty 17 7 0 10 -262144
-1 -1;
#X obj 411 421 % 6;
#X obj 461 421 % 7;
#X obj 521 421 % 8;
#X msg 93 154 1;
#X msg 144 176 0;
#X obj 202 610 timer;
#X floatatom 202 635 5 0 0 0 - - -;
#X obj 202 545 t b b;
#X obj 252 610 timer;
#X floatatom 252 635 5 0 0 0 - - -;
#X obj 252 545 t b b;
#X obj 302 610 timer;
#X floatatom 302 635 5 0 0 0 - - -;
#X obj 302 545 t b b;
#X obj 362 610 timer;
#X floatatom 362 635 5 0 0 0 - - -;
#X obj 362 545 t b b;
#X obj 412 610 timer;
#X floatatom 412 635 5 0 0 0 - - -;
#X obj 412 545 t b b;
#X obj 462 610 timer;
#X floatatom 462 635 5 0 0 0 - - -;
#X obj 462 545 t b b;
#X obj 522 610 timer;
#X floatatom 522 635 5 0 0 0 - - -;
#X obj 522 545 t b b;
#X obj 581 371 f;
#X obj 581 396 + 1;
#X obj 581 446 sel 0;
#X obj 582 508 bng 32 250 50 0 empty empty empty 17 7 0 10 -262144
-1 -1;
#X obj 631 371 f;
#X obj 631 396 + 1;
#X obj 631 446 sel 0;
#X obj 632 508 bng 32 250 50 0 empty empty empty 17 7 0 10 -262144
-1 -1;
#X obj 681 371 f;
#X obj 681 396 + 1;
#X obj 681 446 sel 0;
#X obj 682 508 bng 32 250 50 0 empty empty empty 17 7 0 10 -262144
-1 -1;
#X obj 741 371 f;
#X obj 741 396 + 1;
#X obj 741 446 sel 0;
#X obj 742 508 bng 32 250 50 0 empty empty empty 17 7 0 10 -262144
-1 -1;
#X obj 791 371 f;
#X obj 791 396 + 1;
#X obj 791 446 sel 0;
#X obj 792 508 bng 32 250 50 0 empty empty empty 17 7 0 10 -262144
-1 -1;
#X obj 841 371 f;
#X obj 841 396 + 1;
#X obj 841 446 sel 0;
#X obj 842 508 bng 32 250 50 0 empty empty empty 17 7 0 10 -262144
-1 -1;
#X obj 582 610 timer;
#X floatatom 582 635 5 0 0 0 - - -;
#X obj 582 545 t b b;
#X obj 632 610 timer;
#X floatatom 632 635 5 0 0 0 - - -;
#X obj 632 545 t b b;
#X obj 682 610 timer;
#X floatatom 682 635 5 0 0 0 - - -;
#X obj 682 545 t b b;
#X obj 742 610 timer;
#X floatatom 742 635 5 0 0 0 - - -;
#X obj 742 545 t b b;
#X obj 792 610 timer;
#X floatatom 792 635 5 0 0 0 - - -;
#X obj 792 545 t b b;
#X obj 842 610 timer;
#X floatatom 842 635 5 0 0 0 - - -;
#X obj 842 545 t b b;
#X obj 152 508 bng 32 250 50 0 empty empty empty 17 7 0 10 -262144
-1 -1;
#X obj 152 610 timer;
#X floatatom 152 635 5 0 0 0 - - -;
#X obj 152 545 t b b;
#X obj 581 421 % 12;
#X obj 631 421 % 16;
#X obj 681 421 % 24;
#X obj 741 421 % 32;
#X obj 791 421 % 48;
#X obj 841 421 % 64;
#X obj 891 371 f;
#X obj 891 396 + 1;
#X obj 891 446 sel 0;
#X obj 892 508 bng 32 250 50 0 empty empty empty 17 7 0 10 -262144
-1 -1;
#X obj 941 371 f;
#X obj 941 396 + 1;
#X obj 941 446 sel 0;
#X obj 942 508 bng 32 250 50 0 empty empty empty 17 7 0 10 -262144
-1 -1;
#X obj 892 610 timer;
#X floatatom 892 635 5 0 0 0 - - -;
#X obj 892 545 t b b;
#X obj 942 610 timer;
#X floatatom 942 635 5 0 0 0 - - -;
#X obj 942 545 t b b;
#X obj 891 421 % 96;
#X obj 941 421 % 128;
#X obj 201 421 % 2;
#X msg 510 84 1 2 3 4 5 6 7 8 12 16 24 32 48 64 96 128;
#X obj 518 157 list length;
#X floatatom 518 182 5 0 0 0 - - -;
#X connect 0 0 2 0;
#X connect 1 0 3 0;
#X connect 1 0 7 0;
#X connect 1 0 30 0;
#X connect 1 0 26 0;
#X connect 1 0 22 0;
#X connect 1 0 16 0;
#X connect 1 0 12 0;
#X connect 1 0 102 0;
#X connect 1 0 60 0;
#X connect 1 0 80 0;
#X connect 1 0 76 0;
#X connect 1 0 72 0;
#X connect 1 0 68 0;
#X connect 1 0 64 0;
#X connect 1 0 112 0;
#X connect 1 0 116 0;
#X connect 2 0 1 0;
#X connect 3 0 4 0;
#X connect 4 0 128 0;
#X connect 5 0 6 0;
#X connect 6 0 41 0;
#X connect 7 0 8 0;
#X connect 8 0 11 0;
#X connect 9 0 10 0;
#X connect 10 0 44 0;
#X connect 11 0 9 0;
#X connect 11 0 7 1;
#X connect 12 0 13 0;
#X connect 13 0 20 0;
#X connect 14 0 15 0;
#X connect 15 0 47 0;
#X connect 16 0 17 0;
#X connect 17 0 21 0;
#X connect 18 0 19 0;
#X connect 19 0 50 0;
#X connect 20 0 14 0;
#X connect 20 0 12 1;
#X connect 21 0 18 0;
#X connect 21 0 16 1;
#X connect 22 0 23 0;
#X connect 23 0 34 0;
#X connect 24 0 25 0;
#X connect 25 0 53 0;
#X connect 26 0 27 0;
#X connect 27 0 35 0;
#X connect 28 0 29 0;
#X connect 29 0 56 0;
#X connect 30 0 31 0;
#X connect 31 0 36 0;
#X connect 32 0 33 0;
#X connect 33 0 59 0;
#X connect 34 0 24 0;
#X connect 34 0 22 1;
#X connect 35 0 28 0;
#X connect 35 0 26 1;
#X connect 36 0 32 0;
#X connect 36 0 30 1;
#X connect 37 0 1 0;
#X connect 38 0 1 0;
#X connect 39 0 40 0;
#X connect 41 0 39 0;
#X connect 41 1 39 1;
#X connect 42 0 43 0;
#X connect 44 0 42 0;
#X connect 44 1 42 1;
#X connect 45 0 46 0;
#X connect 47 0 45 0;
#X connect 47 1 45 1;
#X connect 48 0 49 0;
#X connect 50 0 48 0;
#X connect 50 1 48 1;
#X connect 51 0 52 0;
#X connect 53 0 51 0;
#X connect 53 1 51 1;
#X connect 54 0 55 0;
#X connect 56 0 54 0;
#X connect 56 1 54 1;
#X connect 57 0 58 0;
#X connect 59 0 57 0;
#X connect 59 1 57 1;
#X connect 60 0 61 0;
#X connect 61 0 106 0;
#X connect 62 0 63 0;
#X connect 63 0 86 0;
#X connect 64 0 65 0;
#X connect 65 0 107 0;
#X connect 66 0 67 0;
#X connect 67 0 89 0;
#X connect 68 0 69 0;
#X connect 69 0 108 0;
#X connect 70 0 71 0;
#X connect 71 0 92 0;
#X connect 72 0 73 0;
#X connect 73 0 109 0;
#X connect 74 0 75 0;
#X connect 75 0 95 0;
#X connect 76 0 77 0;
#X connect 77 0 110 0;
#X connect 78 0 79 0;
#X connect 79 0 98 0;
#X connect 80 0 81 0;
#X connect 81 0 111 0;
#X connect 82 0 83 0;
#X connect 83 0 101 0;
#X connect 84 0 85 0;
#X connect 86 0 84 0;
#X connect 86 1 84 1;
#X connect 87 0 88 0;
#X connect 89 0 87 0;
#X connect 89 1 87 1;
#X connect 90 0 91 0;
#X connect 92 0 90 0;
#X connect 92 1 90 1;
#X connect 93 0 94 0;
#X connect 95 0 93 0;
#X connect 95 1 93 1;
#X connect 96 0 97 0;
#X connect 98 0 96 0;
#X connect 98 1 96 1;
#X connect 99 0 100 0;
#X connect 101 0 99 0;
#X connect 101 1 99 1;
#X connect 102 0 105 0;
#X connect 103 0 104 0;
#X connect 105 0 103 0;
#X connect 105 1 103 1;
#X connect 106 0 62 0;
#X connect 106 0 60 1;
#X connect 107 0 66 0;
#X connect 107 0 64 1;
#X connect 108 0 70 0;
#X connect 108 0 68 1;
#X connect 109 0 74 0;
#X connect 109 0 72 1;
#X connect 110 0 78 0;
#X connect 110 0 76 1;
#X connect 111 0 82 0;
#X connect 111 0 80 1;
#X connect 112 0 113 0;
#X connect 113 0 126 0;
#X connect 114 0 115 0;
#X connect 115 0 122 0;
#X connect 116 0 117 0;
#X connect 117 0 127 0;
#X connect 118 0 119 0;
#X connect 119 0 125 0;
#X connect 120 0 121 0;
#X connect 122 0 120 0;
#X connect 122 1 120 1;
#X connect 123 0 124 0;
#X connect 125 0 123 0;
#X connect 125 1 123 1;
#X connect 126 0 114 0;
#X connect 126 0 112 1;
#X connect 127 0 118 0;
#X connect 127 0 116 1;
#X connect 128 0 5 0;
#X connect 128 0 3 1;
#X connect 129 0 130 0;
#X connect 130 0 131 0;
