#N canvas 631 267 798 643 10;
#N canvas 551 303 835 474 clock 0;
#X obj 201 270 metro 0.125 120 permin;
#X msg 219 239 tempo \$1 permin;
#N canvas 358 294 1126 786 visual 0;
#X obj 91 271 f;
#X obj 91 296 + 1;
#X obj 91 346 sel 0;
#X obj 92 408 bng 32 250 50 0 empty empty empty 17 7 0 10 -262144 -1
-1;
#X obj 141 271 f;
#X obj 141 296 + 1;
#X obj 141 346 sel 0;
#X obj 142 408 bng 32 250 50 0 empty empty empty 17 7 0 10 -262144
-1 -1;
#X obj 141 321 % 3;
#X obj 191 271 f;
#X obj 191 296 + 1;
#X obj 191 346 sel 0;
#X obj 192 408 bng 32 250 50 0 empty empty empty 17 7 0 10 -262144
-1 -1;
#X obj 251 271 f;
#X obj 251 296 + 1;
#X obj 251 346 sel 0;
#X obj 252 408 bng 32 250 50 0 empty empty empty 17 7 0 10 -262144
-1 -1;
#X obj 191 321 % 4;
#X obj 251 321 % 5;
#X obj 301 271 f;
#X obj 301 296 + 1;
#X obj 301 346 sel 0;
#X obj 302 408 bng 32 250 50 0 empty empty empty 17 7 0 10 -262144
-1 -1;
#X obj 351 271 f;
#X obj 351 296 + 1;
#X obj 351 346 sel 0;
#X obj 352 408 bng 32 250 50 0 empty empty empty 17 7 0 10 -262144
-1 -1;
#X obj 411 271 f;
#X obj 411 296 + 1;
#X obj 411 346 sel 0;
#X obj 412 408 bng 32 250 50 0 empty empty empty 17 7 0 10 -262144
-1 -1;
#X obj 301 321 % 6;
#X obj 351 321 % 7;
#X obj 411 321 % 8;
#X obj 92 510 timer;
#X floatatom 92 535 5 0 0 0 - - -;
#X obj 92 445 t b b;
#X obj 142 510 timer;
#X floatatom 142 535 5 0 0 0 - - -;
#X obj 142 445 t b b;
#X obj 192 510 timer;
#X floatatom 192 535 5 0 0 0 - - -;
#X obj 192 445 t b b;
#X obj 252 510 timer;
#X floatatom 252 535 5 0 0 0 - - -;
#X obj 252 445 t b b;
#X obj 302 510 timer;
#X floatatom 302 535 5 0 0 0 - - -;
#X obj 302 445 t b b;
#X obj 352 510 timer;
#X floatatom 352 535 5 0 0 0 - - -;
#X obj 352 445 t b b;
#X obj 412 510 timer;
#X floatatom 412 535 5 0 0 0 - - -;
#X obj 412 445 t b b;
#X obj 471 271 f;
#X obj 471 296 + 1;
#X obj 471 346 sel 0;
#X obj 472 408 bng 32 250 50 0 empty empty empty 17 7 0 10 -262144
-1 -1;
#X obj 521 271 f;
#X obj 521 296 + 1;
#X obj 521 346 sel 0;
#X obj 522 408 bng 32 250 50 0 empty empty empty 17 7 0 10 -262144
-1 -1;
#X obj 571 271 f;
#X obj 571 296 + 1;
#X obj 571 346 sel 0;
#X obj 572 408 bng 32 250 50 0 empty empty empty 17 7 0 10 -262144
-1 -1;
#X obj 631 271 f;
#X obj 631 296 + 1;
#X obj 631 346 sel 0;
#X obj 632 408 bng 32 250 50 0 empty empty empty 17 7 0 10 -262144
-1 -1;
#X obj 681 271 f;
#X obj 681 296 + 1;
#X obj 681 346 sel 0;
#X obj 682 408 bng 32 250 50 0 empty empty empty 17 7 0 10 -262144
-1 -1;
#X obj 731 271 f;
#X obj 731 296 + 1;
#X obj 731 346 sel 0;
#X obj 732 408 bng 32 250 50 0 empty empty empty 17 7 0 10 -262144
-1 -1;
#X obj 472 510 timer;
#X floatatom 472 535 5 0 0 0 - - -;
#X obj 472 445 t b b;
#X obj 522 510 timer;
#X floatatom 522 535 5 0 0 0 - - -;
#X obj 522 445 t b b;
#X obj 572 510 timer;
#X floatatom 572 535 5 0 0 0 - - -;
#X obj 572 445 t b b;
#X obj 632 510 timer;
#X floatatom 632 535 5 0 0 0 - - -;
#X obj 632 445 t b b;
#X obj 682 510 timer;
#X floatatom 682 535 5 0 0 0 - - -;
#X obj 682 445 t b b;
#X obj 732 510 timer;
#X floatatom 732 535 5 0 0 0 - - -;
#X obj 732 445 t b b;
#X obj 42 408 bng 32 250 50 0 empty empty empty 17 7 0 10 -262144 -1
-1;
#X obj 42 510 timer;
#X floatatom 42 535 5 0 0 0 - - -;
#X obj 42 445 t b b;
#X obj 471 321 % 12;
#X obj 521 321 % 16;
#X obj 571 321 % 24;
#X obj 631 321 % 32;
#X obj 681 321 % 48;
#X obj 731 321 % 64;
#X obj 781 271 f;
#X obj 781 296 + 1;
#X obj 781 346 sel 0;
#X obj 782 408 bng 32 250 50 0 empty empty empty 17 7 0 10 -262144
-1 -1;
#X obj 831 271 f;
#X obj 831 296 + 1;
#X obj 831 346 sel 0;
#X obj 832 408 bng 32 250 50 0 empty empty empty 17 7 0 10 -262144
-1 -1;
#X obj 782 510 timer;
#X floatatom 782 535 5 0 0 0 - - -;
#X obj 782 445 t b b;
#X obj 832 510 timer;
#X floatatom 832 535 5 0 0 0 - - -;
#X obj 832 445 t b b;
#X obj 781 321 % 96;
#X obj 831 321 % 128;
#X obj 91 321 % 2;
#X obj 273 117 r \$1-bang;
#X msg 325 604 0.125 0.25 0.375 0.5 0.625 0.75 0.875 1 1.5 2 3 4 6
8 12 16;
#X connect 0 0 1 0;
#X connect 1 0 123 0;
#X connect 2 0 3 0;
#X connect 3 0 36 0;
#X connect 4 0 5 0;
#X connect 5 0 8 0;
#X connect 6 0 7 0;
#X connect 7 0 39 0;
#X connect 8 0 6 0;
#X connect 8 0 4 1;
#X connect 9 0 10 0;
#X connect 10 0 17 0;
#X connect 11 0 12 0;
#X connect 12 0 42 0;
#X connect 13 0 14 0;
#X connect 14 0 18 0;
#X connect 15 0 16 0;
#X connect 16 0 45 0;
#X connect 17 0 11 0;
#X connect 17 0 9 1;
#X connect 18 0 15 0;
#X connect 18 0 13 1;
#X connect 19 0 20 0;
#X connect 20 0 31 0;
#X connect 21 0 22 0;
#X connect 22 0 48 0;
#X connect 23 0 24 0;
#X connect 24 0 32 0;
#X connect 25 0 26 0;
#X connect 26 0 51 0;
#X connect 27 0 28 0;
#X connect 28 0 33 0;
#X connect 29 0 30 0;
#X connect 30 0 54 0;
#X connect 31 0 21 0;
#X connect 31 0 19 1;
#X connect 32 0 25 0;
#X connect 32 0 23 1;
#X connect 33 0 29 0;
#X connect 33 0 27 1;
#X connect 34 0 35 0;
#X connect 36 0 34 0;
#X connect 36 1 34 1;
#X connect 37 0 38 0;
#X connect 39 0 37 0;
#X connect 39 1 37 1;
#X connect 40 0 41 0;
#X connect 42 0 40 0;
#X connect 42 1 40 1;
#X connect 43 0 44 0;
#X connect 45 0 43 0;
#X connect 45 1 43 1;
#X connect 46 0 47 0;
#X connect 48 0 46 0;
#X connect 48 1 46 1;
#X connect 49 0 50 0;
#X connect 51 0 49 0;
#X connect 51 1 49 1;
#X connect 52 0 53 0;
#X connect 54 0 52 0;
#X connect 54 1 52 1;
#X connect 55 0 56 0;
#X connect 56 0 101 0;
#X connect 57 0 58 0;
#X connect 58 0 81 0;
#X connect 59 0 60 0;
#X connect 60 0 102 0;
#X connect 61 0 62 0;
#X connect 62 0 84 0;
#X connect 63 0 64 0;
#X connect 64 0 103 0;
#X connect 65 0 66 0;
#X connect 66 0 87 0;
#X connect 67 0 68 0;
#X connect 68 0 104 0;
#X connect 69 0 70 0;
#X connect 70 0 90 0;
#X connect 71 0 72 0;
#X connect 72 0 105 0;
#X connect 73 0 74 0;
#X connect 74 0 93 0;
#X connect 75 0 76 0;
#X connect 76 0 106 0;
#X connect 77 0 78 0;
#X connect 78 0 96 0;
#X connect 79 0 80 0;
#X connect 81 0 79 0;
#X connect 81 1 79 1;
#X connect 82 0 83 0;
#X connect 84 0 82 0;
#X connect 84 1 82 1;
#X connect 85 0 86 0;
#X connect 87 0 85 0;
#X connect 87 1 85 1;
#X connect 88 0 89 0;
#X connect 90 0 88 0;
#X connect 90 1 88 1;
#X connect 91 0 92 0;
#X connect 93 0 91 0;
#X connect 93 1 91 1;
#X connect 94 0 95 0;
#X connect 96 0 94 0;
#X connect 96 1 94 1;
#X connect 97 0 100 0;
#X connect 98 0 99 0;
#X connect 100 0 98 0;
#X connect 100 1 98 1;
#X connect 101 0 57 0;
#X connect 101 0 55 1;
#X connect 102 0 61 0;
#X connect 102 0 59 1;
#X connect 103 0 65 0;
#X connect 103 0 63 1;
#X connect 104 0 69 0;
#X connect 104 0 67 1;
#X connect 105 0 73 0;
#X connect 105 0 71 1;
#X connect 106 0 77 0;
#X connect 106 0 75 1;
#X connect 107 0 108 0;
#X connect 108 0 121 0;
#X connect 109 0 110 0;
#X connect 110 0 117 0;
#X connect 111 0 112 0;
#X connect 112 0 122 0;
#X connect 113 0 114 0;
#X connect 114 0 120 0;
#X connect 115 0 116 0;
#X connect 117 0 115 0;
#X connect 117 1 115 1;
#X connect 118 0 119 0;
#X connect 120 0 118 0;
#X connect 120 1 118 1;
#X connect 121 0 109 0;
#X connect 121 0 107 1;
#X connect 122 0 113 0;
#X connect 122 0 111 1;
#X connect 123 0 2 0;
#X connect 123 0 0 1;
#X restore 697 114 pd visual;
#X obj 201 295 s \$1-bang;
#X obj 200 145 r \$1-clock_toggle;
#X obj 240 195 r \$1-bpm;
#X connect 0 0 3 0;
#X connect 1 0 0 0;
#X connect 4 0 0 0;
#X connect 5 0 1 0;
#X restore 141 18 pd clock;
#X obj 430 23 r \$0-clock_button;
#X obj 430 46 f;
#X obj 430 69 + 1;
#X obj 430 92 % 2;
#X obj 22 42 cnv 15 86 31 empty \$0-bg empty 20 12 0 14 -262136 -262144
0;
#X floatatom 41 56 5 0 999 2 bpm #1-bpm-set #1-bpm;
#X obj 22 56 bng 17 250 50 0 \$0-clock_button \$0-clock_button-set
empty 17 7 0 10 -262144 -1 -1;
#X obj 91 56 bng 17 250 50 0 \$1-on_time \$1-on_time-set empty 17 7
0 10 -262144 -261553 -1;
#X floatatom 96 89 1 0 0 0 clock_toggle #1-clock_toggle-set #1-clock_toggle
;
#X obj 281 66 sel 0 1;
#X obj 328 202 s \$0-bg;
#X msg 349 115 color #feffde #ffffff #ffffff, f 7;
#X msg 291 115 color #f0f0f0 #ffffff #ffffff, f 7;
#X obj 68 203 f;
#X obj 68 228 + 1;
#X obj 68 253 % 128;
#X obj 68 308 sel 0;
#X floatatom 109 285 5 0 0 0 - - -;
#X obj 67 400 s \$1-on_time-set;
#X obj 68 178 r \$1-bang;
#X obj 430 115 s \$1-clock_toggle-set;
#X obj 476 56 r \$1-clock_toggle;
#X obj 281 43 r \$1-clock_toggle-set;
#X obj 351 275 r \$1-init;
#X msg 373 318 120;
#X msg 336 352 0;
#X obj 336 375 s \$1-clock_toggle-set;
#X obj 373 341 s \$1-bpm-set;
#X connect 1 0 2 0;
#X connect 2 0 3 0;
#X connect 3 0 4 0;
#X connect 4 0 21 0;
#X connect 10 0 13 0;
#X connect 10 1 12 0;
#X connect 12 0 11 0;
#X connect 13 0 11 0;
#X connect 14 0 15 0;
#X connect 15 0 16 0;
#X connect 16 0 17 0;
#X connect 16 0 14 1;
#X connect 16 0 18 0;
#X connect 17 0 19 0;
#X connect 20 0 14 0;
#X connect 22 0 2 1;
#X connect 23 0 10 0;
#X connect 24 0 25 0;
#X connect 24 0 26 0;
#X connect 25 0 28 0;
#X connect 26 0 27 0;
#X coords 0 -1 1 1 90 55 1 20 20;
