#N canvas 377 171 925 751 10;
#X floatatom 117 28 5 0 0 0 - #0-up-set #0-up;
#X floatatom 117 47 5 0 0 0 - #0-dn-set #0-dn;
#X floatatom 117 66 5 0 0 0 - #0-ud-set #0-ud;
#X floatatom 117 85 5 0 0 0 - #0-du-set #0-du;
#N canvas 251 121 1093 959 directions 0;
#X obj 93 317 f;
#X obj 93 340 + 1;
#X obj 100 419 %;
#X obj 155 478 expr $f2 - $f1;
#X obj 239 316 f;
#X obj 225 165 route bang max;
#X obj 243 396 * 2;
#X obj 243 419 - 2;
#X obj 337 311 f;
#X obj 337 334 + 1;
#X obj 344 413 %;
#X obj 344 436 moses 7;
#X obj 271 343 - 1;
#X obj 366 465 expr $f2 - ($f1 -$f2);
#X obj 517 311 f;
#X obj 517 334 + 1;
#X obj 524 413 %;
#X obj 523 441 moses 7;
#X obj 546 465 expr $f2 - ($f1 -$f2);
#X obj 93 237 t b b b b;
#X obj 545 501 expr $f2 - $f1;
#X obj 297 245 t f b;
#X obj 67 665 s \$0-up-set;
#X obj 158 664 s \$0-dn-set;
#X obj 244 664 s \$0-ud-set;
#X obj 341 664 s \$0-du-set;
#X obj 246 192 / 64;
#X obj 217 216 s \$0-browser-set;
#X obj 512 116 r \$0-browser;
#X obj 512 139 * 64;
#X obj 512 162 + 0.5;
#X obj 512 185 i;
#X obj 512 208 s \$0-max-set;
#X obj 347 163 r \$0-reset;
#X obj 316 223 f;
#X msg 346 271 -1;
#X obj 111 95 r \$1-bang_\$2;
#X obj 229 95 r \$0-msg;
#X obj 329 34 r \$0-max;
#X obj 97 178 spigot;
#X obj 224 128 spigot;
#X obj 332 68 spigot;
#X obj 133 55 r \$1-clock_toggle;
#X obj 332 91 t f b;
#X obj 363 116 s \$0-reset-set;
#X connect 0 0 1 0;
#X connect 1 0 2 0;
#X connect 2 0 0 1;
#X connect 2 0 3 0;
#X connect 2 0 22 0;
#X connect 3 0 23 0;
#X connect 4 0 2 1;
#X connect 4 0 6 0;
#X connect 4 0 12 0;
#X connect 5 0 19 0;
#X connect 5 1 26 0;
#X connect 6 0 7 0;
#X connect 7 0 10 1;
#X connect 7 0 16 1;
#X connect 8 0 9 0;
#X connect 9 0 10 0;
#X connect 10 0 8 1;
#X connect 10 0 11 0;
#X connect 11 0 24 0;
#X connect 11 1 13 0;
#X connect 12 0 13 1;
#X connect 12 0 18 1;
#X connect 12 0 20 1;
#X connect 12 0 3 1;
#X connect 12 0 11 1;
#X connect 12 0 17 1;
#X connect 13 0 24 0;
#X connect 14 0 15 0;
#X connect 15 0 16 0;
#X connect 16 0 14 1;
#X connect 16 0 17 0;
#X connect 17 0 20 0;
#X connect 17 1 18 0;
#X connect 18 0 20 0;
#X connect 19 0 0 0;
#X connect 19 1 8 0;
#X connect 19 2 4 0;
#X connect 19 3 14 0;
#X connect 20 0 25 0;
#X connect 21 0 4 1;
#X connect 21 1 35 0;
#X connect 26 0 27 0;
#X connect 28 0 29 0;
#X connect 29 0 30 0;
#X connect 30 0 31 0;
#X connect 31 0 32 0;
#X connect 33 0 34 0;
#X connect 34 0 21 0;
#X connect 35 0 0 1;
#X connect 35 0 14 1;
#X connect 35 0 8 1;
#X connect 35 0 4 1;
#X connect 36 0 39 0;
#X connect 37 0 40 0;
#X connect 38 0 41 0;
#X connect 39 0 19 0;
#X connect 40 0 5 0;
#X connect 41 0 43 0;
#X connect 42 0 39 1;
#X connect 42 0 41 1;
#X connect 42 0 40 1;
#X connect 43 0 34 1;
#X connect 43 1 44 0;
#X restore 23 81 pd directions;
#X obj 157 32 inlet;
#X obj 157 55 s \$0-msg;
#X obj 25 56 hsl 62 17 0 1 0 0 \$0-browser \$0-browser-set empty -2
-8 0 10 -191407 -262130 -1 800 1;
#X floatatom 93 37 2 2 64 0 - #0-max-set #0-max;
#X obj 22 37 hradio 17 1 0 4 \$0-dir \$0-dir-set empty 0 -8 0 10 -191407
-262130 -1 0;
#X obj 91 56 bng 17 250 50 0 \$0-reset \$0-reset-set empty 17 7 0 10
-228856 -1 -1;
#N canvas 0 91 342 276 select_dir 0;
#X obj 109 36 r \$0-dir;
#X obj 94 79 == 0;
#X obj 128 80 == 1;
#X obj 161 80 == 2;
#X obj 193 80 == 3;
#X obj 58 112 r \$0-up;
#X obj 58 135 spigot;
#X obj 152 185 s \$1-count_\$2;
#X obj 101 183 outlet;
#X obj 110 135 spigot;
#X obj 161 134 spigot;
#X obj 211 133 spigot;
#X obj 110 112 r \$0-dn;
#X obj 161 111 r \$0-ud;
#X obj 211 110 r \$0-du;
#X connect 0 0 1 0;
#X connect 0 0 2 0;
#X connect 0 0 3 0;
#X connect 0 0 4 0;
#X connect 1 0 6 1;
#X connect 2 0 9 1;
#X connect 3 0 10 1;
#X connect 4 0 11 1;
#X connect 5 0 6 0;
#X connect 6 0 7 0;
#X connect 6 0 8 0;
#X connect 9 0 8 0;
#X connect 9 0 7 0;
#X connect 10 0 8 0;
#X connect 10 0 7 0;
#X connect 11 0 8 0;
#X connect 11 0 7 0;
#X connect 12 0 9 0;
#X connect 13 0 10 0;
#X connect 14 0 11 0;
#X restore 24 102 pd select_dir;
#X obj 24 125 outlet;
#X obj 112 224 r \$0-browser;
#X floatatom 112 247 0 0 0 0 - - -;
#X obj 326 59 r \$1-init;
#X msg 404 112 0.131148;
#X obj 404 135 s \$0-browser-set;
#X msg 323 111 0;
#X obj 323 134 s \$0-dir-set;
#X obj 227 137 s \$0-reset-set;
#X connect 5 0 6 0;
#X connect 11 0 12 0;
#X connect 13 0 14 0;
#X connect 15 0 16 0;
#X connect 15 0 18 0;
#X connect 15 0 20 0;
#X connect 16 0 17 0;
#X connect 18 0 19 0;
#X coords 0 -1 1 1 90 55 1 20 20;
