#N canvas 362 109 1526 890 10;
#X floatatom 148 24 5 0 0 0 - #0-up-set #0-up;
#X floatatom 148 43 5 0 0 0 - #0-dn-set #0-dn;
#X floatatom 148 62 5 0 0 0 - #0-ud-set #0-ud;
#X floatatom 148 81 5 0 0 0 - #0-du-set #0-du;
#N canvas 817 111 1093 959 directions 0;
#X obj 93 317 f;
#X obj 93 340 + 1;
#X obj 100 419 %;
#X obj 155 478 expr $f2 - $f1;
#X obj 239 316 f;
#X obj 225 165 route bang max;
#X obj 243 396 * 2;
#X obj 243 419 - 2;
#X obj 337 311 f;
#X obj 337 334 + 1;
#X obj 344 413 %;
#X obj 344 436 moses 7;
#X obj 271 343 - 1;
#X obj 366 465 expr $f2 - ($f1 -$f2);
#X obj 513 313 f;
#X obj 517 334 + 1;
#X obj 524 413 %;
#X obj 523 441 moses 7;
#X obj 546 465 expr $f2 - ($f1 -$f2);
#X obj 545 501 expr $f2 - $f1;
#X obj 297 245 t f b;
#X obj 67 745 s \$0-up-set;
#X obj 158 744 s \$0-dn-set;
#X obj 244 744 s \$0-ud-set;
#X obj 341 744 s \$0-du-set;
#X obj 246 192 / 64;
#X obj 217 216 s \$0-browser-set;
#X obj 512 116 r \$0-browser;
#X obj 512 139 * 64;
#X obj 512 162 + 0.5;
#X obj 512 185 i;
#X obj 512 208 s \$0-max-set;
#X obj 347 163 r \$0-reset;
#X obj 316 223 f;
#X msg 346 271 -1;
#X obj 111 95 r \$1-bang_\$2;
#X obj 229 95 r \$0-msg;
#X obj 329 34 r \$0-max;
#X obj 97 178 spigot;
#X obj 224 128 spigot;
#X obj 332 68 spigot;
#X obj 133 55 r \$1-clock_toggle;
#X obj 332 91 t f b;
#X obj 363 116 s \$0-reset-set;
#X obj 512 633 f;
#X obj 93 237 t b b b b b;
#X obj 69 694 +;
#X obj 68 717 % 64;
#X obj 158 691 +;
#X obj 157 714 % 64;
#X obj 248 694 +;
#X obj 247 717 % 64;
#X obj 337 691 +;
#X obj 336 714 % 64;
#X obj 522 567 r \$0-off;
#X obj 633 137 * 64;
#X obj 633 160 + 0.5;
#X obj 633 183 i;
#X obj 633 114 r \$0-offset;
#X obj 633 206 s \$0-off-set;
#X connect 0 0 1 0;
#X connect 1 0 2 0;
#X connect 2 0 0 1;
#X connect 2 0 3 0;
#X connect 2 0 46 0;
#X connect 3 0 48 0;
#X connect 4 0 2 1;
#X connect 4 0 6 0;
#X connect 4 0 12 0;
#X connect 5 0 45 0;
#X connect 5 1 25 0;
#X connect 6 0 7 0;
#X connect 7 0 10 1;
#X connect 7 0 16 1;
#X connect 8 0 9 0;
#X connect 9 0 10 0;
#X connect 10 0 8 1;
#X connect 10 0 11 0;
#X connect 11 0 50 0;
#X connect 11 1 13 0;
#X connect 12 0 13 1;
#X connect 12 0 18 1;
#X connect 12 0 19 1;
#X connect 12 0 3 1;
#X connect 12 0 11 1;
#X connect 12 0 17 1;
#X connect 13 0 50 0;
#X connect 14 0 15 0;
#X connect 15 0 16 0;
#X connect 16 0 14 1;
#X connect 16 0 17 0;
#X connect 17 0 19 0;
#X connect 17 1 18 0;
#X connect 18 0 19 0;
#X connect 19 0 52 0;
#X connect 20 0 4 1;
#X connect 20 1 34 0;
#X connect 25 0 26 0;
#X connect 27 0 28 0;
#X connect 28 0 29 0;
#X connect 29 0 30 0;
#X connect 30 0 31 0;
#X connect 32 0 33 0;
#X connect 33 0 20 0;
#X connect 34 0 0 1;
#X connect 34 0 14 1;
#X connect 34 0 8 1;
#X connect 34 0 4 1;
#X connect 35 0 38 0;
#X connect 36 0 39 0;
#X connect 37 0 40 0;
#X connect 38 0 45 0;
#X connect 39 0 5 0;
#X connect 40 0 42 0;
#X connect 41 0 38 1;
#X connect 41 0 40 1;
#X connect 41 0 39 1;
#X connect 42 0 33 1;
#X connect 42 1 43 0;
#X connect 44 0 52 1;
#X connect 44 0 50 1;
#X connect 44 0 48 1;
#X connect 44 0 46 1;
#X connect 45 0 0 0;
#X connect 45 1 8 0;
#X connect 45 2 4 0;
#X connect 45 3 14 0;
#X connect 45 4 44 0;
#X connect 46 0 47 0;
#X connect 47 0 21 0;
#X connect 48 0 49 0;
#X connect 49 0 22 0;
#X connect 50 0 51 0;
#X connect 51 0 23 0;
#X connect 52 0 53 0;
#X connect 53 0 24 0;
#X connect 54 0 44 1;
#X connect 55 0 56 0;
#X connect 56 0 57 0;
#X connect 57 0 59 0;
#X connect 58 0 55 0;
#X restore 543 54 pd directions;
#X obj 188 28 inlet;
#X obj 188 51 s \$0-msg;
#X obj 25 56 hsl 67 12 0 1 0 0 \$0-browser \$0-browser-set max:8 32
6 0 10 -191407 -262130 -262144 1650 0;
#X floatatom 151 2 2 2 64 0 - #0-max-set #0-max;
#X obj 22 37 hradio 17 1 0 4 \$0-dir \$0-dir-set empty 0 -8 0 10 -191407
-262130 -1 0;
#X obj 92 37 bng 16 250 50 0 \$0-reset \$0-reset-set empty 17 7 0 10
-228856 -1 -1;
#N canvas 0 155 342 276 select_dir 1;
#X obj 109 36 r \$0-dir;
#X obj 94 79 == 0;
#X obj 128 80 == 1;
#X obj 161 80 == 2;
#X obj 193 80 == 3;
#X obj 58 112 r \$0-up;
#X obj 58 135 spigot;
#X obj 152 185 s \$1-count_\$2;
#X obj 101 183 outlet;
#X obj 110 135 spigot;
#X obj 161 134 spigot;
#X obj 211 133 spigot;
#X obj 110 112 r \$0-dn;
#X obj 161 111 r \$0-ud;
#X obj 211 110 r \$0-du;
#X connect 0 0 1 0;
#X connect 0 0 2 0;
#X connect 0 0 3 0;
#X connect 0 0 4 0;
#X connect 1 0 6 1;
#X connect 2 0 9 1;
#X connect 3 0 10 1;
#X connect 4 0 11 1;
#X connect 5 0 6 0;
#X connect 6 0 7 0;
#X connect 6 0 8 0;
#X connect 9 0 8 0;
#X connect 9 0 7 0;
#X connect 10 0 8 0;
#X connect 10 0 7 0;
#X connect 11 0 8 0;
#X connect 11 0 7 0;
#X connect 12 0 9 0;
#X connect 13 0 10 0;
#X connect 14 0 11 0;
#X restore 544 75 pd select_dir;
#X obj 544 98 outlet;
#X obj 146 103 r \$0-browser;
#X floatatom 146 126 0 0 0 0 - - -;
#X obj 326 59 r \$1-init;
#X msg 404 112 0.131148;
#X obj 404 135 s \$0-browser-set;
#X msg 323 111 0;
#X obj 323 134 s \$0-dir-set;
#X obj 227 137 s \$0-reset-set;
#X obj 25 70 hsl 67 12 0 1 0 0 \$0-offset \$0-offset-set off:0 32 6
0 10 -191407 -262130 -262144 0 0;
#X obj 324 155 s \$0-offset-set;
#X floatatom 167 2 2 2 64 0 - #0-off-set #0-off;
#X obj 248 286 r \$0-max;
#X msg 248 308 label max:\$1;
#X obj 248 330 s \$0-browser-set;
#X obj 203 204 r \$0-off;
#X msg 203 226 label off:\$1;
#X obj 203 248 s \$0-offset-set;
#X obj 96 56 bng 12 250 50 0 \$0-bang_max \$0-bang_max-set + 3 6 0
10 -191407 -1 -262130;
#X obj 381 199 r \$0-bang_max;
#X obj 381 221 f;
#X obj 381 243 + 1;
#X obj 381 265 % 64;
#X obj 381 287 / 64;
#X obj 381 309 s \$0-browser-set;
#X obj 425 249 r \$0-max;
#X obj 96 70 bng 12 250 50 0 \$0-bang_off \$0-bang_off-set + 3 6 0
10 -191407 -1 -262130;
#X obj 504 225 f;
#X obj 504 247 + 1;
#X obj 504 269 % 64;
#X obj 504 291 / 64;
#X obj 504 203 r \$0-bang_off;
#X obj 548 253 r \$0-off;
#X obj 504 313 s \$0-offset-set;
#X connect 5 0 6 0;
#X connect 11 0 12 0;
#X connect 13 0 14 0;
#X connect 15 0 16 0;
#X connect 15 0 18 0;
#X connect 15 0 20 0;
#X connect 16 0 17 0;
#X connect 18 0 19 0;
#X connect 18 0 22 0;
#X connect 24 0 25 0;
#X connect 25 0 26 0;
#X connect 27 0 28 0;
#X connect 28 0 29 0;
#X connect 31 0 32 0;
#X connect 32 0 33 0;
#X connect 33 0 34 0;
#X connect 34 0 35 0;
#X connect 35 0 36 0;
#X connect 37 0 32 1;
#X connect 39 0 40 0;
#X connect 40 0 41 0;
#X connect 41 0 42 0;
#X connect 42 0 45 0;
#X connect 43 0 39 0;
#X connect 44 0 39 1;
#X coords 0 -1 1 1 90 64 1 20 20;
