#N canvas 216 59 383 445 10;
#X obj 131 43 inlet;
#X obj 131 66 s \$0-msg;
#X obj 25 36 hsl 62 17 0 1 0 0 \$0-browser_length \$0-browser_length-set
empty -2 -8 0 10 -191407 -262130 -1 590 1;
#X floatatom 93 36 2 2 64 0 - #0-length-set #0-length;
#X obj 25 55 hsl 62 17 0 1 0 0 \$0-browser_beats \$0-browser_beats-set
empty -2 -8 0 10 -191407 -262130 -1 295 1;
#X obj 25 74 hsl 62 17 0 1 0 0 \$0-browser_offset \$0-browser_offset-set
empty -2 -8 0 10 -191407 -262130 -1 0 1;
#X floatatom 93 56 2 2 64 0 - #0-beats-set #0-beats;
#X floatatom 93 75 2 2 64 0 - #0-offset-set #0-offset;
#X obj 96 22 bng 12 250 50 0 \$0-reset \$0-reset-set empty 17 7 0 10
-228856 -262144 -128992;
#N canvas 282 181 478 403 controls 0;
#X obj 23 25 r \$0-browser_length;
#X obj 23 71 + 0.5;
#X obj 23 94 i;
#X obj 23 117 + 2;
#X obj 23 48 * 62;
#X obj 23 140 s \$0-length-set;
#X obj 163 71 + 0.5;
#X obj 163 94 i;
#X obj 163 48 * 62;
#X obj 303 71 + 0.5;
#X obj 303 94 i;
#X obj 163 25 r \$0-browser_beats;
#X obj 303 25 r \$0-browser_offset;
#X obj 163 140 s \$0-beats-set;
#X obj 303 140 s \$0-offset-set;
#X obj 303 48 * 64;
#X obj 54 203 r \$0-reset;
#X msg 47 278 8;
#X obj 47 323 / 62;
#X obj 47 349 s \$0-browser_length-set;
#X obj 47 300 - 2;
#X msg 80 280 3;
#X obj 80 303 / 62;
#X obj 80 326 s \$0-browser_beats-set;
#X msg 112 280 0;
#X obj 112 303 s \$0-browser_offset-set;
#X obj 212 209 r \$1-init;
#X obj 212 232 s \$0-reset-set;
#X connect 0 0 4 0;
#X connect 1 0 2 0;
#X connect 2 0 3 0;
#X connect 3 0 5 0;
#X connect 4 0 1 0;
#X connect 6 0 7 0;
#X connect 7 0 13 0;
#X connect 8 0 6 0;
#X connect 9 0 10 0;
#X connect 10 0 14 0;
#X connect 11 0 8 0;
#X connect 12 0 15 0;
#X connect 15 0 9 0;
#X connect 16 0 17 0;
#X connect 16 0 21 0;
#X connect 16 0 24 0;
#X connect 17 0 20 0;
#X connect 18 0 19 0;
#X connect 20 0 18 0;
#X connect 21 0 22 0;
#X connect 22 0 23 0;
#X connect 24 0 25 0;
#X connect 26 0 27 0;
#X restore 124 16 pd controls;
#X obj 141 128 r \$0-msg;
#X obj 141 151 route bang;
#X obj 203 176 r \$0-length;
#X obj 141 174 f;
#X obj 141 197 + 1;
#X obj 141 220 %;
#X obj 141 243 +;
#X obj 208 226 r \$0-offset;
#X obj 141 266 *;
#X obj 215 257 r \$0-beats;
#X obj 141 289 %;
#X obj 141 312 <;
#X obj 141 335 sel 1;
#X obj 141 358 outlet;
#X connect 0 0 1 0;
#X connect 10 0 11 0;
#X connect 11 0 13 0;
#X connect 12 0 15 1;
#X connect 12 0 20 1;
#X connect 13 0 14 0;
#X connect 14 0 15 0;
#X connect 15 0 13 1;
#X connect 15 0 16 0;
#X connect 16 0 18 0;
#X connect 17 0 16 1;
#X connect 18 0 20 0;
#X connect 19 0 18 1;
#X connect 19 0 21 1;
#X connect 20 0 21 0;
#X connect 21 0 22 0;
#X connect 22 0 23 0;
#X coords 0 -1 1 1 90 73 1 20 20;
