#N canvas 197 159 1373 848 12;
#X declare -path ../0.beemo;
#X declare -path ../0.beemo/cadsr;
#X declare -path ../0.beemo/objects;
#X declare -path ../0.beemo/wf515;
#X declare -path ../0.beemo/tuning;
#X declare -path ../0.beemo/presets;
#X declare -path ../lib;
#X declare -lib cyclone;
#X declare -path objects;
#X declare -path ../0.beemo/mod_cartridge;
#X obj 447 375 output~;
#N canvas 0 59 889 545 declarations_and_misc 0;
#X obj 27 16 declare -path ../0.beemo;
#X obj 27 41 declare -path ../0.beemo/cadsr;
#X obj 27 66 declare -path ../0.beemo/objects;
#X obj 27 91 declare -path ../0.beemo/wf515;
#X obj 27 116 declare -path ../0.beemo/tuning;
#X obj 27 141 declare -path ../0.beemo/presets;
#X obj 27 246 declare -path ../lib;
#X obj 27 271 declare -lib cyclone;
#X obj 269 155 text define -k modes;
#A set ionian 0 2 4 5 7 9 11 12 \; dorian 0 2 3 5 7 9 10 12 \; phrygian
0 1 3 5 7 8 10 12 \; lydian 0 2 4 6 7 9 11 12 \; mixolydian 0 2 4 5
7 9 10 12 \; aeolian 0 2 3 5 7 8 10 12 \; locrian 0 1 3 5 6 8 10 12
\; harm_major 0 2 4 5 7 8 11 12 \; dorian_b5 0 2 3 5 6 9 10 12 \; phrygian_b4
0 1 3 4 7 8 10 12 \; lydian_b3 0 2 3 6 7 9 11 12 \; mixolydian_b2 0
1 4 5 7 9 10 12 \; aeolian_b1 0 3 4 6 8 9 11 12 \; locrian_b7 0 1 3
5 6 8 9 12 \; harm_minor 0 2 3 5 7 8 11 12 \; locrian_H6 0 1 3 5 6
9 10 12 \; ionian_H5 0 2 4 5 8 9 11 12 \; dorian_H4 0 2 3 6 7 9 10
12 \; phrygian_H3 0 1 4 5 7 8 10 12 \; lydian_H2 0 3 4 6 7 9 11 12
\; mixolydian_H1 0 1 3 4 6 8 9 12 \; mel_minor 0 2 3 5 7 9 11 12 \;
dorian_b2 0 1 3 5 7 9 10 12 \; lydian_H5 0 2 4 6 8 9 11 12 \; lydian_b7
0 2 4 6 7 9 10 12 \; mixolydian_b6 0 2 4 5 7 8 10 12 \; locrian_H2
0 2 3 5 6 8 10 12 \; locrian_b4 0 1 3 4 6 8 10 12 \;;
#X msg 301 128 read m28.txt;
#X obj 386 34 loadbang;
#X obj 386 59 s \$0-init-set;
#X obj 201 16 declare -path objects;
#X obj 27 167 declare -path ../0.beemo/mod_cartridge;
#X obj 249 228 text define -k \$0-score;
#A set 0 1 2 3 4 5 6 7 1 2 3 4 5 6 7 2 3 4 5 6 7 3 4 5 6 7 4 5 6 7
5 6 7 6 7 \; 7 6 5 4 3 2 1 0 6 5 4 3 2 1 0 5 4 3 2 1 0 4 3 2 1 0 3
2 1 0 2 1 0 1 0 \; 1 2 3 4 5 6 7 0 2 3 4 5 6 7 0 3 4 5 6 7 0 4 5 6
7 0 5 6 7 0 6 7 0 7 0 \; 0 7 6 5 4 3 2 1 7 6 5 4 3 2 1 6 5 4 3 2 1
5 4 3 2 1 4 3 2 1 3 2 1 2 1 \;;
#X obj 281 206 r \$0-SCORE;
#X connect 9 0 8 0;
#X connect 10 0 11 0;
#X connect 15 0 14 0;
#X restore 1426 178 pd declarations_and_misc;
#X obj 244 356 mix~ \$0 0;
#X obj 914 45 mod_cart \$0;
#N canvas 113 147 450 300 m28 0;
#X restore 1428 83 pd m28;
#N canvas 92 99 612 233 metros 0;
#X obj 54 96 metro;
#X obj 77 71 r \$0-ms0;
#X obj 54 45 r \$0-m_toggle0;
#X obj 164 98 metro;
#X obj 164 47 r \$0-m_toggle1;
#X obj 187 73 r \$0-ms1;
#X obj 274 98 metro;
#X obj 384 94 metro;
#X obj 274 47 r \$0-m_toggle2;
#X obj 297 73 r \$0-ms2;
#X obj 384 43 r \$0-m_toggle3;
#X obj 407 69 r \$0-ms3;
#X obj 54 121 s \$0-bang0-set;
#X obj 164 123 s \$0-bang1-set;
#X obj 274 123 s \$0-bang2-set;
#X obj 384 119 s \$0-bang3-set;
#X connect 0 0 12 0;
#X connect 1 0 0 1;
#X connect 2 0 0 0;
#X connect 3 0 13 0;
#X connect 4 0 3 0;
#X connect 5 0 3 1;
#X connect 6 0 14 0;
#X connect 7 0 15 0;
#X connect 8 0 6 0;
#X connect 9 0 6 1;
#X connect 10 0 7 0;
#X connect 11 0 7 1;
#X restore 1424 108 pd metros;
#N canvas 224 59 1055 780 sequencer 0;
#X obj 582 94 sel 0 1;
#X msg 582 119 0 1;
#X msg 622 119 1 0;
#X obj 582 144 unpack 0 0;
#X obj 417 164 text get \$0-score;
#X obj 774 164 text get \$0-score;
#X obj 417 189 t l l;
#X obj 774 189 t l l;
#X obj 509 221 list length;
#X obj 642 218 list length;
#X obj 393 270 r \$0-bang0;
#X obj 503 270 r \$0-bang1;
#X obj 643 270 r \$0-bang2;
#X obj 753 270 r \$0-bang3;
#X obj 393 295 f;
#X obj 393 320 + 1;
#X obj 393 345 %;
#X obj 393 370 map;
#X obj 373 395 sel 0;
#X obj 505 295 f;
#X obj 505 320 + 1;
#X obj 505 345 %;
#X obj 505 370 map;
#X obj 485 395 sel 0;
#X obj 643 295 f;
#X obj 643 320 + 1;
#X obj 643 345 %;
#X obj 643 370 map;
#X obj 623 395 sel 0;
#X obj 755 295 f;
#X obj 755 320 + 1;
#X obj 755 345 %;
#X obj 755 370 map;
#X obj 735 395 sel 0;
#X obj 371 486 +;
#X obj 483 486 +;
#X obj 621 486 +;
#X obj 733 486 +;
#X obj 230 466 r \$0-midi_pitch;
#X floatatom 411 451 5 0 0 0 - - -;
#X floatatom 523 451 5 0 0 0 - - -;
#X floatatom 661 451 5 0 0 0 - - -;
#X floatatom 773 451 5 0 0 0 - - -;
#X msg 940 275 0;
#X obj 371 541 pack 0 0;
#X obj 503 541 pack 0 0;
#X obj 641 541 pack 0 0;
#X obj 773 541 pack 0 0;
#X msg 371 566 \$1 80 \$2;
#X msg 503 566 \$1 80 \$2;
#X msg 641 566 \$1 80 \$2;
#X msg 773 566 \$1 80 \$2;
#X obj 417 504 * 0.9;
#X obj 537 504 * 0.91;
#X obj 657 504 * 0.89;
#X obj 777 504 * 0.9;
#X obj 371 591 s \$0-midi_note0;
#X obj 503 591 s \$0-midi_note1;
#X obj 641 591 s \$0-midi_note2;
#X obj 773 591 s \$0-midi_note3;
#X obj 586 42 r \$0-score_board;
#X obj 417 479 r \$0-ms0;
#X obj 537 479 r \$0-ms1;
#X obj 657 479 r \$0-ms2;
#X obj 777 479 r \$0-ms3;
#X obj 580 70 t f b b;
#X obj 704 86 text size \$0-score;
#X obj 704 136 s \$0-score_board-set;
#X msg 704 111 number \$1;
#X obj 309 426 tabread \$0-m0_table;
#X obj 471 426 tabread \$0-m1_table;
#X obj 649 426 tabread \$0-m2_table;
#X obj 831 426 tabread \$0-m3_table;
#X connect 0 0 1 0;
#X connect 0 1 2 0;
#X connect 1 0 3 0;
#X connect 2 0 3 0;
#X connect 3 0 4 0;
#X connect 3 1 5 0;
#X connect 4 0 6 0;
#X connect 5 0 7 0;
#X connect 6 0 17 1;
#X connect 6 0 22 1;
#X connect 6 1 8 0;
#X connect 7 0 32 1;
#X connect 7 0 27 1;
#X connect 7 1 9 0;
#X connect 8 0 16 1;
#X connect 8 0 21 1;
#X connect 9 0 31 1;
#X connect 9 0 26 1;
#X connect 10 0 14 0;
#X connect 11 0 19 0;
#X connect 12 0 24 0;
#X connect 13 0 29 0;
#X connect 14 0 15 0;
#X connect 15 0 16 0;
#X connect 16 0 14 1;
#X connect 16 0 17 0;
#X connect 17 0 18 0;
#X connect 18 1 69 0;
#X connect 19 0 20 0;
#X connect 20 0 21 0;
#X connect 21 0 19 1;
#X connect 21 0 22 0;
#X connect 22 0 23 0;
#X connect 23 1 70 0;
#X connect 24 0 25 0;
#X connect 25 0 26 0;
#X connect 26 0 24 1;
#X connect 26 0 27 0;
#X connect 27 0 28 0;
#X connect 28 1 71 0;
#X connect 29 0 30 0;
#X connect 30 0 31 0;
#X connect 31 0 29 1;
#X connect 31 0 32 0;
#X connect 32 0 33 0;
#X connect 33 1 72 0;
#X connect 34 0 39 0;
#X connect 34 0 44 0;
#X connect 35 0 40 0;
#X connect 35 0 45 0;
#X connect 36 0 41 0;
#X connect 36 0 46 0;
#X connect 37 0 42 0;
#X connect 37 0 47 0;
#X connect 38 0 34 1;
#X connect 38 0 37 1;
#X connect 38 0 36 1;
#X connect 38 0 35 1;
#X connect 43 0 29 1;
#X connect 43 0 24 1;
#X connect 43 0 19 1;
#X connect 43 0 14 1;
#X connect 44 0 48 0;
#X connect 45 0 49 0;
#X connect 46 0 50 0;
#X connect 47 0 51 0;
#X connect 48 0 56 0;
#X connect 49 0 57 0;
#X connect 50 0 58 0;
#X connect 51 0 59 0;
#X connect 52 0 44 1;
#X connect 53 0 45 1;
#X connect 54 0 46 1;
#X connect 55 0 47 1;
#X connect 60 0 65 0;
#X connect 61 0 52 0;
#X connect 62 0 53 0;
#X connect 63 0 54 0;
#X connect 64 0 55 0;
#X connect 65 0 0 0;
#X connect 65 1 43 0;
#X connect 65 2 66 0;
#X connect 66 0 68 0;
#X connect 68 0 67 0;
#X connect 69 0 34 0;
#X connect 70 0 35 0;
#X connect 71 0 36 0;
#X connect 72 0 37 0;
#X restore 1425 133 pd sequencer;
#X obj 338 356 mix~ \$0 1;
#X obj 898 173 bng 32 250 50 0 \$0-init \$0-init-set empty 17 7 0 10
-262144 -1 -1;
#X obj 246 42 synth~ \$0 0 6;
#X obj 246 241 synth~ \$0 1 6;
#N canvas 1112 196 798 712 BOOKKEEPING 1;
#X obj 54 117 serialize, f 20;
#X obj 46 319 parallelize, f 25;
#X obj 92 179 + 1;
#X obj 92 204 % 8;
#X obj 46 344 print;
#X msg 54 32 7 6 5 4 3 2 1 0 6 5 4 3 2 1 0 5 4 3 2 1 0 4 3 2 1 0 3
2 1 0 2 1 0 1 0 \;;
#X msg 266 100 clip 0 \, amp 0.7 \, allpass-gain 0.21 \, allpass-delay
0.325 \, pan 0.89, f 21;
#X obj 267 236 s \$0-msg;
#X obj 266 210 list trim;
#X obj 266 185 list prepend mixer 0;
#X msg 445 95 clip 0 \, amp 0.7 \, allpass-gain 0.27 \, allpass-delay
0.51 \, pan 0.12, f 21;
#X obj 445 180 list prepend mixer 1;
#X obj 377 249 r \$0-init;
#X obj 456 248 loadbang;
#X obj 456 273 s \$0-init-set;
#X obj 377 274 f \$0;
#X obj 594 237 del 40;
#X obj 68 428 text define -k \$0-speed_history;
#A set 7 8 0 1 \; 6 7 1 2 \; 5 6 2 3 \; 4 5 3 4 \; 3 4 4 5 \; 2 3 5
6 \; 1 2 6 7 \; 0 1 7 8 \; 0 1 2 3 \; 1 2 3 4 \; 2 3 4 5 \; 3 4 5 6
\; 4 5 6 7 \; 5 6 7 8 \; 8 7 6 5 \; 7 6 5 4 \; 6 5 4 3 \; 5 4 3 2 \;
4 3 2 1 \; 3 2 1 0 \; 6 4 4 2 \; 6 3 5 2 \; 1 2 6 7 \; 0 1 7 8 \; 6
1 8 3 \; 6 0 8 2 \;;
#X obj 83 403 r \$0-SPEED_HISTORY;
#X msg 377 299 - \; \$1-midi_pitch-set 60 \; \$1-bpm-set 120 \; \$1-difference-set
0.125 \; \$1-mod_ms0-set 4 \; \$1-mod_ms1-set 4 \; \$1-mod_ms2-set
4 \; \$1-mod_ms3-set 4 \; \$1-score_board-set 0 \; \$1-ma_set 6 \;
;
#X connect 0 0 1 0;
#X connect 0 1 2 0;
#X connect 0 2 1 2;
#X connect 1 0 4 0;
#X connect 2 0 3 0;
#X connect 3 0 1 1;
#X connect 5 0 0 0;
#X connect 6 0 9 0;
#X connect 8 0 7 0;
#X connect 9 0 8 0;
#X connect 10 0 11 0;
#X connect 11 0 8 0;
#X connect 12 0 15 0;
#X connect 12 0 16 0;
#X connect 13 0 14 0;
#X connect 13 0 16 0;
#X connect 15 0 19 0;
#X connect 16 0 10 0;
#X connect 16 0 6 0;
#X connect 18 0 17 0;
#X restore 1425 156 pd BOOKKEEPING;
#N canvas 559 59 918 673 clock 0;
#X obj 672 827;
#N canvas 0 59 1270 940 conversion 0;
#X obj 80 123 loadbang;
#X obj 87 255 expr 60000 / $f1;
#X obj 199 157 r \$0-difference;
#X obj 83 166 r \$0-bpm;
#X obj 26 599 s \$0-ms0-set;
#X obj 172 331 +;
#X obj 212 326 +;
#X obj 278 317 +;
#X obj 84 195 f;
#X obj 84 220 t f b;
#X obj 199 182 t b f;
#X obj 230 225 f;
#X obj 246 327 * 2;
#X obj 310 316 * 3;
#X msg 54 325 8 4 3 2 1 0.5 0.333333 0.25 0.125, f 13;
#X obj 26 505 t f b;
#X obj 72 505 map;
#X obj 57 540 f;
#X obj 26 570 *;
#X obj 266 505 t f b;
#X obj 312 505 map;
#X obj 297 540 f;
#X obj 266 570 *;
#X obj 406 505 t f b;
#X obj 452 505 map;
#X obj 437 540 f;
#X obj 406 570 *;
#X obj 553 505 t f b;
#X obj 599 505 map;
#X obj 584 540 f;
#X obj 553 570 *;
#X obj 266 599 s \$0-ms1-set;
#X obj 406 599 s \$0-ms2-set;
#X obj 553 599 s \$0-ms3-set;
#X obj 406 393 r \$0-mod_ms2;
#X obj 246 413 r \$0-mod_ms1;
#X obj 44 408 r \$0-mod_ms0;
#X obj 44 433 t b f;
#X obj 246 438 t b f;
#X obj 406 418 t b f;
#X obj 543 428 t b f;
#X obj 136 603 s \$0-bpm;
#X obj 379 338 s \$0-mod_ms0-set;
#X msg 410 224 4;
#X obj 390 315 s \$0-mod_ms1-set;
#X obj 397 291 s \$0-mod_ms2-set;
#X obj 401 265 s \$0-mod_ms3-set;
#X obj 552 153 r \$0-ms0;
#X obj 552 178 expr 60000 / $f1;
#X obj 682 178 expr 60000 / $f1;
#X obj 552 298 expr 60000 / $f1;
#X obj 682 298 expr 60000 / $f1;
#X obj 552 273 r \$0-ms1;
#X obj 682 153 r \$0-ms2;
#X obj 682 273 r \$0-ms3;
#X obj 552 233 s \$0-bpm0-set;
#X obj 552 353 s \$0-bpm1-set;
#X obj 682 233 s \$0-bpm2-set;
#X obj 682 353 s \$0-bpm3-set;
#X msg 552 203 set \$1;
#X msg 682 203 set \$1;
#X msg 552 323 set \$1;
#X msg 682 323 set \$1;
#X obj 537 390 r \$0-mod_ms3;
#X obj 372 170 r \$0-mod_ms_all;
#X obj 841 509 move_speed \$0 mod_ms0;
#X obj 841 539 move_speed \$0 mod_ms2;
#X obj 841 569 move_speed \$0 mod_ms1;
#X obj 841 599 move_speed \$0 mod_ms3;
#X obj 422 84 r \$0-speed;
#X obj 422 109 unpack 0 0 0 0;
#X connect 0 0 14 0;
#X connect 0 0 43 0;
#X connect 1 0 5 0;
#X connect 1 0 6 0;
#X connect 1 0 7 0;
#X connect 1 0 15 0;
#X connect 2 0 10 0;
#X connect 3 0 8 0;
#X connect 5 0 19 0;
#X connect 6 0 23 0;
#X connect 7 0 27 0;
#X connect 8 0 9 0;
#X connect 9 0 1 0;
#X connect 9 1 11 0;
#X connect 10 0 8 0;
#X connect 10 1 11 1;
#X connect 11 0 5 1;
#X connect 11 0 12 0;
#X connect 11 0 13 0;
#X connect 12 0 6 1;
#X connect 13 0 7 1;
#X connect 14 0 16 1;
#X connect 14 0 20 1;
#X connect 14 0 24 1;
#X connect 14 0 28 1;
#X connect 15 0 18 0;
#X connect 15 1 17 0;
#X connect 16 0 17 1;
#X connect 17 0 18 1;
#X connect 18 0 4 0;
#X connect 19 0 22 0;
#X connect 19 1 21 0;
#X connect 20 0 21 1;
#X connect 21 0 22 1;
#X connect 22 0 31 0;
#X connect 23 0 26 0;
#X connect 23 1 25 0;
#X connect 24 0 25 1;
#X connect 25 0 26 1;
#X connect 26 0 32 0;
#X connect 27 0 30 0;
#X connect 27 1 29 0;
#X connect 28 0 29 1;
#X connect 29 0 30 1;
#X connect 30 0 33 0;
#X connect 34 0 39 0;
#X connect 35 0 38 0;
#X connect 36 0 37 0;
#X connect 37 0 41 0;
#X connect 37 1 16 0;
#X connect 38 0 41 0;
#X connect 38 1 20 0;
#X connect 39 0 41 0;
#X connect 39 1 24 0;
#X connect 40 0 41 0;
#X connect 40 1 28 0;
#X connect 43 0 42 0;
#X connect 43 0 44 0;
#X connect 43 0 46 0;
#X connect 43 0 45 0;
#X connect 47 0 48 0;
#X connect 48 0 59 0;
#X connect 49 0 60 0;
#X connect 50 0 61 0;
#X connect 51 0 62 0;
#X connect 52 0 50 0;
#X connect 53 0 49 0;
#X connect 54 0 51 0;
#X connect 59 0 55 0;
#X connect 60 0 57 0;
#X connect 61 0 56 0;
#X connect 62 0 58 0;
#X connect 63 0 40 0;
#X connect 64 0 46 0;
#X connect 64 0 45 0;
#X connect 64 0 44 0;
#X connect 64 0 42 0;
#X connect 69 0 70 0;
#X connect 70 0 42 0;
#X connect 70 1 44 0;
#X connect 70 2 45 0;
#X connect 70 3 46 0;
#X restore 89 480 pd conversion;
#X obj 458 102 cnv 15 120 20 empty empty empty 20 12 0 14 -245500 -66577
0;
#X floatatom 527 102 5 0 990 2 bpm #0-bpm-set #0-bpm;
#X floatatom 468 102 0 -10 10 2 ms #0-difference-set #0-difference
;
#X floatatom 468 130 0 0 0 2 - #0-ms0-set #0-ms0;
#X floatatom 468 154 0 0 0 0 - #0-ms1-set #0-ms1;
#X floatatom 468 178 0 0 0 0 - #0-ms2-set #0-ms2;
#X floatatom 468 202 0 0 0 0 - #0-ms3-set #0-ms3;
#X floatatom 527 130 0 0 0 0 - #0-bpm0-set #0-bpm0;
#X floatatom 527 154 0 0 0 0 - #0-bpm1-set #0-bpm1;
#X floatatom 527 178 0 0 0 0 - #0-bpm2-set #0-bpm2;
#X floatatom 527 202 0 0 0 0 - #0-bpm3-set #0-bpm3;
#X obj 111 103 tgl 22 0 \$0-m_toggle0 \$0-m_toggle0-set empty 17 7
0 10 -262144 -1 -1 0 1;
#X obj 135 103 tgl 22 0 \$0-m_toggle1 \$0-m_toggle1-set empty 17 7
0 10 -262144 -1 -1 0 1;
#X obj 111 127 tgl 22 0 \$0-m_toggle2 \$0-m_toggle2-set empty 17 7
0 10 -262144 -1 -1 0 1;
#X obj 135 127 tgl 22 0 \$0-m_toggle3 \$0-m_toggle3-set empty 17 7
0 10 -262144 -1 -1 0 1;
#X obj 63 103 tgl 46 0 \$0-m_toggle_ALL \$0-m_toggle_ALL-set empty
17 7 0 10 -162280 -262144 -1 0 1;
#X obj 63 223 bng 34 250 50 0 \$0-bang0 \$0-bang0-set empty 17 7 0
10 -191407 -262130 -1;
#X obj 100 223 bng 34 250 50 0 \$0-bang1 \$0-bang1-set empty 17 7 0
10 -191407 -262130 -1;
#X obj 137 223 bng 34 250 50 0 \$0-bang2 \$0-bang2-set empty 17 7 0
10 -191407 -262130 -1;
#X obj 174 223 bng 34 250 50 0 \$0-bang3 \$0-bang3-set empty 17 7 0
10 -191407 -262130 -1;
#X msg 73 74 1;
#X obj 228 132 hradio 22 1 0 9 \$0-mod_ms0 \$0-mod_ms0-set empty 0
-8 0 10 -262144 -1 -1 7;
#X obj 228 156 hradio 22 1 0 9 \$0-mod_ms1 \$0-mod_ms1-set empty 0
-8 0 10 -262144 -1 -1 8;
#X obj 228 180 hradio 22 1 0 9 \$0-mod_ms2 \$0-mod_ms2-set empty 0
-8 0 10 -262144 -1 -1 3;
#X obj 228 204 hradio 22 1 0 9 \$0-mod_ms3 \$0-mod_ms3-set empty 0
-8 0 10 -262144 -1 -1 0;
#X obj 228 102 hradio 22 1 0 9 \$0-mod_ms_all \$0-mod_ms_all-set empty
0 -8 0 9 -191407 -262144 -1 6;
#X obj 63 154 hradio 24 1 0 4 \$0-score_board \$0-score_board-set empty
0 -8 0 10 -128992 -262130 -1 1;
#X floatatom 254 282 5 0 0 0 - #0-midi_pitch-set #0-midi_pitch;
#X obj 159 103 bng 22 250 50 0 \$0-reset_sequence \$0-reset_sequence-set
empty 17 7 0 10 -262144 -1 -1;
#X obj 69 283 inlet;
#X obj 69 373 s \$0-midi_pitch-set;
#X obj 428 102 bng 22 250 50 0 \$0-move_up \$0-move_up-set >> 4 11
0 14 -262144 -1 -1;
#X obj 204 102 bng 22 250 50 0 \$0-move_down \$0-move_down-set << 3
11 0 14 -262144 -1 -1;
#X obj 69 308 route pitch speed;
#X obj 95 347 s \$0-speed;
#X obj 440 234 bng 24 250 50 0 \$0-w_speed_history \$0-w_speed_history-set
empty 17 7 0 10 -261234 -1 -1;
#X obj 251 234 hsl 159 24 0 1 0 0 \$0-speed_browser \$0-speed_browser-set
empty -2 -8 0 10 -261234 -128992 -1 0 0;
#X obj 414 234 bng 24 250 50 0 \$0-browser_up \$0-browser_up-set >>
2 12 0 18 -191407 -1 -262144;
#X obj 221 234 bng 24 250 50 0 \$0-browser_down \$0-browser_down-set
<< 2 12 0 18 -191407 -1 -262144;
#N canvas 659 458 640 361 browser 0;
#X obj 271 169 f;
#X obj 299 169 f;
#X obj 327 169 f;
#X obj 355 169 f;
#X obj 271 197 pack 0 0 0 0;
#X obj 271 247 text set \$0-speed_history 1e+06;
#X obj 405 82 r \$0-mod_ms0;
#X obj 409 105 r \$0-mod_ms1;
#X obj 416 127 r \$0-mod_ms2;
#X obj 422 149 r \$0-mod_ms3;
#X obj 275 51 r \$0-w_speed_history;
#X obj 275 76 t b b b b;
#X obj 49 56 r \$0-speed_browser;
#X obj 49 81 t f b;
#X obj 69 107 text size \$0-speed_history;
#X obj 69 132 - 1;
#X obj 49 156 *;
#X obj 49 181 i;
#X obj 49 206 text get \$0-speed_history;
#X obj 49 256 s \$0-speed;
#X connect 0 0 4 0;
#X connect 1 0 4 1;
#X connect 2 0 4 2;
#X connect 3 0 4 3;
#X connect 4 0 5 0;
#X connect 6 0 0 1;
#X connect 7 0 1 1;
#X connect 8 0 2 1;
#X connect 9 0 3 1;
#X connect 10 0 11 0;
#X connect 11 0 0 0;
#X connect 11 1 1 0;
#X connect 11 2 2 0;
#X connect 11 3 3 0;
#X connect 12 0 13 0;
#X connect 13 0 16 0;
#X connect 13 1 14 0;
#X connect 14 0 15 0;
#X connect 15 0 16 1;
#X connect 16 0 17 0;
#X connect 17 0 18 0;
#X connect 18 0 19 0;
#X restore 615 256 pd browser;
#X obj 296 344 r \$0-browser_down;
#X obj 457 343 r \$0-browser_up;
#X obj 296 369 t b b;
#X obj 457 368 t b b;
#X msg 328 395 -1;
#X msg 487 396 1;
#X obj 296 521 f;
#X obj 296 546 +;
#X obj 296 596 /;
#X obj 296 621 s \$0-speed_browser-set;
#X obj 541 539 r \$0-speed_browser;
#X obj 570 411 t f f f;
#X obj 541 564 *;
#X obj 541 589 + 0.5;
#X obj 541 614 i;
#X obj 570 386 text size \$0-speed_history;
#X obj 296 571 mod;
#X connect 17 0 13 0;
#X connect 17 0 16 0;
#X connect 17 0 15 0;
#X connect 17 0 14 0;
#X connect 22 0 17 0;
#X connect 30 0 22 0;
#X connect 31 0 35 0;
#X connect 35 0 32 0;
#X connect 35 1 36 0;
#X connect 42 0 44 0;
#X connect 43 0 45 0;
#X connect 44 0 48 0;
#X connect 44 1 46 0;
#X connect 44 1 57 0;
#X connect 45 0 48 0;
#X connect 45 1 47 0;
#X connect 45 1 57 0;
#X connect 46 0 49 1;
#X connect 47 0 49 1;
#X connect 48 0 49 0;
#X connect 49 0 58 0;
#X connect 50 0 51 0;
#X connect 52 0 54 0;
#X connect 53 0 58 1;
#X connect 53 1 50 1;
#X connect 53 2 54 1;
#X connect 54 0 55 0;
#X connect 55 0 56 0;
#X connect 56 0 48 1;
#X connect 57 0 53 0;
#X connect 58 0 50 0;
#X coords 0 -1 1 1 522 160 2 60 100;
#X restore 560 467 pd clock;
#X obj 581 155 m_28 \$0 m0 #fcdcc8 #f9f9f9 #9c9c9c;
#X obj 371 155 m_28 \$0 m1 #fcdcc8 #f9f9f9;
#X obj 686 155 m_28 \$0 m2 #fcdcc8 #f9f9f9;
#X obj 476 155 m_28 \$0 m3 #fcdcc8 #f9f9f9;
#X obj 791 155 m_28_all \$0 ma #eef8a9 #b9b9b9;
#X msg 630 367 48;
#X msg 564 367 36;
#X msg 597 367 43;
#X msg 565 391 55;
#X msg 598 391 60;
#X msg 631 391 67;
#X msg 566 414 72;
#X msg 599 414 79;
#X msg 632 414 84;
#X msg 564 442 pitch \$1;
#X msg 674 366 speed 7 8 0 1;
#X obj 1228 229 r \$0-msg;
#X obj 1228 254 print;
#X text 1055 230 mod_oc \; mod_ra \; mod_rb \; mod_bc \; mod_wf \;
mod_tf;
#X msg 1145 363 cast_spot \$0 0 mod_wf 0;
#X obj 946 282 cast_spot \$0 0 mod_wf 0;
#X obj 947 227 cast_spot \$0 1 mod_wf 1;
#X obj 947 173 cast_spot \$0 0 mod_tf 0;
#X obj 1047 175 cast_spot \$0 1 mod_ra 1;
#X obj 254 199 r \$0-midi_note0;
#X obj 252 175 r \$0-midi_note3;
#X obj 254 221 r \$0-midi_note1;
#X obj 252 153 r \$0-midi_note2;
#X connect 2 0 0 0;
#X connect 2 1 0 1;
#X connect 7 0 0 0;
#X connect 7 1 0 1;
#X connect 9 0 2 0;
#X connect 10 0 7 0;
#X connect 18 0 27 0;
#X connect 19 0 27 0;
#X connect 20 0 27 0;
#X connect 21 0 27 0;
#X connect 22 0 27 0;
#X connect 23 0 27 0;
#X connect 24 0 27 0;
#X connect 25 0 27 0;
#X connect 26 0 27 0;
#X connect 27 0 12 0;
#X connect 28 0 12 0;
#X connect 29 0 30 0;
#X connect 37 0 9 0;
#X connect 38 0 10 0;
#X connect 39 0 9 0;
#X connect 40 0 10 0;
