#N canvas 318 105 2175 899 12;
#X declare -path ../0.beemo;
#X declare -path ../0.beemo/cadsr;
#X declare -path ../0.beemo/objects;
#X declare -path ../0.beemo/wf515;
#X declare -path ../0.beemo/tuning;
#X declare -path ../0.beemo/presets;
#X declare -path ../lib;
#X declare -lib cyclone;
#X declare -path objects;
#X declare -path ../0.beemo/mod_cartridge;
#X obj 283 802 output~;
#N canvas 0 59 569 339 declarations_and_misc 0;
#X obj 27 16 declare -path ../0.beemo;
#X obj 27 41 declare -path ../0.beemo/cadsr;
#X obj 27 66 declare -path ../0.beemo/objects;
#X obj 27 91 declare -path ../0.beemo/wf515;
#X obj 27 116 declare -path ../0.beemo/tuning;
#X obj 27 141 declare -path ../0.beemo/presets;
#X obj 27 246 declare -path ../lib;
#X obj 27 271 declare -lib cyclone;
#X obj 269 155 text define -k modes;
#A set ionian 0 2 4 5 7 9 11 12 \; dorian 0 2 3 5 7 9 10 12 \; phrygian
0 1 3 5 7 8 10 12 \; lydian 0 2 4 6 7 9 11 12 \; mixolydian 0 2 4 5
7 9 10 12 \; aeolian 0 2 3 5 7 8 10 12 \; locrian 0 1 3 5 6 8 10 12
\; harm_major 0 2 4 5 7 8 11 12 \; dorian_b5 0 2 3 5 6 9 10 12 \; phrygian_b4
0 1 3 4 7 8 10 12 \; lydian_b3 0 2 3 6 7 9 11 12 \; mixolydian_b2 0
1 4 5 7 9 10 12 \; aeolian_b1 0 3 4 6 8 9 11 12 \; locrian_b7 0 1 3
5 6 8 9 12 \; harm_minor 0 2 3 5 7 8 11 12 \; locrian_H6 0 1 3 5 6
9 10 12 \; ionian_H5 0 2 4 5 8 9 11 12 \; dorian_H4 0 2 3 6 7 9 10
12 \; phrygian_H3 0 1 4 5 7 8 10 12 \; lydian_H2 0 3 4 6 7 9 11 12
\; mixolydian_H1 0 1 3 4 6 8 9 12 \; mel_minor 0 2 3 5 7 9 11 12 \;
dorian_b2 0 1 3 5 7 9 10 12 \; lydian_H5 0 2 4 6 8 9 11 12 \; lydian_b7
0 2 4 6 7 9 10 12 \; mixolydian_b6 0 2 4 5 7 8 10 12 \; locrian_H2
0 2 3 5 6 8 10 12 \; locrian_b4 0 1 3 4 6 8 10 12 \;;
#X msg 301 128 read m28.txt;
#X obj 386 34 loadbang;
#X obj 386 59 s \$0-init-set;
#X obj 201 16 declare -path objects;
#X obj 27 167 declare -path ../0.beemo/mod_cartridge;
#X connect 9 0 8 0;
#X connect 10 0 11 0;
#X restore 1039 311 pd declarations_and_misc;
#X obj 80 783 mix~ \$0 0;
#X obj 285 54 mod_cart \$0;
#X obj 182 48 tgl 22 0 \$0-m_toggle0 \$0-m_toggle0-set empty 17 7 0
10 -262144 -1 -1 0 1;
#X obj 206 48 tgl 22 0 \$0-m_toggle1 \$0-m_toggle1-set empty 17 7 0
10 -262144 -1 -1 0 1;
#X obj 230 48 tgl 22 0 \$0-m_toggle2 \$0-m_toggle2-set empty 17 7 0
10 -262144 -1 -1 0 1;
#X obj 251 48 tgl 22 0 \$0-m_toggle3 \$0-m_toggle3-set empty 17 7 0
10 -262144 -1 -1 0 1;
#X obj 104 99 M28 \$0;
#N canvas 0 59 450 300 m28 0;
#X obj 51 79 r \$0-MODE;
#X obj 51 104 s \$0-mode;
#X obj 50 127 array define -k -yrange 0 12 \$0-mode 7;
#A 0 0 2 3 5 7 9 10;
#X f 14;
#X connect 0 0 1 0;
#X restore 1117 357 pd m28;
#X obj 134 48 tgl 46 0 \$0-m_toggle_ALL \$0-m_toggle_ALL-set empty
17 7 0 10 -162280 -262144 -1 0 1;
#X obj 182 72 bng 22 250 50 0 \$0-bang0 \$0-bang0-set empty 17 7 0
10 -191407 -262130 -1;
#X obj 206 72 bng 22 250 50 0 \$0-bang1 \$0-bang1-set empty 17 7 0
10 -191407 -262130 -1;
#X obj 230 72 bng 22 250 50 0 \$0-bang2 \$0-bang2-set empty 17 7 0
10 -191407 -262130 -1;
#X obj 251 72 bng 22 250 50 0 \$0-bang3 \$0-bang3-set empty 17 7 0
10 -191407 -262130 -1;
#X floatatom 63 122 5 0 0 0 - #0-midi_pitch-set #0-midi_pitch;
#X obj 1043 287 text define -k \$0-score;
#A set 0 1 2 3 4 5 6 7 1 2 3 4 5 6 7 2 3 4 5 6 7 3 4 5 6 7 4 5 6 7
5 6 7 6 7 \; 7 6 5 4 3 2 1 0 6 5 4 3 2 1 0 5 4 3 2 1 0 4 3 2 1 0 3
2 1 0 2 1 0 1 0 \;;
#X obj 1075 265 r \$0-SCORE;
#N canvas 92 99 612 233 metros 0;
#X obj 54 96 metro;
#X obj 77 71 r \$0-ms0;
#X obj 54 45 r \$0-m_toggle0;
#X obj 164 98 metro;
#X obj 164 47 r \$0-m_toggle1;
#X obj 187 73 r \$0-ms1;
#X obj 274 98 metro;
#X obj 384 94 metro;
#X obj 274 47 r \$0-m_toggle2;
#X obj 297 73 r \$0-ms2;
#X obj 384 43 r \$0-m_toggle3;
#X obj 407 69 r \$0-ms3;
#X obj 54 121 s \$0-bang0-set;
#X obj 164 123 s \$0-bang1-set;
#X obj 274 123 s \$0-bang2-set;
#X obj 384 119 s \$0-bang3-set;
#X connect 0 0 12 0;
#X connect 1 0 0 1;
#X connect 2 0 0 0;
#X connect 3 0 13 0;
#X connect 4 0 3 0;
#X connect 5 0 3 1;
#X connect 6 0 14 0;
#X connect 7 0 15 0;
#X connect 8 0 6 0;
#X connect 9 0 6 1;
#X connect 10 0 7 0;
#X connect 11 0 7 1;
#X restore 1113 382 pd metros;
#X obj 80 305 synth~ \$0 0;
#X obj 52 145 hradio 24 1 0 2 \$0-score_board \$0-score_board-set empty
0 -8 0 10 -262144 -1 -1 0;
#N canvas 213 59 1055 780 sequencer 0;
#X obj 582 94 sel 0 1;
#X msg 582 119 0 1;
#X msg 622 119 1 0;
#X obj 582 144 unpack 0 0;
#X obj 417 164 text get \$0-score;
#X obj 774 164 text get \$0-score;
#X obj 417 189 t l l;
#X obj 774 189 t l l;
#X obj 509 221 list length;
#X obj 642 218 list length;
#X obj 393 270 r \$0-bang0;
#X obj 503 270 r \$0-bang1;
#X obj 643 270 r \$0-bang2;
#X obj 753 270 r \$0-bang3;
#X obj 393 295 f;
#X obj 393 320 + 1;
#X obj 393 345 %;
#X obj 393 370 map;
#X obj 373 395 sel 0;
#X obj 371 421 tabread \$0-mode;
#X obj 505 295 f;
#X obj 505 320 + 1;
#X obj 505 345 %;
#X obj 505 370 map;
#X obj 485 395 sel 0;
#X obj 483 421 tabread \$0-mode;
#X obj 643 295 f;
#X obj 643 320 + 1;
#X obj 643 345 %;
#X obj 643 370 map;
#X obj 623 395 sel 0;
#X obj 621 421 tabread \$0-mode;
#X obj 755 295 f;
#X obj 755 320 + 1;
#X obj 755 345 %;
#X obj 755 370 map;
#X obj 735 395 sel 0;
#X obj 733 421 tabread \$0-mode;
#X obj 371 486 +;
#X obj 483 486 +;
#X obj 621 486 +;
#X obj 733 486 +;
#X obj 230 466 r \$0-midi_pitch;
#X floatatom 411 451 5 0 0 0 - - -;
#X floatatom 523 451 5 0 0 0 - - -;
#X floatatom 661 451 5 0 0 0 - - -;
#X floatatom 773 451 5 0 0 0 - - -;
#X obj 580 70 t f b;
#X msg 903 275 0;
#X obj 371 541 pack 0 0;
#X obj 503 541 pack 0 0;
#X obj 641 541 pack 0 0;
#X obj 773 541 pack 0 0;
#X msg 371 566 \$1 80 \$2;
#X msg 503 566 \$1 80 \$2;
#X msg 641 566 \$1 80 \$2;
#X msg 773 566 \$1 80 \$2;
#X obj 417 504 * 0.9;
#X obj 537 504 * 0.91;
#X obj 657 504 * 0.89;
#X obj 777 504 * 0.9;
#X obj 371 591 s \$0-midi_note0;
#X obj 503 591 s \$0-midi_note1;
#X obj 641 591 s \$0-midi_note2;
#X obj 773 591 s \$0-midi_note3;
#X obj 586 42 r \$0-score_board;
#X obj 417 479 r \$0-ms0;
#X obj 537 479 r \$0-ms1;
#X obj 657 479 r \$0-ms2;
#X obj 777 479 r \$0-ms3;
#X connect 0 0 1 0;
#X connect 0 1 2 0;
#X connect 1 0 3 0;
#X connect 2 0 3 0;
#X connect 3 0 4 0;
#X connect 3 1 5 0;
#X connect 4 0 6 0;
#X connect 5 0 7 0;
#X connect 6 0 17 1;
#X connect 6 0 23 1;
#X connect 6 1 8 0;
#X connect 7 0 35 1;
#X connect 7 0 29 1;
#X connect 7 1 9 0;
#X connect 8 0 16 1;
#X connect 8 0 22 1;
#X connect 9 0 34 1;
#X connect 9 0 28 1;
#X connect 10 0 14 0;
#X connect 11 0 20 0;
#X connect 12 0 26 0;
#X connect 13 0 32 0;
#X connect 14 0 15 0;
#X connect 15 0 16 0;
#X connect 16 0 14 1;
#X connect 16 0 17 0;
#X connect 17 0 18 0;
#X connect 18 1 19 0;
#X connect 19 0 38 0;
#X connect 20 0 21 0;
#X connect 21 0 22 0;
#X connect 22 0 20 1;
#X connect 22 0 23 0;
#X connect 23 0 24 0;
#X connect 24 1 25 0;
#X connect 25 0 39 0;
#X connect 26 0 27 0;
#X connect 27 0 28 0;
#X connect 28 0 26 1;
#X connect 28 0 29 0;
#X connect 29 0 30 0;
#X connect 30 1 31 0;
#X connect 31 0 40 0;
#X connect 32 0 33 0;
#X connect 33 0 34 0;
#X connect 34 0 32 1;
#X connect 34 0 35 0;
#X connect 35 0 36 0;
#X connect 36 1 37 0;
#X connect 37 0 41 0;
#X connect 38 0 43 0;
#X connect 38 0 49 0;
#X connect 39 0 44 0;
#X connect 39 0 50 0;
#X connect 40 0 45 0;
#X connect 40 0 51 0;
#X connect 41 0 46 0;
#X connect 41 0 52 0;
#X connect 42 0 38 1;
#X connect 42 0 41 1;
#X connect 42 0 40 1;
#X connect 42 0 39 1;
#X connect 47 0 0 0;
#X connect 47 1 48 0;
#X connect 48 0 32 1;
#X connect 48 0 26 1;
#X connect 48 0 20 1;
#X connect 48 0 14 1;
#X connect 49 0 53 0;
#X connect 50 0 54 0;
#X connect 51 0 55 0;
#X connect 52 0 56 0;
#X connect 53 0 61 0;
#X connect 54 0 62 0;
#X connect 55 0 63 0;
#X connect 56 0 64 0;
#X connect 57 0 49 1;
#X connect 58 0 50 1;
#X connect 59 0 51 1;
#X connect 60 0 52 1;
#X connect 65 0 47 0;
#X connect 66 0 57 0;
#X connect 67 0 58 0;
#X connect 68 0 59 0;
#X connect 69 0 60 0;
#X restore 1114 407 pd sequencer;
#X obj 80 423 synth~ \$0 1;
#X obj 81 541 synth~ \$0 2;
#X obj 82 658 synth~ \$0 3;
#X obj 174 783 mix~ \$0 1;
#N canvas 483 59 1437 1091 clock 0;
#X floatatom 62 33 5 0 990 2 bpm #0-bpm-set #0-bpm;
#X floatatom 62 57 0 -10 10 0 - #0-difference-set #0-difference;
#X floatatom 274 33 0 0 0 2 ms #0-ms0-set #0-ms0;
#X floatatom 274 54 0 0 0 0 - #0-ms1-set #0-ms1;
#X floatatom 274 75 0 0 0 0 - #0-ms2-set #0-ms2;
#X floatatom 274 96 0 0 0 0 - #0-ms3-set #0-ms3;
#X obj 101 32 hradio 19 1 0 9 \$0-mod_ms0 \$0-mod_ms0-set empty 0 -8
0 10 -262144 -1 -1 4;
#X obj 101 54 hradio 19 1 0 9 \$0-mod_ms1 \$0-mod_ms1-set empty 0 -8
0 10 -262144 -1 -1 4;
#X obj 101 76 hradio 19 1 0 9 \$0-mod_ms2 \$0-mod_ms2-set empty 0 -8
0 10 -262144 -1 -1 4;
#X obj 101 98 hradio 19 1 0 9 \$0-mod_ms3 \$0-mod_ms3-set empty 0 -8
0 10 -262144 -1 -1 4;
#X obj 80 123 loadbang;
#X msg 48 123 4;
#X floatatom 333 32 0 0 0 0 - #0-bpm0-set #0-bpm0;
#X floatatom 333 53 0 0 0 0 - #0-bpm1-set #0-bpm1;
#X floatatom 333 74 0 0 0 0 - #0-bpm2-set #0-bpm2;
#X floatatom 333 95 0 0 0 0 - #0-bpm3-set #0-bpm3;
#X obj 87 255 expr 60000 / $f1;
#X obj 199 157 r \$0-difference;
#X obj 83 166 r \$0-bpm;
#X obj 26 599 s \$0-ms0-set;
#X obj 172 331 +;
#X obj 212 326 +;
#X obj 278 317 +;
#X obj 84 195 f;
#X obj 84 220 t f b;
#X obj 199 182 t b f;
#X obj 230 225 f;
#X obj 246 327 * 2;
#X obj 310 316 * 3;
#X obj 899 100 r \$0-ms0;
#X obj 899 125 expr 60000 / $f1;
#X obj 1029 125 expr 60000 / $f1;
#X obj 899 245 expr 60000 / $f1;
#X obj 1029 245 expr 60000 / $f1;
#X obj 899 220 r \$0-ms1;
#X obj 1029 100 r \$0-ms2;
#X obj 1029 220 r \$0-ms3;
#X msg 56 321 8 4 3 2 1 0.5 0.333333 0.25 0.125, f 13;
#X obj 26 505 t f b;
#X obj 899 180 s \$0-bpm0-set;
#X obj 899 300 s \$0-bpm1-set;
#X obj 1029 180 s \$0-bpm2-set;
#X obj 1029 300 s \$0-bpm3-set;
#X msg 899 150 set \$1;
#X msg 1029 150 set \$1;
#X msg 899 270 set \$1;
#X msg 1029 270 set \$1;
#X obj 72 505 map;
#X obj 672 827;
#X obj 57 540 f;
#X obj 26 570 *;
#X obj 266 505 t f b;
#X obj 312 505 map;
#X obj 297 540 f;
#X obj 266 570 *;
#X obj 406 505 t f b;
#X obj 452 505 map;
#X obj 437 540 f;
#X obj 406 570 *;
#X obj 553 505 t f b;
#X obj 599 505 map;
#X obj 584 540 f;
#X obj 553 570 *;
#X obj 266 599 s \$0-ms1-set;
#X obj 406 599 s \$0-ms2-set;
#X obj 553 599 s \$0-ms3-set;
#X obj 406 393 r \$0-mod_ms2;
#X obj 246 413 r \$0-mod_ms1;
#X obj 543 403 r \$0-mod_ms3;
#X obj 44 408 r \$0-mod_ms0;
#X obj 44 433 t b f;
#X obj 246 438 t b f;
#X obj 406 418 t b f;
#X obj 543 428 t b f;
#X obj 136 603 s \$0-bpm;
#X connect 10 0 11 0;
#X connect 11 0 6 0;
#X connect 11 0 9 0;
#X connect 11 0 8 0;
#X connect 11 0 7 0;
#X connect 16 0 20 0;
#X connect 16 0 21 0;
#X connect 16 0 22 0;
#X connect 16 0 38 0;
#X connect 17 0 25 0;
#X connect 18 0 23 0;
#X connect 20 0 51 0;
#X connect 21 0 55 0;
#X connect 22 0 59 0;
#X connect 23 0 24 0;
#X connect 24 0 16 0;
#X connect 24 1 26 0;
#X connect 25 0 23 0;
#X connect 25 1 26 1;
#X connect 26 0 20 1;
#X connect 26 0 27 0;
#X connect 26 0 28 0;
#X connect 27 0 21 1;
#X connect 28 0 22 1;
#X connect 29 0 30 0;
#X connect 30 0 43 0;
#X connect 31 0 44 0;
#X connect 32 0 45 0;
#X connect 33 0 46 0;
#X connect 34 0 32 0;
#X connect 35 0 31 0;
#X connect 36 0 33 0;
#X connect 37 0 47 1;
#X connect 37 0 52 1;
#X connect 37 0 56 1;
#X connect 37 0 60 1;
#X connect 38 0 50 0;
#X connect 38 1 49 0;
#X connect 43 0 39 0;
#X connect 44 0 41 0;
#X connect 45 0 40 0;
#X connect 46 0 42 0;
#X connect 47 0 49 1;
#X connect 49 0 50 1;
#X connect 50 0 19 0;
#X connect 51 0 54 0;
#X connect 51 1 53 0;
#X connect 52 0 53 1;
#X connect 53 0 54 1;
#X connect 54 0 63 0;
#X connect 55 0 58 0;
#X connect 55 1 57 0;
#X connect 56 0 57 1;
#X connect 57 0 58 1;
#X connect 58 0 64 0;
#X connect 59 0 62 0;
#X connect 59 1 61 0;
#X connect 60 0 61 1;
#X connect 61 0 62 1;
#X connect 62 0 65 0;
#X connect 66 0 72 0;
#X connect 67 0 71 0;
#X connect 68 0 73 0;
#X connect 69 0 70 0;
#X connect 70 0 74 0;
#X connect 70 1 47 0;
#X connect 71 0 74 0;
#X connect 71 1 52 0;
#X connect 72 0 74 0;
#X connect 72 1 56 0;
#X connect 73 0 74 0;
#X connect 73 1 60 0;
#X coords 0 -1 1 1 336 89 2 60 30;
#X restore 169 197 pd clock;
#X obj 513 240 s \$0-msg;
#X obj 64 57 bng 32 250 50 0 \$0-init \$0-init-set empty 17 7 0 10
-262144 -1 -1;
#X obj 827 43 r \$0-init;
#X obj 906 42 loadbang;
#X obj 906 67 s \$0-init-set;
#X obj 827 68 f \$0;
#X msg 827 93 - \; \$1-midi_pitch-set 60 \; \$1-bpm-set 120 \; \$1-difference-set
0.125 \; \$1-mod_ms0-set 4 \; \$1-mod_ms1-set 4 \; \$1-mod_ms2-set
4 \; \$1-mod_ms3-set 4 \; \$1-score_board-set 0 \; \$1-GET_MODE 1 \;
;
#X connect 2 0 0 0;
#X connect 2 1 0 1;
#X connect 3 1 27 0;
#X connect 17 0 16 0;
#X connect 19 0 2 0;
#X connect 22 0 25 0;
#X connect 23 0 2 0;
#X connect 24 0 25 0;
#X connect 25 0 0 0;
#X connect 25 1 0 1;
#X connect 29 0 32 0;
#X connect 30 0 31 0;
#X connect 32 0 33 0;
