#N canvas 509 164 1514 1011 12;
#X declare -path ../0.beemo;
#X declare -path ../0.beemo/cadsr;
#X declare -path ../0.beemo/objects;
#X declare -path ../0.beemo/wf515;
#X declare -path ../0.beemo/tuning;
#X declare -path ../0.beemo/presets;
#X declare -path ../lib;
#X declare -lib cyclone;
#X declare -path objects;
#X declare -path ../0.beemo/mod_cartridge;
#X obj 543 782 output~;
#N canvas 0 59 569 339 declarations_and_misc 0;
#X obj 27 16 declare -path ../0.beemo;
#X obj 27 41 declare -path ../0.beemo/cadsr;
#X obj 27 66 declare -path ../0.beemo/objects;
#X obj 27 91 declare -path ../0.beemo/wf515;
#X obj 27 116 declare -path ../0.beemo/tuning;
#X obj 27 141 declare -path ../0.beemo/presets;
#X obj 27 246 declare -path ../lib;
#X obj 27 271 declare -lib cyclone;
#X obj 269 155 text define -k modes;
#A set ionian 0 2 4 5 7 9 11 12 \; dorian 0 2 3 5 7 9 10 12 \; phrygian
0 1 3 5 7 8 10 12 \; lydian 0 2 4 6 7 9 11 12 \; mixolydian 0 2 4 5
7 9 10 12 \; aeolian 0 2 3 5 7 8 10 12 \; locrian 0 1 3 5 6 8 10 12
\; harm_major 0 2 4 5 7 8 11 12 \; dorian_b5 0 2 3 5 6 9 10 12 \; phrygian_b4
0 1 3 4 7 8 10 12 \; lydian_b3 0 2 3 6 7 9 11 12 \; mixolydian_b2 0
1 4 5 7 9 10 12 \; aeolian_b1 0 3 4 6 8 9 11 12 \; locrian_b7 0 1 3
5 6 8 9 12 \; harm_minor 0 2 3 5 7 8 11 12 \; locrian_H6 0 1 3 5 6
9 10 12 \; ionian_H5 0 2 4 5 8 9 11 12 \; dorian_H4 0 2 3 6 7 9 10
12 \; phrygian_H3 0 1 4 5 7 8 10 12 \; lydian_H2 0 3 4 6 7 9 11 12
\; mixolydian_H1 0 1 3 4 6 8 9 12 \; mel_minor 0 2 3 5 7 9 11 12 \;
dorian_b2 0 1 3 5 7 9 10 12 \; lydian_H5 0 2 4 6 8 9 11 12 \; lydian_b7
0 2 4 6 7 9 10 12 \; mixolydian_b6 0 2 4 5 7 8 10 12 \; locrian_H2
0 2 3 5 6 8 10 12 \; locrian_b4 0 1 3 4 6 8 10 12 \;;
#X msg 301 128 read m28.txt;
#X obj 386 34 loadbang;
#X obj 386 59 s \$0-init-set;
#X obj 201 16 declare -path objects;
#X obj 27 167 declare -path ../0.beemo/mod_cartridge;
#X connect 9 0 8 0;
#X connect 10 0 11 0;
#X restore 11 275 pd declarations_and_misc;
#X obj 340 763 mix~ \$0 0;
#N canvas 190 118 1105 466 bpm 1;
#X obj 389 73 r \$0-difference;
#X obj 379 168 f;
#X obj 255 232 +;
#X obj 296 232 +;
#X obj 337 232 +;
#X obj 303 207 * 2;
#X obj 344 207 * 3;
#X obj 389 98 t b f;
#X obj 389 123 s \$0-bpm-set;
#X obj 781 80 r \$0-m_toggle_ALL;
#X obj 768 170 s \$0-m_toggle0-set;
#X obj 778 147 s \$0-m_toggle1-set;
#X obj 788 125 s \$0-m_toggle2-set;
#X obj 798 103 s \$0-m_toggle3-set;
#X obj 337 258 s \$0-mms3-set;
#X obj 296 287 s \$0-mms2-set;
#X obj 255 317 s \$0-mms1-set;
#X obj 214 345 s \$0-mms0-set;
#X obj 54 23 r \$0-bpm;
#X obj 54 48 expr 60000 / $f1;
#X obj 54 73 t b f f f f b, f 44;
#X obj 32 247 s \$0-mod_ms0-set;
#X obj 42 271 s \$0-mod_ms0-set;
#X obj 62 297 s \$0-mod_ms0-set;
#X obj 72 321 s \$0-mod_ms0-set;
#X connect 0 0 7 0;
#X connect 1 0 2 1;
#X connect 1 0 5 0;
#X connect 1 0 6 0;
#X connect 2 0 16 0;
#X connect 3 0 15 0;
#X connect 4 0 14 0;
#X connect 5 0 3 1;
#X connect 6 0 4 1;
#X connect 7 0 8 0;
#X connect 7 1 1 1;
#X connect 9 0 10 0;
#X connect 9 0 11 0;
#X connect 9 0 13 0;
#X connect 9 0 12 0;
#X connect 18 0 19 0;
#X connect 19 0 20 0;
#X connect 20 0 21 0;
#X connect 20 0 24 0;
#X connect 20 0 23 0;
#X connect 20 0 22 0;
#X connect 20 1 17 0;
#X connect 20 2 2 0;
#X connect 20 3 3 0;
#X connect 20 4 4 0;
#X connect 20 5 1 0;
#X restore 18 69 pd bpm;
#X obj 728 25 mod_cart \$0;
#X obj 598 22 tgl 22 0 \$0-m_toggle0 \$0-m_toggle0-set empty 17 7 0
10 -262144 -1 -1 1 1;
#X obj 622 22 tgl 22 0 \$0-m_toggle1 \$0-m_toggle1-set empty 17 7 0
10 -262144 -1 -1 1 1;
#X obj 646 22 tgl 22 0 \$0-m_toggle2 \$0-m_toggle2-set empty 17 7 0
10 -262144 -1 -1 1 1;
#X obj 670 22 tgl 22 0 \$0-m_toggle3 \$0-m_toggle3-set empty 17 7 0
10 -262144 -1 -1 1 1;
#X obj 520 73 M28 \$0;
#N canvas 0 59 450 300 m28 0;
#X obj 51 79 r \$0-MODE;
#X obj 51 104 s \$0-mode;
#X obj 50 127 array define -k -yrange 0 12 \$0-mode 7;
#A 0 0 2 3 5 7 9 10;
#X f 14;
#X connect 0 0 1 0;
#X restore 18 47 pd m28;
#X obj 550 22 tgl 46 0 \$0-m_toggle_ALL \$0-m_toggle_ALL-set empty
17 7 0 10 -162280 -262144 -1 1 1;
#X obj 598 46 bng 22 250 50 0 \$0-bang0 \$0-bang0-set empty 17 7 0
10 -191407 -262130 -1;
#X obj 622 46 bng 22 250 50 0 \$0-bang1 \$0-bang1-set empty 17 7 0
10 -191407 -262130 -1;
#X obj 646 46 bng 22 250 50 0 \$0-bang2 \$0-bang2-set empty 17 7 0
10 -191407 -262130 -1;
#X obj 670 46 bng 22 250 50 0 \$0-bang3 \$0-bang3-set empty 17 7 0
10 -191407 -262130 -1;
#X floatatom 479 96 5 0 0 0 - #0-midi_pitch-set #0-midi_pitch;
#X obj 15 251 text define -k \$0-score;
#A set 0 1 2 3 4 5 6 7 1 2 3 4 5 6 7 2 3 4 5 6 7 3 4 5 6 7 4 5 6 7
5 6 7 6 7 \; 7 6 5 4 3 2 1 0 6 5 4 3 2 1 0 5 4 3 2 1 0 4 3 2 1 0 3
2 1 0 2 1 0 1 0 \;;
#X obj 47 229 r \$0-SCORE;
#N canvas 92 99 612 233 metros 0;
#X obj 54 96 metro;
#X obj 77 71 r \$0-ms0;
#X obj 54 45 r \$0-m_toggle0;
#X obj 164 98 metro;
#X obj 164 47 r \$0-m_toggle1;
#X obj 187 73 r \$0-ms1;
#X obj 274 98 metro;
#X obj 384 94 metro;
#X obj 274 47 r \$0-m_toggle2;
#X obj 297 73 r \$0-ms2;
#X obj 384 43 r \$0-m_toggle3;
#X obj 407 69 r \$0-ms3;
#X obj 54 121 s \$0-bang0-set;
#X obj 164 123 s \$0-bang1-set;
#X obj 274 123 s \$0-bang2-set;
#X obj 384 119 s \$0-bang3-set;
#X connect 0 0 12 0;
#X connect 1 0 0 1;
#X connect 2 0 0 0;
#X connect 3 0 13 0;
#X connect 4 0 3 0;
#X connect 5 0 3 1;
#X connect 6 0 14 0;
#X connect 7 0 15 0;
#X connect 8 0 6 0;
#X connect 9 0 6 1;
#X connect 10 0 7 0;
#X connect 11 0 7 1;
#X restore 18 91 pd metros;
#X obj 340 285 synth~ \$0 0;
#X obj 468 119 hradio 24 1 0 2 \$0-score_board \$0-score_board-set
empty 0 -8 0 10 -262144 -1 -1 0;
#N canvas 213 59 1055 780 sequencer 0;
#X obj 582 94 sel 0 1;
#X msg 582 119 0 1;
#X msg 622 119 1 0;
#X obj 582 144 unpack 0 0;
#X obj 417 164 text get \$0-score;
#X obj 774 164 text get \$0-score;
#X obj 417 189 t l l;
#X obj 774 189 t l l;
#X obj 509 221 list length;
#X obj 642 218 list length;
#X obj 393 270 r \$0-bang0;
#X obj 503 270 r \$0-bang1;
#X obj 643 270 r \$0-bang2;
#X obj 753 270 r \$0-bang3;
#X obj 393 295 f;
#X obj 393 320 + 1;
#X obj 393 345 %;
#X obj 393 370 map;
#X obj 373 395 sel 0;
#X obj 371 421 tabread \$0-mode;
#X obj 505 295 f;
#X obj 505 320 + 1;
#X obj 505 345 %;
#X obj 505 370 map;
#X obj 485 395 sel 0;
#X obj 483 421 tabread \$0-mode;
#X obj 643 295 f;
#X obj 643 320 + 1;
#X obj 643 345 %;
#X obj 643 370 map;
#X obj 623 395 sel 0;
#X obj 621 421 tabread \$0-mode;
#X obj 755 295 f;
#X obj 755 320 + 1;
#X obj 755 345 %;
#X obj 755 370 map;
#X obj 735 395 sel 0;
#X obj 733 421 tabread \$0-mode;
#X obj 371 486 +;
#X obj 483 486 +;
#X obj 621 486 +;
#X obj 733 486 +;
#X obj 230 466 r \$0-midi_pitch;
#X floatatom 411 451 5 0 0 0 - - -;
#X floatatom 523 451 5 0 0 0 - - -;
#X floatatom 661 451 5 0 0 0 - - -;
#X floatatom 773 451 5 0 0 0 - - -;
#X obj 580 70 t f b;
#X msg 903 275 0;
#X obj 371 541 pack 0 0;
#X obj 503 541 pack 0 0;
#X obj 641 541 pack 0 0;
#X obj 773 541 pack 0 0;
#X msg 371 566 \$1 80 \$2;
#X msg 503 566 \$1 80 \$2;
#X msg 641 566 \$1 80 \$2;
#X msg 773 566 \$1 80 \$2;
#X obj 417 504 * 0.9;
#X obj 537 504 * 0.91;
#X obj 657 504 * 0.89;
#X obj 777 504 * 0.9;
#X obj 371 591 s \$0-midi_note0;
#X obj 503 591 s \$0-midi_note1;
#X obj 641 591 s \$0-midi_note2;
#X obj 773 591 s \$0-midi_note3;
#X obj 586 42 r \$0-score_board;
#X obj 417 479 r \$0-ms0;
#X obj 537 479 r \$0-ms1;
#X obj 657 479 r \$0-ms2;
#X obj 777 479 r \$0-ms3;
#X connect 0 0 1 0;
#X connect 0 1 2 0;
#X connect 1 0 3 0;
#X connect 2 0 3 0;
#X connect 3 0 4 0;
#X connect 3 1 5 0;
#X connect 4 0 6 0;
#X connect 5 0 7 0;
#X connect 6 0 17 1;
#X connect 6 0 23 1;
#X connect 6 1 8 0;
#X connect 7 0 35 1;
#X connect 7 0 29 1;
#X connect 7 1 9 0;
#X connect 8 0 16 1;
#X connect 8 0 22 1;
#X connect 9 0 34 1;
#X connect 9 0 28 1;
#X connect 10 0 14 0;
#X connect 11 0 20 0;
#X connect 12 0 26 0;
#X connect 13 0 32 0;
#X connect 14 0 15 0;
#X connect 15 0 16 0;
#X connect 16 0 14 1;
#X connect 16 0 17 0;
#X connect 17 0 18 0;
#X connect 18 1 19 0;
#X connect 19 0 38 0;
#X connect 20 0 21 0;
#X connect 21 0 22 0;
#X connect 22 0 20 1;
#X connect 22 0 23 0;
#X connect 23 0 24 0;
#X connect 24 1 25 0;
#X connect 25 0 39 0;
#X connect 26 0 27 0;
#X connect 27 0 28 0;
#X connect 28 0 26 1;
#X connect 28 0 29 0;
#X connect 29 0 30 0;
#X connect 30 1 31 0;
#X connect 31 0 40 0;
#X connect 32 0 33 0;
#X connect 33 0 34 0;
#X connect 34 0 32 1;
#X connect 34 0 35 0;
#X connect 35 0 36 0;
#X connect 36 1 37 0;
#X connect 37 0 41 0;
#X connect 38 0 43 0;
#X connect 38 0 49 0;
#X connect 39 0 44 0;
#X connect 39 0 50 0;
#X connect 40 0 45 0;
#X connect 40 0 51 0;
#X connect 41 0 46 0;
#X connect 41 0 52 0;
#X connect 42 0 38 1;
#X connect 42 0 41 1;
#X connect 42 0 40 1;
#X connect 42 0 39 1;
#X connect 47 0 0 0;
#X connect 47 1 48 0;
#X connect 48 0 32 1;
#X connect 48 0 26 1;
#X connect 48 0 20 1;
#X connect 48 0 14 1;
#X connect 49 0 53 0;
#X connect 50 0 54 0;
#X connect 51 0 55 0;
#X connect 52 0 56 0;
#X connect 53 0 61 0;
#X connect 54 0 62 0;
#X connect 55 0 63 0;
#X connect 56 0 64 0;
#X connect 57 0 49 1;
#X connect 58 0 50 1;
#X connect 59 0 51 1;
#X connect 60 0 52 1;
#X connect 65 0 47 0;
#X connect 66 0 57 0;
#X connect 67 0 58 0;
#X connect 68 0 59 0;
#X connect 69 0 60 0;
#X restore 19 116 pd sequencer;
#X obj 340 403 synth~ \$0 1;
#X obj 341 521 synth~ \$0 2;
#X obj 342 638 synth~ \$0 3;
#X obj 434 763 mix~ \$0 1;
#N canvas 405 366 1515 714 clock 0;
#X floatatom 62 33 5 0 990 2 bpm #0-bpm-set #0-bpm;
#X floatatom 62 53 5 -10 10 0 - #0-difference-set #0-difference;
#X floatatom 276 32 0 0 0 2 ms #0-ms0-set #0-ms0;
#X floatatom 276 54 0 0 0 0 - #0-ms1-set #0-ms1;
#X floatatom 276 76 0 0 0 0 - #0-ms2-set #0-ms2;
#X floatatom 276 98 0 0 0 0 - #0-ms3-set #0-ms3;
#X obj 102 32 hradio 19 1 0 9 \$0-mod_ms0 \$0-mod_ms0-set empty 0 -8
0 10 -262144 -1 -1 4;
#X obj 102 54 hradio 19 1 0 9 \$0-mod_ms1 \$0-mod_ms1-set empty 0 -8
0 10 -262144 -1 -1 3;
#X obj 102 76 hradio 19 1 0 9 \$0-mod_ms2 \$0-mod_ms2-set empty 0 -8
0 10 -262144 -1 -1 3;
#X obj 102 98 hradio 19 1 0 9 \$0-mod_ms4 \$0-mod_ms4-set empty 0 -8
0 10 -262144 -1 -1 5;
#X obj 626 399 f;
#X obj 613 288 s \$0-bpm-set;
#X obj 590 413 map;
#X msg 610 319 8 4 3 2 1 0.5 0.333333 0.25 0.125, f 13;
#X obj 590 438 *, f 8;
#X obj 81 123 loadbang;
#X msg 48 123 4;
#X obj 590 463 s \$0-ms3-set;
#X obj 464 399 f;
#X obj 451 288 s \$0-bpm-set;
#X obj 428 413 map;
#X msg 448 319 8 4 3 2 1 0.5 0.333333 0.25 0.125, f 13;
#X obj 428 438 *, f 8;
#X obj 314 399 f;
#X obj 301 288 s \$0-bpm-set;
#X obj 278 413 map;
#X msg 298 319 8 4 3 2 1 0.5 0.333333 0.25 0.125, f 13;
#X obj 278 438 *, f 8;
#X obj 164 399 f;
#X obj 151 288 s \$0-bpm-set;
#X obj 128 413 map;
#X msg 148 319 8 4 3 2 1 0.5 0.333333 0.25 0.125, f 13;
#X obj 128 438 *, f 8;
#X obj 128 463 s \$0-ms0-set;
#X obj 278 463 s \$0-ms1-set;
#X obj 428 463 s \$0-ms2-set;
#X floatatom 456 42 0 0 0 2 ms #0-mms0-set #0-mms0;
#X floatatom 456 64 0 0 0 0 - #0-mms1-set #0-mms1;
#X floatatom 456 86 0 0 0 0 - #0-mms2-set #0-mms2;
#X floatatom 456 108 0 0 0 0 - #0-mms3-set #0-mms3;
#X obj 467 374 r \$0-mms2;
#X obj 639 374 r \$0-mms3;
#X obj 327 374 r \$0-mms1;
#X obj 177 374 r \$0-mms0;
#X obj 128 213 r \$0-mod_ms0;
#X obj 128 238 t f b b;
#X obj 278 213 r \$0-mod_ms1;
#X obj 428 213 r \$0-mod_ms2;
#X obj 588 213 r \$0-mod_ms3;
#X obj 588 238 t f b b;
#X obj 428 238 t f b b;
#X obj 278 238 t f b b;
#X connect 10 0 14 1;
#X connect 12 0 14 0;
#X connect 13 0 12 1;
#X connect 14 0 17 0;
#X connect 15 0 16 0;
#X connect 16 0 6 0;
#X connect 16 0 9 0;
#X connect 16 0 8 0;
#X connect 16 0 7 0;
#X connect 18 0 22 1;
#X connect 20 0 22 0;
#X connect 21 0 20 1;
#X connect 22 0 35 0;
#X connect 23 0 27 1;
#X connect 25 0 27 0;
#X connect 26 0 25 1;
#X connect 27 0 34 0;
#X connect 28 0 32 1;
#X connect 30 0 32 0;
#X connect 31 0 30 1;
#X connect 32 0 33 0;
#X connect 40 0 18 1;
#X connect 41 0 10 1;
#X connect 42 0 23 1;
#X connect 43 0 28 1;
#X connect 44 0 45 0;
#X connect 45 0 30 0;
#X connect 45 1 28 0;
#X connect 45 2 29 0;
#X connect 45 2 31 0;
#X connect 46 0 51 0;
#X connect 47 0 50 0;
#X connect 48 0 49 0;
#X connect 49 0 12 0;
#X connect 49 1 10 0;
#X connect 49 2 11 0;
#X connect 49 2 13 0;
#X connect 50 0 20 0;
#X connect 50 1 18 0;
#X connect 50 2 19 0;
#X connect 50 2 21 0;
#X connect 51 0 25 0;
#X connect 51 1 23 0;
#X connect 51 2 24 0;
#X connect 51 2 26 0;
#X coords 0 -1 1 1 295 89 2 60 30;
#X restore 170 54 pd clock;
#X obj 1055 201 s \$0-msg;
#X connect 2 0 0 0;
#X connect 2 1 0 1;
#X connect 4 1 28 0;
#X connect 18 0 17 0;
#X connect 20 0 2 0;
#X connect 23 0 26 0;
#X connect 24 0 2 0;
#X connect 25 0 26 0;
#X connect 26 0 0 0;
#X connect 26 1 0 1;
