#N canvas 139 162 955 743 12;
#X declare -path ../0.beemo;
#X declare -path ../0.beemo/cadsr;
#X declare -path ../0.beemo/objects;
#X declare -path ../0.beemo/wf515;
#X declare -path ../0.beemo/tuning;
#X declare -path ../0.beemo/presets;
#X declare -path ../lib;
#X declare -lib cyclone;
#X declare -path objects;
#X obj 186 11 mix~ \$0 0;
#X obj 276 11 mix~ \$0 1;
#X obj 366 11 mix~ \$0 2;
#X obj 456 11 mix~ \$0 3;
#X obj 53 464 catch~ \$0-outRIGHT;
#X obj 48 517 output~;
#N canvas 619 384 539 582 bpm 0;
#X obj 43 13 cnv 15 118 17 empty empty empty 20 12 0 14 -258037 -66577
0;
#X floatatom 67 12 4 0 0 2 bpm #0-bpm-set #0-bpm;
#X floatatom 99 12 0 0 120000 2 ms #0-ms-set #0-ms;
#X floatatom 42 12 3 0 0 2 dif #0-diff-set #0-diff;
#X obj 42 33 bpm \$0 0;
#X obj 42 62 bpm \$0 1;
#X obj 42 91 bpm \$0 2;
#X obj 42 120 bpm \$0 3;
#X obj 191 39 r \$0-bpm;
#X obj 191 104 expr 60000 / $f1;
#X obj 191 128 s \$0-ms-set;
#X obj 191 63 t f b;
#X obj 201 83 s \$0-diff-set;
#X obj 80 169 tgl 32 0 \$0-start_toggle \$0-start_toggle-set empty
17 7 0 10 -262144 -1 -1 0 1;
#X obj 35 231 r_metro \$0 0;
#X obj 35 253 r_metro \$0 1;
#X obj 35 275 r_metro \$0 2;
#X obj 35 297 r_metro \$0 3;
#X connect 8 0 11 0;
#X connect 9 0 10 0;
#X connect 11 0 9 0;
#X connect 11 1 12 0;
#X coords 0 -1 1 1 124 139 2 40 10;
#X restore 60 19 pd bpm;
#X obj 436 236 bng 35 250 50 0 \$0-init \$0-init-set empty 17 7 0 10
-191407 -262144 -1;
#X obj 267 292 bng 48 250 50 0 \$0-bang0 \$0-bang0-set empty 17 7 0
10 -191407 -47081 -47081;
#X obj 215 292 bng 48 250 50 0 \$0-start_button \$0-start_button-set
> 9 22 0 60 -228856 -262144 -262144;
#X obj 319 292 bng 48 250 50 0 \$0-bang1 \$0-bang1-set empty 17 7 0
10 -191407 -47081 -47081;
#X obj 371 292 bng 48 250 50 0 \$0-bang2 \$0-bang2-set empty 17 7 0
10 -191407 -47081 -47081;
#X obj 423 292 bng 48 250 50 0 \$0-bang3 \$0-bang3-set empty 17 7 0
10 -191407 -47081 -47081;
#N canvas 411 377 757 575 mixer-preset 0;
#X obj 72 135 inlet;
#X obj 412 531 s \$0-msg;
#X msg 70 189 mixer 0 clip 0 \, mixer 0 amp 0.8 \, mixer 0 allpass-gain
0.2 \, mixer 0 allpass-delay 0.4 \, mixer 0 pan 0.1 \, mixer 1 clip
0 \, mixer 1 amp 0.8 \, mixer 1 allpass-gain 0.2 \, mixer 1 allpass-delay
0.1 \, mixer 1 pan 0.9 \, mixer 2 clip 0 \, mixer 2 amp 0.8 \, mixer
2 allpass-gain 0.4 \, mixer 2 allpass-delay 0.1 \, mixer 2 pan 0.3
\, mixer 3 clip 0 \, mixer 3 amp 0.8 \, mixer 3 allpass-gain 0.35 \,
mixer 3 allpass-delay 0.4 \, mixer 3 pan 0.7 \,, f 23;
#X connect 0 0 2 0;
#X connect 2 0 1 0;
#X restore 51 411 pd mixer-preset;
#X obj 95 375 bng 32 250 50 0 empty \$0-mixer_preset-bang empty 17
7 0 10 -262144 -1 -1;
#X obj 398 236 bng 35 250 50 0 \$0-pitch_button \$0-pitch_button-set
C 5 18 0 35 -162280 -1 -262144;
#X obj 392 273 hsl 58 17 0 1 0 0 \$0-octave \$0-octave-set empty -2
-8 0 10 -191407 -262144 -1 2850 1;
#X obj 454 273 bng 17 250 50 0 \$0-reset_octave \$0-reset_octave-set
empty 17 7 0 10 -191407 -262144 -1;
#X obj 66 163 hradio 32 1 0 6 \$0-panel \$0-panel-set empty 0 -8 0
10 -262144 -149185 -1 0;
#X obj 215 218 M28 \$0;
#X obj 473 308 bng 32 250 50 0 \$0-save_file \$0-save_file-set s 5
18 1 40 -191407 -262144 -228856;
#X obj 473 274 bng 32 250 50 0 \$0-open_file \$0-open_file-set o 4
18 1 40 -191407 -262144 -228856;
#X obj 61 201 x8_table \$0;
#N canvas 0 59 569 339 declarations_and_misc 0;
#X obj 27 16 declare -path ../0.beemo;
#X obj 27 41 declare -path ../0.beemo/cadsr;
#X obj 27 66 declare -path ../0.beemo/objects;
#X obj 27 91 declare -path ../0.beemo/wf515;
#X obj 27 116 declare -path ../0.beemo/tuning;
#X obj 27 141 declare -path ../0.beemo/presets;
#X obj 27 166 declare -path ../lib;
#X obj 27 191 declare -lib cyclone;
#X obj 269 155 text define -k modes;
#A set ionian 0 2 4 5 7 9 11 12 \; dorian 0 2 3 5 7 9 10 12 \; phrygian
0 1 3 5 7 8 10 12 \; lydian 0 2 4 6 7 9 11 12 \; mixolydian 0 2 4 5
7 9 10 12 \; aeolian 0 2 3 5 7 8 10 12 \; locrian 0 1 3 5 6 8 10 12
\; harm_major 0 2 4 5 7 8 11 12 \; dorian_b5 0 2 3 5 6 9 10 12 \; phrygian_b4
0 1 3 4 7 8 10 12 \; lydian_b3 0 2 3 6 7 9 11 12 \; mixolydian_b2 0
1 4 5 7 9 10 12 \; aeolian_b1 0 3 4 6 8 9 11 12 \; locrian_b7 0 1 3
5 6 8 9 12 \; harm_minor 0 2 3 5 7 8 11 12 \; locrian_H6 0 1 3 5 6
9 10 12 \; ionian_H5 0 2 4 5 8 9 11 12 \; dorian_H4 0 2 3 6 7 9 10
12 \; phrygian_H3 0 1 4 5 7 8 10 12 \; lydian_H2 0 3 4 6 7 9 11 12
\; mixolydian_H1 0 1 3 4 6 8 9 12 \; mel_minor 0 2 3 5 7 9 11 12 \;
dorian_b2 0 1 3 5 7 9 10 12 \; lydian_H5 0 2 4 6 8 9 11 12 \; lydian_b7
0 2 4 6 7 9 10 12 \; mixolydian_b6 0 2 4 5 7 8 10 12 \; locrian_H2
0 2 3 5 6 8 10 12 \; locrian_b4 0 1 3 4 6 8 10 12 \;;
#X msg 301 128 read m28.txt;
#X obj 292 28 loadbang;
#X obj 292 53 s \$0-init-set;
#X obj 252 215 array define -k -yrange 0 36 \$0-pattern;
#A 0 0 7 1 4 2 0 6 4 2 0 0 1 6 7 6 5 2 0 0 0 0 0 0 0 0 0 0 0 0 0 0
0 0 0 0 0 0 0 0 0 0 0 0 0 0 0 0 0 0 0 0 0 0 0 0 0 0 0 0 0 0 0 0 0 0
0 0 0 0 0 0 0 0 0 0 0 0 0 0 0 0 0 0 0 0 0 0 0 0 0 0 0 0 0 0 0 0 0 0
0;
#X obj 201 16 declare -path objects;
#X connect 9 0 8 0;
#X connect 10 0 11 0;
#X restore 433 511 pd declarations_and_misc;
#N canvas 0 59 1260 954 style 0;
#X obj 30 248 f;
#X obj 30 273 + 1;
#X obj 30 298 % 2;
#X obj 30 323 s \$0-start_toggle-set;
#X obj 64 259 r \$0-start_toggle;
#X obj 30 223 r \$0-start_button;
#X obj 283 325 r \$0-start_toggle;
#X obj 283 350 sel 0 1;
#X obj 268 632 s \$0-start_button-set;
#X msg 238 512 color #dfdfdf #ffffff #ffffff, f 7;
#X obj 259 412 t b b b;
#X obj 462 411 t b b b;
#X msg 271 465 label_pos 9 22;
#X msg 259 487 label >;
#X msg 489 487 label ";
#X msg 438 511 color #f8fcd0 #ffffff #bbbbbb, f 8;
#X msg 501 465 label_pos 7 40;
#X connect 0 0 1 0;
#X connect 1 0 2 0;
#X connect 2 0 3 0;
#X connect 4 0 0 1;
#X connect 5 0 0 0;
#X connect 6 0 7 0;
#X connect 7 0 10 0;
#X connect 7 1 11 0;
#X connect 9 0 8 0;
#X connect 10 0 9 0;
#X connect 10 1 13 0;
#X connect 10 2 12 0;
#X connect 11 0 15 0;
#X connect 11 1 14 0;
#X connect 11 2 16 0;
#X connect 12 0 8 0;
#X connect 13 0 8 0;
#X connect 14 0 8 0;
#X connect 15 0 8 0;
#X connect 16 0 8 0;
#X restore 245 539 pd style;
#N canvas 413 59 1273 829 pitch_button_style 0;
#X obj 255 148 r \$0-pitch_root;
#X obj 255 173 sel 0 1 2 3 4 5 6 7 8 9 10 11, f 44;
#X msg 222 357 symbol C;
#X msg 240 505 label \$1;
#X obj 240 530 s \$0-pitch_button-set;
#X obj 255 198 t b b;
#X msg 233 332 5 18;
#X msg 197 473 label_pos \$1 \$2;
#X obj 325 198 t b b;
#X obj 395 198 t b b;
#X obj 465 198 t b b;
#X obj 535 198 t b b;
#X obj 605 198 t b b;
#X obj 675 198 t b b;
#X obj 745 198 t b b;
#X msg 723 332 5 18;
#X obj 815 198 t b b;
#X obj 885 198 t b b;
#X obj 955 198 t b b;
#X obj 1025 198 t b b;
#X msg 292 357 symbol Db;
#X msg 432 357 symbol Eb;
#X msg 362 357 symbol D;
#X msg 502 357 symbol E;
#X msg 572 357 symbol F;
#X msg 642 357 symbol Gb;
#X msg 712 357 symbol G;
#X msg 782 357 symbol Ab;
#X msg 852 357 symbol A;
#X msg 922 357 symbol Bb;
#X msg 992 357 symbol B;
#X msg 303 332 -3 18;
#X msg 373 332 7 18;
#X msg 583 332 7 18;
#X msg 443 332 -3 18;
#X msg 513 332 7 18;
#X msg 653 332 -3 18;
#X msg 793 332 -3 18;
#X msg 863 332 7 18;
#X msg 933 332 -3 18;
#X msg 1003 332 6 18;
#X obj 12 149 r \$0-pitch_button;
#X obj 12 174 f;
#X obj 12 199 + 1;
#X obj 12 224 % 12;
#X obj 12 249 s \$0-pitch_root-set;
#X obj 105 191 r \$0-pitch_root;
#X floatatom 29 285 5 0 0 0 - #0-pitch_root-set #0-pitch_root;
#X obj 567 54 r \$0-init;
#X msg 567 79 0;
#X obj 567 104 s \$0-pitch_root-set;
#X obj 764 96 s \$0-mixer_preset-bang;
#X connect 0 0 1 0;
#X connect 1 0 5 0;
#X connect 1 1 8 0;
#X connect 1 2 9 0;
#X connect 1 3 10 0;
#X connect 1 4 11 0;
#X connect 1 5 12 0;
#X connect 1 6 13 0;
#X connect 1 7 14 0;
#X connect 1 8 16 0;
#X connect 1 9 17 0;
#X connect 1 10 18 0;
#X connect 1 11 19 0;
#X connect 2 0 3 0;
#X connect 3 0 4 0;
#X connect 5 0 2 0;
#X connect 5 1 6 0;
#X connect 6 0 7 0;
#X connect 7 0 4 0;
#X connect 8 0 20 0;
#X connect 8 1 31 0;
#X connect 9 0 22 0;
#X connect 9 1 32 0;
#X connect 10 0 21 0;
#X connect 10 1 34 0;
#X connect 11 0 23 0;
#X connect 11 1 35 0;
#X connect 12 0 24 0;
#X connect 12 1 33 0;
#X connect 13 0 25 0;
#X connect 13 1 36 0;
#X connect 14 0 26 0;
#X connect 14 1 15 0;
#X connect 15 0 7 0;
#X connect 16 0 27 0;
#X connect 16 1 37 0;
#X connect 17 0 28 0;
#X connect 17 1 38 0;
#X connect 18 0 29 0;
#X connect 18 1 39 0;
#X connect 19 0 30 0;
#X connect 19 1 40 0;
#X connect 20 0 3 0;
#X connect 21 0 3 0;
#X connect 22 0 3 0;
#X connect 23 0 3 0;
#X connect 24 0 3 0;
#X connect 25 0 3 0;
#X connect 26 0 3 0;
#X connect 27 0 3 0;
#X connect 28 0 3 0;
#X connect 29 0 3 0;
#X connect 30 0 3 0;
#X connect 31 0 7 0;
#X connect 32 0 7 0;
#X connect 33 0 7 0;
#X connect 34 0 7 0;
#X connect 35 0 7 0;
#X connect 36 0 7 0;
#X connect 37 0 7 0;
#X connect 38 0 7 0;
#X connect 39 0 7 0;
#X connect 40 0 7 0;
#X connect 41 0 42 0;
#X connect 42 0 43 0;
#X connect 43 0 44 0;
#X connect 44 0 45 0;
#X connect 46 0 42 1;
#X connect 48 0 49 0;
#X connect 48 0 51 0;
#X connect 49 0 50 0;
#X restore 249 516 pd pitch_button_style;
#N canvas 326 259 677 603 init 0;
#X obj 66 24 r \$0-init;
#X obj 174 27 t b b;
#X msg 223 82 -1;
#X obj 223 107 s \$0-diff-set;
#X msg 126 84 120;
#X obj 126 109 s \$0-bpm-set;
#X obj 69 149 s \$0-mixer_preset-bang;
#X obj 65 110 del 300;
#X msg 357 95 0.5;
#X obj 357 120 s \$0-octave-set;
#X obj 414 60 s \$0-GET_MODE;
#X msg 414 35 1;
#X obj 468 260 s \$0-start_toggle-set;
#X msg 334 205 0;
#X connect 0 0 1 0;
#X connect 0 0 7 0;
#X connect 1 0 4 0;
#X connect 1 1 2 0;
#X connect 1 1 8 0;
#X connect 1 1 11 0;
#X connect 1 1 13 0;
#X connect 2 0 3 0;
#X connect 4 0 5 0;
#X connect 7 0 6 0;
#X connect 8 0 9 0;
#X connect 11 0 10 0;
#X connect 13 0 12 0;
#X restore 251 566 pd init;
#N canvas 0 59 657 506 open_save 0;
#X obj 239 312 text define -k \$0-sequence;
#A set 0 7 1 4 2 0 6 4 2 0 0 1 6 7 6 5 2 \; 0 7 1 4 2 4 6 4 2 0 6 1
6 7 6 5 2 \; 0 7 3 4 2 4 6 4 2 3 6 3 6 7 6 5 2 \; 0 7 4 2 1 7 4 2 1
7 4 7 4 2 1 2 4 \; 0 7 5 3 1 7 5 3 1 7 5 7 5 3 1 3 5 \; 0 7 6 4 2 7
6 4 2 7 6 7 6 4 2 4 6 \;;
#X obj 48 281 text size \$0-sequence;
#X msg 48 306 number \$1;
#X msg 206 268 read \$1;
#X msg 284 135 dir;
#X obj 279 154 pdcontrol;
#X msg 279 179 symbol \$1/patterns;
#X obj 279 204 savepanel;
#X msg 279 229 write \$1;
#X msg 66 78 dir;
#X obj 66 103 pdcontrol;
#X msg 66 128 symbol \$1/patterns;
#X obj 66 153 openpanel;
#X obj 66 178 t b s;
#X obj 48 331 s \$0-panel-set;
#X obj 71 28 r \$0-open_file;
#X obj 258 55 r \$0-save_file;
#X connect 1 0 2 0;
#X connect 2 0 14 0;
#X connect 3 0 0 0;
#X connect 4 0 5 0;
#X connect 5 0 6 0;
#X connect 6 0 7 0;
#X connect 7 0 8 0;
#X connect 8 0 0 0;
#X connect 9 0 10 0;
#X connect 10 0 11 0;
#X connect 11 0 12 0;
#X connect 12 0 13 0;
#X connect 13 0 1 0;
#X connect 13 1 3 0;
#X connect 15 0 9 0;
#X connect 16 0 4 0;
#X restore 236 591 pd open_save;
#N canvas 587 269 450 300 pattern_reader 1;
#X obj 23 83 reader \$0 0;
#X obj 23 61 reader \$0 1;
#X obj 23 105 reader \$0 2;
#X obj 23 127 reader \$0 3;
#X obj 129 51 r \$0-panel;
#X obj 129 76 text get \$0-sequence;
#X obj 129 101 t a a;
#X obj 198 111 list length;
#X msg 198 136 resize \$1;
#X obj 130 177 list prepend 0;
#X obj 130 202 s \$0-pattern;
#X connect 4 0 5 0;
#X connect 5 0 6 0;
#X connect 6 0 9 0;
#X connect 6 1 7 0;
#X connect 7 0 8 0;
#X connect 8 0 10 0;
#X connect 9 0 10 0;
#X restore 344 571 pd pattern_reader;
#X obj 47 442 catch~ \$0-outLEFT;
#N canvas 896 6 729 955 \$0-synthesizers 0;
#N canvas 317 59 1603 1068 display 0;
#X obj 15 19 synth~ \$0 0;
#X obj 15 243 synth~ \$0 1;
#X obj 15 465 synth~ \$0 2;
#X obj 16 685 synth~ \$0 3;
#X obj 629 189 f;
#X obj 629 214 + 1;
#X obj 629 239 % 2;
#X obj 629 264 t b f, f 13;
#X obj 629 289 f \$0;
#X msg 624 344 \; pd-\$1-synthesizers vis \$2 \;;
#X obj 629 314 pack;
#X obj 608 101 r \$0-call_beemo;
#X connect 4 0 5 0;
#X connect 5 0 6 0;
#X connect 6 0 7 0;
#X connect 6 0 4 1;
#X connect 7 0 8 0;
#X connect 7 1 10 1;
#X connect 8 0 10 0;
#X connect 10 0 9 0;
#X connect 11 0 4 0;
#X coords 0 -1 1 1 475 890 2 10 10;
#X restore 79 19 pd display;
#X restore 474 539 pd \$0-synthesizers;
#X obj 339 176 bng 32 250 50 0 \$0-call_beemo \$0-call_beemo-set beemo_yay
17 7 1 48 -262144 -1 -1;
#X msg 584 373 60 80 1500;
#X obj 584 398 s \$0-midi_note0;
#X connect 4 0 5 1;
#X connect 14 0 13 0;
#X connect 29 0 5 0;
#X connect 32 0 33 0;
