#N canvas 493 349 798 626 10;
#X obj 22 36 bng 20 250 50 0 \$0-metro_button \$0-metro_button-set
empty 17 7 0 10 -162280 -262144 -262144;
#X floatatom 583 24 2 0 0 0 - #0-metro_toggle-set #0-metro_toggle;
#X floatatom 603 24 2 0 0 0 - #0-metro_switch-set #0-metro_switch;
#N canvas 0 59 1008 503 logic 0;
#X obj 130 68 r \$0-metro_toggle;
#X obj 329 71 r \$0-metro_switch;
#X obj 134 129 f;
#X obj 329 96 t b f;
#X obj 331 163 f;
#X obj 134 154 t f b;
#X obj 125 242 expr if($f1 == 0 && $f2 == 0 \, 0 \, if($f1 == 1 &&
$f2 == 0 \, 1 \, if($f1 == 0 && $f2 == 1 \, 2 \, if($f1 == 1 && $f2
== 1 \, 3 \, 0)))), f 31;
#X obj 125 327 s \$0-LOGIC;
#X msg 578 218 color #9f9f9f #ffffff #ffffff, f 7;
#X msg 852 219 color #feffc6 #ffffff #ffffff, f 7;
#X obj 599 133 r \$0-LOGIC;
#X obj 600 158 sel 0 1 2 3;
#X obj 577 340 s \$0-metro_button-set;
#X obj 422 154 r \$1-clock_toggle;
#X obj 422 179 sel 0;
#X obj 402 254 s \$0-metro_toggle-set;
#X obj 402 279 s \$0-metro_switch-set;
#X msg 422 204 0;
#X msg 760 228 color #dfdfac #ffffff #ffffff, f 7;
#X msg 666 222 color #bbbb98 #ffffff #ffffff, f 7;
#X connect 0 0 2 0;
#X connect 1 0 3 0;
#X connect 2 0 5 0;
#X connect 3 0 2 0;
#X connect 3 1 4 1;
#X connect 4 0 6 1;
#X connect 5 0 6 0;
#X connect 5 1 4 0;
#X connect 6 0 7 0;
#X connect 8 0 12 0;
#X connect 9 0 12 0;
#X connect 10 0 11 0;
#X connect 11 0 8 0;
#X connect 11 1 19 0;
#X connect 11 2 18 0;
#X connect 11 3 9 0;
#X connect 13 0 14 0;
#X connect 14 0 8 0;
#X connect 14 0 17 0;
#X connect 17 0 15 0;
#X connect 17 0 16 0;
#X connect 18 0 12 0;
#X connect 19 0 12 0;
#X restore 574 68 pd logic;
#N canvas 0 59 374 322 button 0;
#X obj 45 28 r \$0-metro_button;
#X obj 45 53 f;
#X obj 45 78 + 1;
#X obj 45 103 % 2;
#X obj 43 156 s \$0-metro_toggle-set;
#X obj 76 54 r \$0-metro_toggle;
#X obj 45 128 spigot;
#X obj 75 100 r \$1-clock_toggle;
#X connect 0 0 1 0;
#X connect 1 0 2 0;
#X connect 2 0 3 0;
#X connect 3 0 6 0;
#X connect 5 0 1 1;
#X connect 6 0 4 0;
#X connect 7 0 6 1;
#X restore 574 114 pd button;
#N canvas 128 192 450 300 on_time 0;
#X obj 63 24 r \$1-on_time;
#X obj 66 78 f;
#X obj 66 103 s \$0-metro_switch-set;
#X obj 77 49 r \$0-metro_toggle;
#X connect 0 0 1 0;
#X connect 1 0 2 0;
#X connect 3 0 1 1;
#X restore 574 91 pd on_time;
#X obj 158 48 spigot;
#X obj 224 26 r \$0-metro_switch;
#X obj 158 23 r \$1-bang;
#X obj 158 73 f;
#X obj 158 98 + 1;
#X obj 158 123 %;
#X obj 158 148 sel 0;
#X obj 195 178 s \$1-bang_\$2;
#X obj 25 58 hsl 81 15 0 1 0 0 \$0-browser \$0-browser-set empty -2
-8 0 10 -191407 -262130 -1 4000 1;
#X obj 44 36 bng 20 250 50 0 \$0-down \$0-down-set << 2 10 0 14 -191407
-262144 -262130;
#X obj 66 36 bng 20 250 50 0 \$0-up \$0-up-set >> 3 10 0 14 -191407
-262144 -262130;
#X msg 573 161 0.5;
#X obj 573 186 s \$0-browser-set;
#X obj 242 80 r \$0-speed;
#X obj 88 36 bng 20 250 50 0 \$0-reset \$0-reset-set empty 1 7 0 12
-228856 -1 -1;
#X obj 574 137 r \$0-reset;
#N canvas 0 59 756 724 navi 0;
#X obj 32 106 r \$0-down;
#X obj 32 131 t b b;
#X obj 142 102 r \$0-up;
#X obj 142 127 t b b;
#X msg 68 162 -1;
#X msg 172 161 1;
#X obj 99 222 f;
#X obj 99 247 +;
#X obj 97 480 s \$0-browser-set;
#X obj 370 64 r \$0-browser;
#X obj 288 219 i;
#X obj 286 321 tabread \$1-speed;
#X obj 97 423 expr if($f1 < 0 \, 0 \, if($f1 > 14 \, 14 \, $f1));
#X obj 366 106 * 14;
#X obj 99 451 / 14;
#X obj 366 131 + 0.5;
#X obj 366 180 i;
#X obj 286 344 s \$0-speed;
#X obj 288 244 expr 14 - $f1;
#X obj 451 278 r \$1-bpm;
#X obj 451 301 expr 60000 / $f1;
#X obj 435 390 f;
#X obj 414 250 tabread \$1-speed_ratio;
#X obj 404 337 t f b;
#X obj 403 408 *;
#X obj 403 431 s \$1-time_\$2;
#X obj 414 273 f;
#X obj 451 324 t b f;
#X connect 0 0 1 0;
#X connect 1 0 6 0;
#X connect 1 1 4 0;
#X connect 2 0 3 0;
#X connect 3 0 6 0;
#X connect 3 1 5 0;
#X connect 4 0 7 1;
#X connect 5 0 7 1;
#X connect 6 0 7 0;
#X connect 7 0 12 0;
#X connect 9 0 13 0;
#X connect 10 0 6 1;
#X connect 10 0 18 0;
#X connect 11 0 17 0;
#X connect 12 0 14 0;
#X connect 13 0 15 0;
#X connect 14 0 8 0;
#X connect 15 0 16 0;
#X connect 16 0 6 1;
#X connect 16 0 10 0;
#X connect 18 0 11 0;
#X connect 18 0 22 0;
#X connect 19 0 20 0;
#X connect 20 0 27 0;
#X connect 21 0 24 1;
#X connect 22 0 26 0;
#X connect 23 0 24 0;
#X connect 23 1 21 0;
#X connect 24 0 25 0;
#X connect 26 0 23 0;
#X connect 27 0 26 0;
#X connect 27 1 21 1;
#X restore 574 46 pd navi;
#X obj 348 30 inlet;
#X obj 342 182 s \$0-metro_button-set;
#X obj 348 53 route bang reset up down browser;
#X obj 358 156 s \$0-reset-set;
#X obj 396 135 s \$0-up-set;
#X obj 414 110 s \$0-down-set;
#X obj 432 86 s \$0-browser-set;
#X obj 157 201 outlet;
#X obj 41 392 r \$1-init;
#X msg 41 415 0.5;
#X obj 41 438 s \$0-browser-set;
#X connect 6 0 9 0;
#X connect 7 0 6 1;
#X connect 8 0 6 0;
#X connect 9 0 10 0;
#X connect 10 0 11 0;
#X connect 11 0 12 0;
#X connect 11 0 9 1;
#X connect 12 0 13 0;
#X connect 12 0 30 0;
#X connect 17 0 18 0;
#X connect 19 0 11 1;
#X connect 21 0 17 0;
#X connect 23 0 25 0;
#X connect 25 0 24 0;
#X connect 25 1 26 0;
#X connect 25 2 27 0;
#X connect 25 3 28 0;
#X connect 25 4 29 0;
#X connect 31 0 32 0;
#X connect 32 0 33 0;
#X coords 0 -1 1 1 90 55 1 20 20;
