#N canvas 154 424 502 366 12;
#X obj 171 57 r \$1-\$2;
#X obj 145 96 f;
#X obj 73 31 r \$1-move_down;
#X obj 250 30 r \$1-move_up;
#X obj 73 56 t b b;
#X obj 250 55 t b b;
#X obj 145 121 +;
#X msg 123 59 -1;
#X msg 292 55 1;
#X obj 145 146 expr if($f1 > 8 \, 8 \, if($f1 < 0 \, 0 \, $f1));
#X obj 145 171 s \$1-\$2-set;
#X connect 0 0 1 1;
#X connect 1 0 6 0;
#X connect 2 0 4 0;
#X connect 3 0 5 0;
#X connect 4 0 1 0;
#X connect 4 1 7 0;
#X connect 5 0 1 0;
#X connect 5 1 8 0;
#X connect 6 0 9 0;
#X connect 7 0 6 1;
#X connect 8 0 6 1;
#X connect 9 0 10 0;
