#N canvas 0 59 541 759 10;
#X obj 19 43 r \$0-msg;
#X obj 19 66 route float;
#X obj 19 89 t f b f f f b, f 59;
#X obj 19 112 tabread \$1-score_table\$2, f 9;
#X obj 19 161 sel 0;
#X obj 19 186 - 1;
#X obj 19 239 tabread \$1-m\$2_table;
#X obj 19 262 + 60;
#X obj 52 273 r \$1-root\$2;
#X obj 51 299 f;
#X obj 19 335 +;
#X obj 19 358 +;
#X obj 113 121 + 192;
#X obj 113 144 tabread \$1-score_table\$2, f 9;
#X obj 113 193 - 3;
#X obj 113 216 * 12;
#X obj 201 133 + 64;
#X obj 201 156 tabread \$1-score_table\$2, f 9;
#X obj 201 205 * 18.1428;
#X obj 51 358 i;
#X obj 281 156 tabread \$1-score_table\$2, f 9;
#X obj 281 133 + 128;
#X obj 281 205 + 1;
#X obj 81 358 *;
#X obj 344 221 r \$1-time_\$2;
#X obj 322 248 f;
#X obj 19 431 pack 0 0 0;
#X obj 19 454 outlet;
#X obj 424 15 inlet;
#X obj 424 38 s \$0-msg;
#X connect 0 0 1 0;
#X connect 1 0 2 0;
#X connect 2 0 3 0;
#X connect 2 1 9 0;
#X connect 2 2 12 0;
#X connect 2 3 16 0;
#X connect 2 4 21 0;
#X connect 2 5 25 0;
#X connect 3 0 4 0;
#X connect 4 1 5 0;
#X connect 5 0 6 0;
#X connect 6 0 7 0;
#X connect 7 0 10 0;
#X connect 8 0 9 1;
#X connect 9 0 10 1;
#X connect 10 0 11 0;
#X connect 11 0 26 0;
#X connect 12 0 13 0;
#X connect 13 0 14 0;
#X connect 14 0 15 0;
#X connect 15 0 11 1;
#X connect 16 0 17 0;
#X connect 17 0 18 0;
#X connect 18 0 19 0;
#X connect 19 0 26 1;
#X connect 20 0 22 0;
#X connect 21 0 20 0;
#X connect 22 0 23 0;
#X connect 23 0 26 2;
#X connect 24 0 25 1;
#X connect 25 0 23 1;
#X connect 26 0 27 0;
#X connect 28 0 29 0;
#X coords 0 -1 1 1 90 20 1 10 10;
