#N canvas 545 313 531 531 10;
#X obj 197 12 array define -k -yrange 0 1 \$0-probability 7;
#A 0 0 0 0 0 0 0 0;
#X f 16;
#X obj 324 10 inlet;
#X obj 324 35 s \$0-msg;
#X obj 40 145 r \$0-msg;
#X obj 40 170 route bang;
#X obj 40 193 array random \$0-probability;
#X obj 40 220 outlet;
#X msg 120 63 size 10;
#X obj 15 29 prob_bit \$0 \$1 0;
#X obj 25 29 prob_bit \$0 \$1 1;
#X obj 35 29 prob_bit \$0 \$1 2;
#X obj 45 29 prob_bit \$0 \$1 3;
#X obj 55 29 prob_bit \$0 \$1 4;
#X obj 65 29 prob_bit \$0 \$1 5;
#X obj 75 29 prob_bit \$0 \$1 6;
#X obj 85 29 prob_bit \$0 \$1 7;
#X obj 88 12 bng 10 250 50 0 \$0-reset \$0-reset-set empty 17 7 0 10
-228856 -262144 -162280;
#X obj 309 111 r \$0-reset;
#X obj 309 136 t b b;
#X msg 351 216 const 0;
#X obj 351 241 s \$0-probability;
#X obj 302 306 s \$0-refresh;
#X connect 1 0 2 0;
#X connect 3 0 4 0;
#X connect 4 0 5 0;
#X connect 5 0 6 0;
#X connect 17 0 18 0;
#X connect 18 0 21 0;
#X connect 18 1 19 0;
#X connect 19 0 20 0;
#X coords 0 -1 1 1 90 83 1 10 10;
