#N canvas 283 141 823 562 12;
#X floatatom 30 81 5 -16 16 0 - #0-phase-set #0-phase;
#X obj 42 362 s \$0-t.phase;
#X obj 42 147 inlet;
#N canvas 770 66 1150 1108 make 0;
#X obj 278 140 expr 60000 / $f1;
#X obj 278 118 r \$0-bpm2;
#X obj 237 140 metro;
#X obj 109 140 expr 60000 / $f1;
#X obj 68 140 metro;
#X obj 109 118 r \$0-bpm1;
#X obj 809 19 r \$0-toggle;
#X obj 68 641 f;
#X obj 68 666 + 1;
#X obj 68 691 % 16;
#X obj 68 716 tabread \$0-t.phase;
#X obj 237 641 f;
#X obj 237 666 + 1;
#X obj 237 691 % 16;
#X obj 237 716 tabread \$0-t.phase;
#X obj 112 873 f;
#X msg 77 873 80;
#X obj 71 904 pack 0 0 0;
#X obj 68 845 t f b b;
#X obj 281 873 f;
#X msg 246 873 80;
#X obj 240 904 pack 0 0 0;
#X obj 237 845 t f b b;
#X obj 68 815 + 60;
#X obj 237 815 + 60;
#X obj 68 792 map;
#X obj 237 792 map;
#X obj 68 741 sel 0;
#X obj 70 768 - 1;
#X obj 238 741 sel 0;
#X obj 240 768 - 1;
#X obj 109 641 * 0.85;
#X obj 278 641 * 0.85;
#X obj 638 140 expr 60000 / $f1;
#X obj 597 140 metro;
#X obj 469 140 expr 60000 / $f1;
#X obj 428 140 metro;
#X obj 428 641 f;
#X obj 428 666 + 1;
#X obj 428 691 % 16;
#X obj 428 716 tabread \$0-t.phase;
#X obj 597 641 f;
#X obj 597 666 + 1;
#X obj 597 691 % 16;
#X obj 597 716 tabread \$0-t.phase;
#X obj 472 873 f;
#X msg 437 873 80;
#X obj 431 904 pack 0 0 0;
#X obj 428 845 t f b b;
#X obj 641 873 f;
#X msg 606 873 80;
#X obj 600 904 pack 0 0 0;
#X obj 597 845 t f b b;
#X obj 428 815 + 60;
#X obj 597 815 + 60;
#X obj 428 792 map;
#X obj 597 792 map;
#X obj 428 741 sel 0;
#X obj 430 768 - 1;
#X obj 598 741 sel 0;
#X obj 600 768 - 1;
#X obj 469 641 * 0.85;
#X obj 638 641 * 0.85;
#X obj 65 62 t f f f f, f 74;
#X obj 738 772 r \$0-mode;
#X obj 469 118 r \$0-bpm3;
#X obj 638 118 r \$0-bpm4;
#X obj 739 671 r \$0-size;
#X obj 809 42 sel 0;
#X msg 809 120 0;
#X msg 258 40 1;
#X obj 658 614 s \$0-tick3-set;
#X obj 488 615 s \$0-tick2-set;
#X obj 298 614 s \$0-tick1-set;
#X obj 128 615 s \$0-tick0-set;
#X msg 854 595 flashtime 50 80;
#X obj 71 933 s \$1-midinote0;
#X obj 240 933 s \$1-midinote1;
#X obj 431 933 s \$1-midinote2;
#X obj 600 933 s \$1-midinote3;
#X connect 0 0 2 1;
#X connect 0 0 32 0;
#X connect 1 0 0 0;
#X connect 2 0 11 0;
#X connect 2 0 73 0;
#X connect 3 0 4 1;
#X connect 3 0 31 0;
#X connect 4 0 7 0;
#X connect 4 0 74 0;
#X connect 5 0 3 0;
#X connect 6 0 68 0;
#X connect 7 0 8 0;
#X connect 8 0 9 0;
#X connect 9 0 7 1;
#X connect 9 0 10 0;
#X connect 10 0 27 0;
#X connect 11 0 12 0;
#X connect 12 0 13 0;
#X connect 13 0 11 1;
#X connect 13 0 14 0;
#X connect 14 0 29 0;
#X connect 15 0 17 2;
#X connect 16 0 17 1;
#X connect 17 0 76 0;
#X connect 18 0 17 0;
#X connect 18 1 16 0;
#X connect 18 2 15 0;
#X connect 19 0 21 2;
#X connect 20 0 21 1;
#X connect 21 0 77 0;
#X connect 22 0 21 0;
#X connect 22 1 20 0;
#X connect 22 2 19 0;
#X connect 23 0 18 0;
#X connect 24 0 22 0;
#X connect 25 0 23 0;
#X connect 26 0 24 0;
#X connect 27 1 28 0;
#X connect 28 0 25 0;
#X connect 29 1 30 0;
#X connect 30 0 26 0;
#X connect 31 0 15 1;
#X connect 32 0 19 1;
#X connect 33 0 34 1;
#X connect 33 0 62 0;
#X connect 34 0 41 0;
#X connect 34 0 71 0;
#X connect 35 0 36 1;
#X connect 35 0 61 0;
#X connect 36 0 37 0;
#X connect 36 0 72 0;
#X connect 37 0 38 0;
#X connect 38 0 39 0;
#X connect 39 0 37 1;
#X connect 39 0 40 0;
#X connect 40 0 57 0;
#X connect 41 0 42 0;
#X connect 42 0 43 0;
#X connect 43 0 41 1;
#X connect 43 0 44 0;
#X connect 44 0 59 0;
#X connect 45 0 47 2;
#X connect 46 0 47 1;
#X connect 47 0 78 0;
#X connect 48 0 47 0;
#X connect 48 1 46 0;
#X connect 48 2 45 0;
#X connect 49 0 51 2;
#X connect 50 0 51 1;
#X connect 51 0 79 0;
#X connect 52 0 51 0;
#X connect 52 1 50 0;
#X connect 52 2 49 0;
#X connect 53 0 48 0;
#X connect 54 0 52 0;
#X connect 55 0 53 0;
#X connect 56 0 54 0;
#X connect 57 1 58 0;
#X connect 58 0 55 0;
#X connect 59 1 60 0;
#X connect 60 0 56 0;
#X connect 61 0 45 1;
#X connect 62 0 49 1;
#X connect 63 0 4 0;
#X connect 63 1 2 0;
#X connect 63 2 36 0;
#X connect 63 3 34 0;
#X connect 64 0 25 1;
#X connect 64 0 56 1;
#X connect 64 0 55 1;
#X connect 64 0 26 1;
#X connect 65 0 35 0;
#X connect 66 0 33 0;
#X connect 67 0 43 1;
#X connect 67 0 39 1;
#X connect 67 0 13 1;
#X connect 67 0 9 1;
#X connect 68 0 69 0;
#X connect 68 1 63 0;
#X connect 69 0 4 0;
#X connect 69 0 2 0;
#X connect 69 0 36 0;
#X connect 69 0 34 0;
#X connect 70 0 4 0;
#X connect 70 0 2 0;
#X connect 70 0 36 0;
#X connect 70 0 34 0;
#X connect 75 0 71 0;
#X connect 75 0 74 0;
#X connect 75 0 73 0;
#X connect 75 0 72 0;
#X restore 536 91 pd make;
#X f 17;
#N canvas 950 66 960 573 bpm 0;
#X obj 160 146 t f b;
#X obj 160 198 +;
#X obj 171 173 f;
#X obj 79 96 r \$0-bpm1;
#X obj 260 146 t f b;
#X obj 260 198 +;
#X obj 271 173 f;
#X obj 359 146 t f b;
#X obj 359 198 +;
#X obj 370 173 f;
#X obj 260 94 r \$0-bpm2;
#X obj 359 94 r \$0-bpm3;
#X obj 61 198 f;
#X obj 61 543 s \$0-bpm1-set;
#X obj 166 95 r \$0-phase;
#X obj 166 120 t b f;
#X obj 182 280 r \$0-toggle_bpm2;
#X obj 315 244 r \$0-toggle_bpm3;
#X obj 160 543 s \$0-bpm2-set;
#X obj 260 543 s \$0-bpm3-set;
#X obj 359 543 s \$0-bpm4-set;
#X obj 160 507 spigot;
#X obj 260 507 spigot;
#X obj 359 507 spigot;
#X obj 475 244 r \$0-toggle_bpm3;
#X connect 0 0 1 0;
#X connect 0 1 2 0;
#X connect 1 0 21 0;
#X connect 2 0 1 1;
#X connect 3 0 0 0;
#X connect 3 0 12 1;
#X connect 4 0 5 0;
#X connect 4 1 6 0;
#X connect 5 0 22 0;
#X connect 6 0 5 1;
#X connect 7 0 8 0;
#X connect 7 1 9 0;
#X connect 8 0 23 0;
#X connect 9 0 8 1;
#X connect 10 0 4 0;
#X connect 11 0 7 0;
#X connect 12 0 13 0;
#X connect 14 0 15 0;
#X connect 15 0 12 0;
#X connect 15 1 2 1;
#X connect 15 1 6 1;
#X connect 15 1 9 1;
#X connect 16 0 21 1;
#X connect 17 0 22 1;
#X connect 21 0 18 0;
#X connect 22 0 19 0;
#X connect 23 0 20 0;
#X connect 24 0 23 1;
#X restore 536 66 pd bpm;
#X obj 42 232 t l l;
#X obj 51 265 list length;
#X obj 51 290 - 1;
#X msg 51 315 resize \$1;
#X obj 52 202 text get \$0-text.phrase;
#X obj 52 64 bng 15 250 50 0 \$0-init \$0-init-set empty 17 7 0 10
-262130 -162280 -1;
#X obj 81 293 s \$0-length;
#X obj 481 222 array define -k -yrange 0 12 \$0-t.phase;
#A 0 7 1 4 2 0 6 4 2 0 0 1 6 7 6 5 2 0 4 2 0 7 5 4 2 0 0 5 4 2 0;
#X f 13;
#X obj 189 80 bng 20 80 50 0 \$0-tick0 \$0-tick0-set empty 17 7 0 10
-228856 -262130 -1;
#X obj 211 79 bng 21 80 50 0 \$0-tick1 \$0-tick1-set empty 17 7 0 10
-228856 -262130 -1;
#X obj 234 81 bng 19 80 50 0 \$0-tick2 \$0-tick2-set empty 17 7 0 10
-228856 -262130 -1;
#X obj 255 80 bng 20 80 50 0 \$0-tick3 \$0-tick3-set empty 17 7 0 10
-228856 -262130 -1;
#N canvas 309 491 663 579 init 0;
#X obj 82 45 r \$0-init;
#X obj 82 70 f \$0;
#X obj 270 56 r \$1-init;
#X obj 270 81 s \$0-init-set;
#X obj 184 22 bng 15 250 50 0 empty empty empty 17 7 0 10 -262144 -1
-1;
#X obj 220 180 f \$0;
#X obj 210 127 bng 15 250 50 0 empty empty empty 17 7 0 10 -262144
-1 -1;
#X msg 281 240 \; \$1-phase-set 0 \; \$1-set_mode 6 \; \$1-bpm1-set
60 \; \$1-bpm2-set 240 \; \$1-bpm3-set 360 \; \$1-bpm4-set 30 \; \$1-t.phase
0 7 1 4 2 0 6 4 2 0 0 1 6 7 6 5 2 \; \$1-toggle_bpm2-set 0 \; \$1-toggle_bpm3-set
0 \; \$1-toggle_bpm4-set 0 \;, f 23;
#X obj 438 62 inlet;
#X msg 48 256 \; \$1-phase-set 1 \; \$1-set_mode 1 \; \$1-bpm1-set
360 \; \$1-t.phase 0 7 1 4 2 0 6 4 2 0 0 1 6 7 6 5 2 \; \$1-toggle_bpm2-set
1 \; \$1-toggle_bpm3-set 1 \; \$1-toggle_bpm4-set 1 \;, f 23;
#X connect 0 0 1 0;
#X connect 1 0 9 0;
#X connect 2 0 3 0;
#X connect 4 0 1 0;
#X connect 5 0 7 0;
#X connect 6 0 5 0;
#X connect 8 0 5 0;
#X restore 427 170 pd init;
#X obj 155 85 bng 15 250 50 0 \$0-seq0 \$0-seq0-set empty 17 7 0 10
-262144 -1 -1;
#X obj 172 85 bng 15 250 50 0 \$0-seq1 \$0-seq1-set empty 17 7 0 10
-262144 -1 -1;
#N canvas 953 409 578 575 select_sequences 0;
#X obj 136 418 text define -k \$0-text.phrase;
#A set 0 7 0 5 4 2 7 0 5 4 0 7 0 5 2 0 7 0 4 2 0 7 5 4 2 0 0 5 4 2
0 \; 0 7 0 3 4 2 7 0 3 4 0 7 0 3 2 0 7 0 4 2 0 7 3 4 2 0 0 3 4 2 0
\; 0 5 0 5 4 2 5 1 5 4 1 2 0 5 2 0 5 1 4 2 0 2 5 4 2 0 1 5 4 2 0 \;
0 3 0 3 4 2 3 1 3 4 0 2 0 3 2 0 3 1 4 2 0 2 3 4 2 0 1 3 4 2 0 \; 0
0 7 5 4 2 0 7 5 4 1 0 7 5 2 1 0 7 4 2 1 0 5 4 2 1 7 5 4 2 1 \; 0 0
7 3 4 2 0 7 3 4 1 0 7 5 2 1 0 7 4 2 1 0 3 4 2 1 7 3 4 2 1 \; 0 0 7
3 4 2 0 7 3 4 1 0 7 5 2 1 0 7 4 2 1 0 3 4 2 1 7 3 4 2 1 \; 0 7 0 3
4 2 7 0 3 4 1 7 0 3 2 1 7 0 4 2 1 7 3 4 2 1 0 3 4 2 1 \;;
#X msg 257 328 clear;
#X obj 98 139 inlet;
#X obj 98 164 t f b;
#X msg 45 226 read patterns/phrase\$1.txt;
#X connect 1 0 0 0;
#X connect 2 0 3 0;
#X connect 3 0 4 0;
#X connect 3 1 1 0;
#X connect 4 0 0 0;
#X restore 159 250 pd select_sequences;
#X obj 30 59 tgl 20 0 \$0-toggle \$0-toggle-set empty 17 7 0 10 -262144
-1 -1 0 1;
#X floatatom 155 63 3 0 990 0 - #0-bpm1-set #0-bpm1;
#X floatatom 181 59 4 0 990 1 - #0-bpm2-set #0-bpm2;
#X floatatom 213 58 4 0 990 1 - #0-bpm3-set #0-bpm3;
#X floatatom 245 60 4 0 990 1 - #0-bpm4-set #0-bpm4;
#X obj 69 65 M28;
#X obj 262 146 s \$0-mode;
#X obj 136 25 r \$0-set_mode;
#X obj 237 288;
#X obj 42 172 route phrase ph select;
#X obj 181 47 tgl 10 0 \$0-toggle_bpm2 \$0-toggle_bpm2-set empty 17
7 0 10 -262144 -1 -1 0 1;
#X obj 213 46 tgl 10 0 \$0-toggle_bpm3 \$0-toggle_bpm3-set empty 17
7 0 10 -262144 -1 -1 0 1;
#X obj 245 48 tgl 10 0 \$0-toggle_bpm4 \$0-toggle_bpm4-set empty 17
7 0 10 -262144 -1 -1 0 1;
#X obj 431 140 bng 15 250 50 0 empty empty empty 17 7 0 10 -262144
-1 -1;
#X connect 2 0 30 0;
#X connect 5 0 1 0;
#X connect 5 1 6 0;
#X connect 6 0 7 0;
#X connect 6 0 11 0;
#X connect 7 0 8 0;
#X connect 8 0 1 0;
#X connect 9 0 5 0;
#X connect 26 0 27 0;
#X connect 28 0 26 0;
#X connect 30 0 5 0;
#X connect 30 1 9 0;
#X connect 30 2 20 0;
#X connect 34 0 17 0;
#X coords 0 -1 1 1 245 60 1 30 40;
