#N canvas 545 59 1332 1008 12;
#X obj 10 10 vradio 10 1 0 8 \$0-value \$0-value-set empty 0 -8 0 10
-191407 -228856 -191407 7;
#X obj 48 21 r \$0-value;
#X obj 30 225 expr 7 - $f1;
#X obj 291 641 s \$0-value-set;
#X obj 127 83 r \$1-bank;
#X obj 106 111 f;
#X obj 106 136 * 8;
#X obj 106 161 + \$3;
#X obj 95 291 r \$1-bank;
#X msg 90 601 set \$1;
#X obj 90 626 s \$0-value-set;
#X obj 90 551 expr 7 - $f1;
#X obj 275 359 == 7;
#X obj 275 384 sel 1 0;
#X obj 165 129 r \$1-select_toggle;
#X obj 164 154 * 64;
#X obj 52 51 t f b b f, f 25;
#X obj 138 187 f;
#X obj 106 186 +;
#X obj 167 292 r \$1-select_toggle;
#X obj 95 376 * 8;
#X obj 95 401 + \$3;
#X obj 174 403 * 64;
#X obj 95 316 f;
#X obj 167 317 t b f;
#X obj 175 363 f;
#X obj 96 342 t f b;
#X obj 95 426 +;
#X msg 457 610 symbol #dbffd0;
#X msg 428 636 symbol #feffc6;
#X msg 490 585 symbol #defeff;
#X obj 356 499 symbol;
#X msg 236 503 symbol #dfdfdf;
#X msg 254 541 color #bbbbbb \$1 #bbbbbb, f 8;
#X msg 334 541 color #bbbbbb \$1 #bbbbbb, f 8;
#X obj 471 491 r \$1-select_toggle;
#X msg 517 555 symbol #fce0c4;
#X obj 471 516 sel 0 1 2 3;
#X obj 32 261 tabwrite \$2-score_table\$4;
#X obj 90 526 tabread \$2-score_table\$4;
#X connect 1 0 16 0;
#X connect 2 0 38 0;
#X connect 4 0 5 1;
#X connect 5 0 6 0;
#X connect 6 0 7 0;
#X connect 7 0 18 0;
#X connect 8 0 23 0;
#X connect 9 0 10 0;
#X connect 11 0 9 0;
#X connect 11 0 12 0;
#X connect 12 0 13 0;
#X connect 13 0 32 0;
#X connect 13 1 31 0;
#X connect 14 0 15 0;
#X connect 15 0 17 1;
#X connect 16 0 2 0;
#X connect 16 1 5 0;
#X connect 16 2 17 0;
#X connect 16 3 12 0;
#X connect 17 0 18 1;
#X connect 18 0 38 1;
#X connect 19 0 24 0;
#X connect 20 0 21 0;
#X connect 21 0 27 0;
#X connect 22 0 27 1;
#X connect 23 0 26 0;
#X connect 24 0 23 0;
#X connect 24 1 25 1;
#X connect 25 0 22 0;
#X connect 26 0 20 0;
#X connect 26 1 25 0;
#X connect 27 0 39 0;
#X connect 28 0 31 1;
#X connect 29 0 31 1;
#X connect 30 0 31 1;
#X connect 31 0 34 0;
#X connect 32 0 33 0;
#X connect 33 0 3 0;
#X connect 34 0 3 0;
#X connect 35 0 37 0;
#X connect 36 0 31 1;
#X connect 37 0 29 0;
#X connect 37 1 28 0;
#X connect 37 2 30 0;
#X connect 37 3 36 0;
#X connect 39 0 11 0;
#X coords 0 -1 1 1 10 80 2 10 10;
