#N canvas 552 119 1190 951 10;
#X obj 15 56 score_bit \$0 \$1 0;
#X obj 25 56 score_bit \$0 \$1 1;
#X obj 35 56 score_bit \$0 \$1 2;
#X obj 45 56 score_bit \$0 \$1 3;
#X obj 55 56 score_bit \$0 \$1 4;
#X obj 65 56 score_bit \$0 \$1 5;
#X obj 75 56 score_bit \$0 \$1 6;
#X obj 85 56 score_bit \$0 \$1 7;
#X obj 30 138 hsl 39 10 0 1 0 0 \$0-browser \$0-browser-set empty -2
-8 0 10 -228856 -93031 -1 0 1;
#X obj 15 138 bng 10 250 50 0 \$0-down \$0-down-set < 1 5 0 10 -191407
-66577 -262144;
#X obj 85 138 bng 10 250 50 0 \$0-up \$0-up-set > 3 5 0 10 -191407
-66577 -262144;
#X floatatom 376 121 2 0 0 0 - #0-bank-set #0-bank;
#X obj 73 138 bng 10 250 50 0 \$0-select_button \$0-select_button-set
g 2 5 0 10 -1 -262144 -262130;
#X floatatom 358 121 2 0 0 0 - #0-select_toggle-set #0-select_toggle
;
#X msg 359 143 const 0;
#X obj 359 168 s \$0-score_table;
#N canvas 464 192 903 757 controls 0;
#X obj 38 27 r \$0-down;
#X obj 38 52 t b b;
#X obj 128 52 t b b;
#X obj 128 27 r \$0-up;
#X msg 61 91 -1;
#X msg 151 91 1;
#X obj 60 153 f;
#X obj 60 178 +;
#X obj 60 253 s \$0-browser-set;
#X obj 125 172 r \$0-bank;
#X obj 60 228 / 7;
#X obj 60 203 mod 8;
#X obj 214 30 r \$0-browser;
#X obj 214 80 + 0.5;
#X obj 214 105 i;
#X obj 214 55 * 7;
#X obj 214 130 s \$0-bank-set;
#X obj 220 153 r \$0-select_button;
#X obj 220 205 f;
#X obj 220 229 + 1;
#X obj 220 277 s \$0-select_toggle-set;
#X obj 243 178 r \$0-select_toggle;
#X obj 57 299 r \$0-select_toggle;
#X msg 57 437 label p;
#X msg 67 416 label v;
#X msg 77 395 label g;
#X obj 57 461 s \$0-select_button-set;
#X obj 220 253 % 4;
#X obj 57 323 sel 0 1 2 3;
#X msg 87 375 label o;
#X connect 0 0 1 0;
#X connect 1 0 6 0;
#X connect 1 1 4 0;
#X connect 2 0 6 0;
#X connect 2 1 5 0;
#X connect 3 0 2 0;
#X connect 4 0 7 1;
#X connect 5 0 7 1;
#X connect 6 0 7 0;
#X connect 7 0 11 0;
#X connect 9 0 6 1;
#X connect 10 0 8 0;
#X connect 11 0 10 0;
#X connect 12 0 15 0;
#X connect 13 0 14 0;
#X connect 14 0 16 0;
#X connect 15 0 13 0;
#X connect 17 0 18 0;
#X connect 18 0 19 0;
#X connect 19 0 27 0;
#X connect 21 0 18 1;
#X connect 22 0 28 0;
#X connect 23 0 26 0;
#X connect 24 0 26 0;
#X connect 25 0 26 0;
#X connect 27 0 20 0;
#X connect 28 0 23 0;
#X connect 28 1 24 0;
#X connect 28 2 25 0;
#X connect 28 3 29 0;
#X connect 29 0 26 0;
#X restore 359 190 pd controls;
#X obj 114 21 inlet;
#X obj 114 48 s \$0-msg;
#X obj 52 353 tabread \$0-score_table, f 7;
#X obj 138 513 + 64;
#X obj 201 526 + 128;
#X obj 138 538 tabread \$0-score_table, f 7;
#X obj 201 551 tabread \$0-score_table, f 7;
#X obj 138 612 * 127;
#X obj 138 637 i;
#X obj 49 781 outlet;
#X obj 138 587 / 7;
#X obj 358 33 text define -k \$0-pitch_names;
#A set C 2 \; Db 1 \; D 2 \; Eb 1 \; E 2 \; F 2 \; Gb 1 \; G 2 \; Ab
1 \; A 2 \; Bb 1 \; B 1 \;;
#X f 14;
#X floatatom 248 129 2 0 0 0 - #0-root-set #0-root;
#X obj 365 214 r \$0-root_button;
#X obj 365 235 f;
#X obj 365 257 + 1;
#X obj 365 279 % 12;
#X obj 365 301 s \$0-root-set;
#X obj 391 235 r \$0-root;
#X obj 664 91 r \$0-root;
#X obj 664 113 text get \$0-pitch_names;
#X obj 664 135 unpack s 0;
#X msg 660 180 label \$1;
#X msg 719 172 label_pos \$1 6, f 9;
#X obj 16 45 bng 9 250 50 0 \$0-root_button \$0-root_button-set Eb
0 6 1 10 -66577 -262144 -262130;
#X obj 15 44 cnv 8 15 10 empty \$0-root_label C 2 6 0 10 -66577 -262130
0;
#X obj 667 234 s \$0-root_label;
#X obj 85 44 bng 10 250 50 0 \$0-octave_reset \$0-octave_reset-set
empty 17 7 0 10 -228856 -262144 -1;
#X obj 633 12 r \$0-octave_reset;
#X msg 633 35 0.5;
#X obj 633 58 s \$0-octave_browser-set;
#X obj 358 66 array define -k -yrange 0 7 \$0-score_table 256;
#A 0 1 1 1 2 2 2 2 0 0 0 0 0 0 0 0 0 0 0 0 0 0 0 0 0 0 0 0 0 0 0 0
0 0 0 0 0 0 0 0 0 0 0 0 0 0 0 0 0 0 0 0 0 0 0 0 0 0 0 0 0 0 0 0 0 5
6 5 6 4 5 6 3 0 0 0 0 0 0 0 0 0 0 0 0 0 0 0 0 0 0 0 0 0 0 0 0 0 0 0
0 0 0 0 0 0 0 0 0 0 0 0 0 0 0 0 0 0 0 0 0 0 0 0 0 0 0 0 0 0 0 0 0 0
2 0 4 0 0 0 0 0 0 0 0 0 0 0 0 0 0 0 0 0 0 0 0 0 0 0 0 0 0 0 0 0 0 0
0 0 0 0 0 0 0 0 0 0 0 0 0 0 0 0 0 0 0 0 0 0 0 0 0 3 3 3 3 3 3 3 3 0
0 0 0 0 0 0 0 0 0 0 0 0 0 0 0 0 0 0 0 0 0 0 0 0 0 0 0 0 0 0 0 0 0 0
0 0 0 0 0 0 0 0 0 0 0 0 0 0 0 0 0 0 0 0 0;
#X f 19;
#X obj 52 482 tabread \$1-m\$2_table, f 7;
#X obj 53 595 + 60;
#X obj 53 618 +;
#X obj 52 258 r \$0-msg;
#X obj 52 283 route float;
#X obj 69 564 f;
#X obj 59 531 r \$0-root;
#X obj 124 375 tabread \$0-score_table, f 7;
#X obj 138 443 - 3;
#X obj 138 466 * 12;
#X obj 53 641 +;
#X obj 230 635 r \$1-time_\$2;
#X obj 224 666 f;
#X obj 201 629 *;
#X obj 201 600 + 1;
#X msg 341 500 const 0;
#X obj 341 523 s \$0-score_table;
#X obj 46 744 pack 0 0 0 0;
#X obj 52 402 sel 0;
#X obj 53 308 t f b f f f b, f 48;
#X floatatom 240 481 5 0 0 0 - - -;
#X obj 155 360 + 192;
#X obj 60 447 - 1;
#X connect 14 0 15 0;
#X connect 17 0 18 0;
#X connect 19 0 67 0;
#X connect 20 0 22 0;
#X connect 21 0 23 0;
#X connect 22 0 27 0;
#X connect 23 0 63 0;
#X connect 24 0 25 0;
#X connect 25 0 66 1;
#X connect 27 0 24 0;
#X connect 30 0 31 0;
#X connect 31 0 32 0;
#X connect 32 0 33 0;
#X connect 33 0 34 0;
#X connect 35 0 31 1;
#X connect 36 0 37 0;
#X connect 37 0 38 0;
#X connect 38 0 39 0;
#X connect 38 1 40 0;
#X connect 39 0 43 0;
#X connect 40 0 43 0;
#X connect 45 0 46 0;
#X connect 46 0 47 0;
#X connect 49 0 50 0;
#X connect 50 0 51 0;
#X connect 51 0 59 0;
#X connect 52 0 53 0;
#X connect 53 0 68 0;
#X connect 54 0 51 1;
#X connect 55 0 54 1;
#X connect 56 0 57 0;
#X connect 56 0 69 0;
#X connect 57 0 58 0;
#X connect 58 0 59 1;
#X connect 59 0 66 0;
#X connect 60 0 61 1;
#X connect 61 0 62 1;
#X connect 62 0 66 2;
#X connect 63 0 62 0;
#X connect 64 0 65 0;
#X connect 66 0 26 0;
#X connect 67 1 71 0;
#X connect 68 0 19 0;
#X connect 68 1 54 0;
#X connect 68 2 70 0;
#X connect 68 3 20 0;
#X connect 68 4 21 0;
#X connect 68 5 61 0;
#X connect 70 0 56 0;
#X connect 70 0 66 3;
#X connect 71 0 49 0;
#X coords 0 -1 1 1 90 140 1 10 10;
