#N canvas 398 186 512 593 12;
#X obj 15 26 score_bit \$0 \$1 0;
#X obj 25 26 score_bit \$0 \$1 1;
#X obj 35 26 score_bit \$0 \$1 2;
#X obj 45 26 score_bit \$0 \$1 3;
#X obj 55 26 score_bit \$0 \$1 4;
#X obj 65 26 score_bit \$0 \$1 5;
#X obj 75 26 score_bit \$0 \$1 6;
#X obj 85 26 score_bit \$0 \$1 7;
#X obj 30 108 hsl 39 10 0 1 0 0 \$0-browser \$0-browser-set empty -2
-8 0 10 -228856 -93031 -1 0 1;
#X obj 15 108 bng 10 250 50 0 \$0-down \$0-down-set < 1 5 0 10 -191407
-66577 -262144;
#X obj 85 108 bng 10 250 50 0 \$0-up \$0-up-set > 3 5 0 10 -191407
-66577 -262144;
#X floatatom 376 121 2 0 0 0 - #0-bank-set #0-bank;
#X obj 73 108 bng 10 250 50 0 \$0-select_button \$0-select_button-set
v 2 5 0 10 -1 -262144 -262130;
#X floatatom 358 121 2 0 0 0 - #0-select_toggle-set #0-select_toggle
;
#X obj 358 66 array define -k -yrange 0 7 \$0-score_table 192;
#A 0 7 6 4 3 0 4 0 3 1 1 1 0 0 0 0 0 0 0 0 0 0 0 0 0 0 0 0 0 0 0 0
0 0 0 0 0 0 0 0 0 0 0 0 0 0 0 0 0 0 0 2 0 0 4 0 4 0 0 0 0 0 0 0 0 3
3 5 5 4 7 5 7 0 0 0 0 0 0 0 0 0 0 0 0 0 0 0 0 0 0 0 0 0 0 0 0 0 0 0
0 0 0 0 0 0 0 0 0 0 0 0 0 0 0 0 3 5 0 0 2 0 0 0 0 0 0 0 0 2 2 3 4 4
6 4 2 0 0 0 0 0 0 0 0 0 0 0 0 0 0 0 0 0 0 0 0 0 0 0 0 0 0 0 0 0 0 0
0 0 0 0 0 0 0 0 0 0 0 2 0 2 0 4 0 0 0 0 0 0 0 0 0;
#X f 19;
#X msg 359 143 const 0;
#X obj 359 168 s \$0-score_table;
#N canvas 464 192 903 757 controls 0;
#X obj 38 27 r \$0-down;
#X obj 38 52 t b b;
#X obj 128 52 t b b;
#X obj 128 27 r \$0-up;
#X msg 61 91 -1;
#X msg 151 91 1;
#X obj 60 153 f;
#X obj 60 178 +;
#X obj 60 253 s \$0-browser-set;
#X obj 125 172 r \$0-bank;
#X obj 60 228 / 7;
#X obj 60 203 mod 8;
#X obj 214 30 r \$0-browser;
#X obj 214 80 + 0.5;
#X obj 214 105 i;
#X obj 214 55 * 7;
#X obj 214 130 s \$0-bank-set;
#X obj 220 153 r \$0-select_button;
#X obj 220 205 f;
#X obj 220 229 + 1;
#X obj 220 253 % 3;
#X obj 220 277 s \$0-select_toggle-set;
#X obj 243 178 r \$0-select_toggle;
#X obj 57 299 r \$0-select_toggle;
#X obj 57 323 sel 0 1 2;
#X msg 57 397 label p;
#X msg 67 376 label v;
#X msg 77 355 label g;
#X obj 57 421 s \$0-select_button-set;
#X connect 0 0 1 0;
#X connect 1 0 6 0;
#X connect 1 1 4 0;
#X connect 2 0 6 0;
#X connect 2 1 5 0;
#X connect 3 0 2 0;
#X connect 4 0 7 1;
#X connect 5 0 7 1;
#X connect 6 0 7 0;
#X connect 7 0 11 0;
#X connect 9 0 6 1;
#X connect 10 0 8 0;
#X connect 11 0 10 0;
#X connect 12 0 15 0;
#X connect 13 0 14 0;
#X connect 14 0 16 0;
#X connect 15 0 13 0;
#X connect 17 0 18 0;
#X connect 18 0 19 0;
#X connect 19 0 20 0;
#X connect 20 0 21 0;
#X connect 22 0 18 1;
#X connect 23 0 24 0;
#X connect 24 0 25 0;
#X connect 24 1 26 0;
#X connect 24 2 27 0;
#X connect 25 0 28 0;
#X connect 26 0 28 0;
#X connect 27 0 28 0;
#X restore 359 190 pd controls;
#X obj 228 56 inlet;
#X obj 228 81 s \$0-msg;
#X obj 52 258 r \$0-msg;
#X obj 52 283 route float;
#X obj 52 308 t f f f;
#X obj 41 487 tabread \$0-score_table, f 7;
#X obj 100 379 + 64;
#X obj 167 440 + 128;
#X obj 100 404 tabread \$0-score_table, f 7;
#X obj 167 465 tabread \$0-score_table, f 7;
#X obj 100 494 * 127;
#X obj 100 519 i;
#X obj 49 596 pack 0 0 0;
#X obj 49 621 outlet;
#X obj 100 469 / 7;
#X obj 167 520 / 7;
#X connect 15 0 16 0;
#X connect 18 0 19 0;
#X connect 20 0 21 0;
#X connect 21 0 22 0;
#X connect 22 0 23 0;
#X connect 22 1 24 0;
#X connect 22 2 25 0;
#X connect 23 0 30 0;
#X connect 24 0 26 0;
#X connect 25 0 27 0;
#X connect 26 0 32 0;
#X connect 27 0 33 0;
#X connect 28 0 29 0;
#X connect 29 0 30 1;
#X connect 30 0 31 0;
#X connect 32 0 28 0;
#X connect 33 0 30 2;
#X coords 0 -1 1 1 90 110 1 10 10;
