#N canvas 871 174 857 782 12;
#X obj 62 55 inlet;
#X msg 137 347 8;
#X obj 74 342 f \$3;
#X obj 74 367 * 8;
#X obj 74 392 array random \$1-vel;
#X obj 68 678 outlet;
#X obj 229 403 r \$1-vel_base\$3;
#X obj 214 438 f;
#X obj 83 497 *;
#X obj 74 417 + 1;
#X obj 74 442 * 0.125;
#X obj 73 623 line;
#X obj 58 237 t b b b b, f 56;
#X obj 370 481 f;
#X obj 75 569 pack 0 0;
#X obj 485 281 * 0.0078704;
#X obj 485 306 *;
#X obj 485 356 * 4800;
#X obj 480 171 r \$1-vel_time\$3;
#X connect 0 0 12 0;
#X connect 1 0 4 1;
#X connect 2 0 3 0;
#X connect 3 0 4 0;
#X connect 4 0 9 0;
#X connect 6 0 7 1;
#X connect 7 0 8 1;
#X connect 8 0 14 0;
#X connect 9 0 10 0;
#X connect 10 0 8 0;
#X connect 11 0 5 0;
#X connect 12 0 2 0;
#X connect 12 1 1 0;
#X connect 12 2 7 0;
#X connect 12 3 13 0;
#X connect 13 0 14 1;
#X connect 14 0 11 0;
#X connect 15 0 16 0;
#X connect 15 0 16 1;
#X connect 16 0 17 0;
#X connect 17 0 13 1;
#X connect 18 0 15 0;
