#N canvas 928 59 1042 840 12;
#X obj 12 12 tgl 23 0 \$1-metro_toggle\$2 \$1-metro_toggle\$2-set empty
17 7 0 10 -191407 -262144 -1 0 1;
#X floatatom 37 16 4 0 0 0 - #1-bpm#2-set #1-bpm#2;
#X floatatom 69 15 0 0 0 0 - #1-ms#2-set #1-ms#2;
#X obj 132 11 r \$1-ms\$2;
#X obj 132 35 expr 60000 / $f1;
#X obj 132 59 i;
#X obj 116 144 s \$1-bpm\$2-set;
#X obj 284 10 r \$1-diff;
#X obj 376 10 r \$1-ms;
#X obj 284 194 f;
#X obj 376 164 t b f;
#X obj 378 232 f;
#X obj 290 299 +;
#X obj 290 360 s \$1-ms\$2-set;
#X obj 282 228 t f f b;
#X obj 290 323 -;
#X obj 288 257 expr $f1 * (\$2 + 1), f 10;
#X msg 132 83 set \$1;
#X obj 70 200 r \$1-bpm\$2;
#X obj 70 224 expr 60000 / $f1;
#X obj 70 248 s \$1-ms\$2-set;
#X obj 598 168 r \$1-init;
#X msg 598 193 0;
#X obj 598 218 s \$1-metro_toggle\$2-set;
#X obj 101 425 r \$1-metro_toggle\$2;
#X obj 101 450 sel 0 1;
#X msg 147 530 color #efefef #2c7ca1 #2c7ca1, f 7;
#X msg 75 522 color #b8b8b8 #2c7ca1 #2c7ca1, f 7;
#X obj 54 691 s \$1-bang\$2-set;
#X connect 3 0 4 0;
#X connect 4 0 5 0;
#X connect 5 0 17 0;
#X connect 7 0 9 0;
#X connect 8 0 10 0;
#X connect 9 0 14 0;
#X connect 10 0 9 0;
#X connect 10 1 11 1;
#X connect 11 0 12 1;
#X connect 12 0 15 0;
#X connect 14 0 16 0;
#X connect 14 1 15 1;
#X connect 14 2 11 0;
#X connect 15 0 13 0;
#X connect 16 0 12 0;
#X connect 17 0 6 0;
#X connect 18 0 19 0;
#X connect 19 0 20 0;
#X connect 21 0 22 0;
#X connect 22 0 23 0;
#X connect 24 0 25 0;
#X connect 25 0 27 0;
#X connect 25 1 26 0;
#X connect 26 0 28 0;
#X connect 27 0 28 0;
#X coords 0 -1 1 1 120 27 2 10 10;
