#N canvas 572 244 607 575 12;
#X obj 188 87 inlet;
#X obj 188 112 t f f;
#X obj 188 137 % 7;
#X obj 231 140 div 7;
#X obj 231 165 * 12;
#X obj 164 315 +;
#X obj 164 340 outlet;
#X obj 164 290 tabread \$1-MODE;
#X connect 0 0 1 0;
#X connect 1 0 2 0;
#X connect 1 1 3 0;
#X connect 2 0 7 0;
#X connect 3 0 4 0;
#X connect 4 0 5 1;
#X connect 5 0 6 0;
#X connect 7 0 5 0;
