#N canvas 464 59 1125 1011 12;
#X obj 369 141 r \$1-metro_toggle\$2;
#X obj 407 267 r \$1-ms\$2;
#X obj 187 349 metro;
#X obj 189 258 f;
#X obj 142 53 r \$1-start_toggle;
#X obj 143 166 sel 1;
#X obj 192 382 s \$1-bang\$2-set;
#X obj 335 242 spigot;
#X connect 0 0 3 1;
#X connect 0 0 7 0;
#X connect 1 0 2 1;
#X connect 2 0 6 0;
#X connect 3 0 2 0;
#X connect 4 0 5 0;
#X connect 4 0 7 1;
#X connect 5 0 3 0;
#X connect 5 1 2 0;
#X connect 7 0 2 0;
