#N canvas 371 59 1131 937 12;
#X obj 268 501 i;
#X obj 268 426 * 6;
#X obj 268 451 - 3;
#X obj 268 526 * 12;
#X obj 171 561 f;
#X obj 125 502 f;
#X obj 63 426 + 60;
#X obj 66 544 +, f 7;
#X obj 68 621 +, f 14;
#X obj 71 290 sel 0;
#X obj 100 319 - 1;
#X obj 63 401 mod_pitch \$1;
#X obj 157 401 r \$1-pitch_root;
#X obj 268 401 r \$1-octave;
#X obj 60 167 f;
#X obj 60 192 + 1;
#X obj 92 151 array size \$1-pattern;
#X obj 92 77 r \$1-bang\$2;
#X obj 60 217 %;
#X obj 60 242 tabread \$1-pattern;
#X obj 446 319 f;
#X obj 446 344 + 1;
#X obj 446 369 % 8;
#X obj 407 568 tabread \$1-x8_tab;
#X obj 466 428 f \$2;
#X obj 466 453 * 8;
#X obj 446 394 t f b;
#X obj 444 491 +;
#X obj 407 593 * 127;
#X obj 66 348 t f b b;
#X obj 181 779 pack 0 0 0;
#X obj 626 279 f;
#X obj 626 304 + 1;
#X obj 626 329 % 8;
#X obj 587 568 tabread \$1-x8_tab;
#X obj 646 388 f \$2;
#X obj 646 413 * 8;
#X obj 626 354 t f b;
#X obj 624 491 +;
#X obj 646 438 + 32;
#X obj 615 626 r \$1-ms\$2;
#X obj 598 685 f;
#X obj 573 716 *;
#X obj 587 593 t f b;
#X obj 92 102 t b b b b, f 80;
#X obj 181 804 s \$1-midi_note\$2;
#X connect 0 0 3 0;
#X connect 1 0 2 0;
#X connect 2 0 0 0;
#X connect 3 0 4 1;
#X connect 4 0 8 1;
#X connect 5 0 7 1;
#X connect 6 0 7 0;
#X connect 7 0 8 0;
#X connect 8 0 30 0;
#X connect 9 1 10 0;
#X connect 10 0 29 0;
#X connect 11 0 6 0;
#X connect 12 0 5 1;
#X connect 13 0 1 0;
#X connect 14 0 15 0;
#X connect 15 0 18 0;
#X connect 16 0 18 1;
#X connect 17 0 44 0;
#X connect 18 0 14 1;
#X connect 18 0 19 0;
#X connect 19 0 9 0;
#X connect 20 0 21 0;
#X connect 21 0 22 0;
#X connect 22 0 20 1;
#X connect 22 0 26 0;
#X connect 23 0 28 0;
#X connect 24 0 25 0;
#X connect 25 0 27 1;
#X connect 26 0 27 0;
#X connect 26 1 24 0;
#X connect 27 0 23 0;
#X connect 28 0 30 1;
#X connect 29 0 11 0;
#X connect 29 1 5 0;
#X connect 29 2 4 0;
#X connect 30 0 45 0;
#X connect 31 0 32 0;
#X connect 32 0 33 0;
#X connect 33 0 31 1;
#X connect 33 0 37 0;
#X connect 34 0 43 0;
#X connect 35 0 36 0;
#X connect 36 0 39 0;
#X connect 37 0 38 0;
#X connect 37 1 35 0;
#X connect 38 0 34 0;
#X connect 39 0 38 1;
#X connect 40 0 41 1;
#X connect 41 0 42 1;
#X connect 42 0 30 2;
#X connect 43 0 42 0;
#X connect 43 1 41 0;
#X connect 44 0 14 0;
#X connect 44 1 16 0;
#X connect 44 2 20 0;
#X connect 44 3 31 0;
