#N canvas 1088 120 956 866 12;
#X obj 102 150 bng 32 250 50 0 \$0-x8_button \$0-x8_button-set gate
1 18 1 16 -191407 -228856 -262144;
#X obj 137 150 bng 32 250 50 0 \$0-x8_channel_button \$0-x8_channel_button-set
c00 3 18 1 16 -191407 -228856 -262144;
#N canvas 408 299 1002 724 buttons 0;
#X obj 36 87 f;
#X obj 36 112 + 32;
#X obj 36 137 % 64;
#X floatatom 203 3 5 0 0 0 - #0-x8_toggle-set #0-x8_toggle;
#X obj 36 162 s \$0-x8_toggle-set;
#X obj 69 85 r \$0-x8_toggle;
#X obj 36 55 r \$0-x8_button;
#X obj 181 86 f;
#X obj 181 111 + 8;
#X obj 181 136 % 32;
#X floatatom 222 19 5 0 0 0 - #0-x8_channel_toggle-set #0-x8_channel_toggle
;
#X obj 345 337 r \$0-x8_toggle;
#X obj 139 406 f;
#X obj 345 382 t b f;
#X obj 139 431 t f b;
#X obj 318 508 f;
#X obj 156 544 +;
#X obj 156 569 s \$0-address-set;
#X floatatom 374 11 5 0 0 0 - #0-address-set #0-address;
#X obj 212 87 r \$0-x8_channel_toggle;
#X obj 181 161 s \$0-x8_channel_toggle-set;
#X obj 139 331 r \$0-x8_channel_toggle;
#X obj 181 61 r \$0-x8_channel_button;
#X connect 0 0 1 0;
#X connect 1 0 2 0;
#X connect 2 0 4 0;
#X connect 5 0 0 1;
#X connect 6 0 0 0;
#X connect 7 0 8 0;
#X connect 8 0 9 0;
#X connect 9 0 20 0;
#X connect 11 0 13 0;
#X connect 12 0 14 0;
#X connect 13 0 12 0;
#X connect 13 1 15 1;
#X connect 14 0 16 0;
#X connect 14 1 15 0;
#X connect 15 0 16 1;
#X connect 16 0 17 0;
#X connect 19 0 7 1;
#X connect 21 0 12 0;
#X connect 22 0 7 0;
#X restore 41 51 pd buttons;
#X obj 43 75 array define -k -yrange 0 1 \$1-x8_tab 64;
#A 0 0.629921 0.629921 0.629921 0.629921 0.629921 0.629921 0.629921
0.629921 0.629921 0.629921 0.629921 0.629921 0.629921 0.629921 0.629921
0.629921 0.629921 0.629921 0.629921 0.629921 0.629921 0.629921 0.629921
0.629921 0.629921 0.629921 0.629921 0.629921 0.629921 0.629921 0.629921
0.629921 0.629921 0.629921 0.629921 0.629921 0.629921 0.629921 0.629921
0.629921 0.629921 0.629921 0.629921 0.629921 0.629921 0.629921 0.629921
0.629921 0.629921 0.629921 0.629921 0.629921 0.629921 0.629921 0.629921
0.629921 0.629921 0.629921 0.629921 0.629921 0.629921 0.629921 0.629921
0.629921;
#X obj 100 184 x8_table_fader \$0 \$1 0;
#X obj 119 184 x8_table_fader \$0 \$1 1;
#X obj 138 184 x8_table_fader \$0 \$1 2;
#X obj 157 184 x8_table_fader \$0 \$1 3;
#X obj 176 184 x8_table_fader \$0 \$1 4;
#X obj 195 184 x8_table_fader \$0 \$1 5;
#X obj 214 184 x8_table_fader \$0 \$1 6;
#X obj 233 184 x8_table_fader \$0 \$1 7;
#X msg 398 46 const 0;
#X obj 398 71 s \$1-x8_tab;
#N canvas 663 165 773 853 style 0;
#X obj 120 19 r \$0-x8_toggle;
#X obj 120 44 div 32;
#X obj 117 74 sel 0 1;
#X msg 52 290 label vel;
#X msg 206 279 label gate;
#X obj 97 381 s \$0-x8_button-set;
#X obj 45 219 t b b, f 6;
#X obj 208 223 t b b;
#X msg 236 254 label_pos 1 18;
#X msg 81 264 label_pos 4 18;
#X obj 415 196 for 0 4;
#X obj 415 221 t b f;
#X obj 470 266 * 8;
#X obj 377 384 array set \$1-x8_tab;
#X obj 470 291 + 32;
#X msg 359 330 0.5 0.2 0 0.6 0.4 0 0.1 0.3;
#X obj 624 196 for 0 4;
#X obj 624 221 t b f;
#X obj 679 266 * 8;
#X obj 586 384 array set \$1-x8_tab;
#X msg 568 330 0.5 0.2 0 0.6 0.4 0 0.1 0.3;
#X obj 522 56 bng 15 250 50 0 empty empty empty 17 7 0 10 -262144 -1
-1;
#X obj 522 81 t b b;
#X msg 58 546 color #bbbbbb #ffffff #ffffff;
#X obj 150 510 sel 0 1;
#X obj 94 609 s \$0-fader_color;
#X obj 149 455 r \$0-address;
#X obj 149 480 div 32;
#X msg 58 571 color #e4e4e4 #888888 #a2a2a2;
#X msg 357 547 label c0\$1;
#X obj 357 572 s \$0-x8_channel_button-set;
#X obj 376 490 r \$0-x8_channel_toggle;
#X obj 376 515 div 8;
#X connect 0 0 1 0;
#X connect 1 0 2 0;
#X connect 2 0 6 0;
#X connect 2 1 7 0;
#X connect 3 0 5 0;
#X connect 4 0 5 0;
#X connect 6 0 3 0;
#X connect 6 1 9 0;
#X connect 7 0 4 0;
#X connect 7 1 8 0;
#X connect 8 0 5 0;
#X connect 9 0 5 0;
#X connect 10 0 11 0;
#X connect 11 0 15 0;
#X connect 11 1 12 0;
#X connect 12 0 14 0;
#X connect 14 0 13 1;
#X connect 15 0 13 0;
#X connect 16 0 17 0;
#X connect 17 0 20 0;
#X connect 17 1 18 0;
#X connect 18 0 19 1;
#X connect 20 0 19 0;
#X connect 21 0 22 0;
#X connect 22 0 10 0;
#X connect 22 1 16 0;
#X connect 23 0 25 0;
#X connect 24 0 23 0;
#X connect 24 1 28 0;
#X connect 26 0 27 0;
#X connect 27 0 24 0;
#X connect 28 0 25 0;
#X connect 29 0 30 0;
#X connect 31 0 32 0;
#X connect 32 0 29 0;
#X restore 39 95 pd style;
#X obj 171 150 bng 32 250 50 0 \$0-80 \$0-80-set empty 17 7 0 10 -262144
-1 -1;
#X obj 205 150 bng 32 250 50 0 \$0-zero \$0-zero-set empty 17 7 0 10
-262144 -1 -1;
#N canvas 0 451 695 467 zero80 1;
#X obj 73 58 r \$0-80;
#X obj 164 113 for 0 8;
#X obj 273 150 r \$0-address;
#X obj 164 138 t b f b;
#X obj 220 195 f;
#X obj 189 236 +;
#X obj 146 347 tabwrite \$1-x8_tab;
#X obj 73 83 t b b;
#X obj 73 108 s \$0-refresh;
#X msg 164 163 0.629921;
#X obj 444 83 for 0 8;
#X obj 553 120 r \$0-address;
#X obj 444 108 t b f b;
#X obj 500 165 f;
#X obj 469 206 +;
#X obj 426 317 tabwrite \$1-x8_tab;
#X obj 353 53 t b b;
#X obj 338 115 s \$0-refresh;
#X msg 444 133 0;
#X obj 353 28 r \$0-zero;
#X connect 0 0 7 0;
#X connect 1 0 3 0;
#X connect 2 0 4 1;
#X connect 3 0 9 0;
#X connect 3 1 5 0;
#X connect 3 2 4 0;
#X connect 4 0 5 1;
#X connect 5 0 6 1;
#X connect 7 0 8 0;
#X connect 7 1 1 0;
#X connect 9 0 6 0;
#X connect 10 0 12 0;
#X connect 11 0 13 1;
#X connect 12 0 18 0;
#X connect 12 1 14 0;
#X connect 12 2 13 0;
#X connect 13 0 14 1;
#X connect 14 0 15 1;
#X connect 16 0 17 0;
#X connect 16 1 10 0;
#X connect 18 0 15 0;
#X connect 19 0 16 0;
#X restore 58 342 pd zero80;
#X obj 328 183 r \$1-init;
#X obj 328 208 for 0 64;
#X obj 348 293 tabwrite \$1-x8_tab;
#X msg 348 268 0.629921;
#X obj 328 233 t b b f, f 13;
#X obj 330 348 s \$0-refresh;
#X connect 12 0 13 0;
#X connect 18 0 19 0;
#X connect 19 0 22 0;
#X connect 21 0 20 0;
#X connect 22 0 23 0;
#X connect 22 1 21 0;
#X connect 22 2 20 1;
#X coords 0 -1 1 1 152 139 2 100 150;
