#N canvas 592 301 846 680 12;
#X obj 12 14 vsl 15 96 0 1 0 0 \$0-value \$0-value-set empty 0 -9 0
10 -237178 -141475 -166441 4750 0;
#X obj 75 28 r \$0-value;
#X obj 157 84 + \$3;
#X obj 157 153 f;
#X obj 75 53 t f b;
#X obj 85 247 tabwrite \$2-x8_tab;
#X obj 157 59 r \$1-address;
#X obj 264 32 r \$1-address;
#X obj 264 57 + \$3;
#X obj 264 82 tabread \$2-x8_tab;
#X msg 264 107 set \$1;
#X obj 264 132 s \$0-value-set;
#X obj 256 181 s \$0-value-set;
#X obj 256 156 r \$1-fader_color;
#X obj 420 61 r \$1-refresh;
#X obj 435 178 + \$3;
#X obj 435 203 tabread \$2-x8_tab;
#X msg 435 228 set \$1;
#X obj 435 253 s \$0-value-set;
#X obj 474 117 r \$1-address;
#X obj 439 146 f;
#X connect 1 0 4 0;
#X connect 2 0 3 1;
#X connect 3 0 5 1;
#X connect 4 0 5 0;
#X connect 4 1 3 0;
#X connect 6 0 2 0;
#X connect 7 0 8 0;
#X connect 8 0 9 0;
#X connect 9 0 10 0;
#X connect 10 0 11 0;
#X connect 13 0 12 0;
#X connect 14 0 20 0;
#X connect 15 0 16 0;
#X connect 16 0 17 0;
#X connect 17 0 18 0;
#X connect 19 0 20 1;
#X connect 20 0 15 0;
#X coords 0 -1 1 1 19 105 2 10 10;
